<?xml version="1.0" encoding="UTF-8" standalone="no"?>
<svg
   xmlns:dc="http://purl.org/dc/elements/1.1/"
   xmlns:cc="http://creativecommons.org/ns#"
   xmlns:rdf="http://www.w3.org/1999/02/22-rdf-syntax-ns#"
   xmlns:svg="http://www.w3.org/2000/svg"
   xmlns="http://www.w3.org/2000/svg"
   xmlns:sodipodi="http://sodipodi.sourceforge.net/DTD/sodipodi-0.dtd"
   xmlns:inkscape="http://www.inkscape.org/namespaces/inkscape"
   width="141"
   height="141"
   version="1.1"
   content="%3CmxGraphModel%20dx%3D%22815%22%20dy%3D%22498%22%20grid%3D%221%22%20gridSize%3D%2210%22%20guides%3D%221%22%20tooltips%3D%221%22%20connect%3D%221%22%20arrows%3D%221%22%20fold%3D%221%22%20page%3D%221%22%20pageScale%3D%221%22%20pageWidth%3D%22826%22%20pageHeight%3D%221169%22%20background%3D%22%23ffffff%22%20math%3D%220%22%20shadow%3D%220%22%3E%3Croot%3E%3CmxCell%20id%3D%220%22%2F%3E%3CmxCell%20id%3D%221%22%20parent%3D%220%22%2F%3E%3CmxCell%20id%3D%2227%22%20style%3D%22edgeStyle%3Dnone%3Brounded%3D0%3Bhtml%3D1%3BexitX%3D1%3BexitY%3D1%3BstartArrow%3Dnone%3BstartFill%3D0%3BendArrow%3Dnone%3BendFill%3D0%3BjettySize%3Dauto%3BorthogonalLoop%3D1%3BstrokeColor%3D%23000000%3B%22%20parent%3D%221%22%20source%3D%2212%22%20target%3D%2224%22%20edge%3D%221%22%3E%3CmxGeometry%20relative%3D%221%22%20as%3D%22geometry%22%2F%3E%3C%2FmxCell%3E%3CmxCell%20id%3D%2236%22%20value%3D%22%22%20style%3D%22edgeStyle%3Dnone%3Brounded%3D0%3Bhtml%3D1%3BstartArrow%3Dnone%3BstartFill%3D0%3BendArrow%3Dnone%3BendFill%3D0%3BjettySize%3Dauto%3BorthogonalLoop%3D1%3BstrokeColor%3D%23000000%3B%22%20parent%3D%221%22%20source%3D%2212%22%20target%3D%2235%22%20edge%3D%221%22%3E%3CmxGeometry%20relative%3D%221%22%20as%3D%22geometry%22%2F%3E%3C%2FmxCell%3E%3CmxCell%20id%3D%2212%22%20value%3D%22%22%20style%3D%22ellipse%3BwhiteSpace%3Dwrap%3BfillColor%3Dnone%22%20parent%3D%221%22%20vertex%3D%221%22%3E%3CmxGeometry%20x%3D%2280%22%20y%3D%2220%22%20width%3D%2220%22%20height%3D%2220%22%20as%3D%22geometry%22%2F%3E%3C%2FmxCell%3E%3CmxCell%20id%3D%2237%22%20style%3D%22edgeStyle%3Dnone%3Brounded%3D0%3Bhtml%3D1%3BexitX%3D1%3BexitY%3D1%3BentryX%3D0%3BentryY%3D0%3BstartArrow%3Dnone%3BstartFill%3D0%3BendArrow%3Dnone%3BendFill%3D0%3BjettySize%3Dauto%3BorthogonalLoop%3D1%3BstrokeColor%3D%23999999%3Bdashed%3D1%3B%22%20parent%3D%221%22%20source%3D%2235%22%20target%3D%2214%22%20edge%3D%221%22%3E%3CmxGeometry%20relative%3D%221%22%20as%3D%22geometry%22%2F%3E%3C%2FmxCell%3E%3CmxCell%20id%3D%2235%22%20value%3D%22%22%20style%3D%22ellipse%3BwhiteSpace%3Dwrap%3BfillColor%3Dnone%22%20parent%3D%221%22%20vertex%3D%221%22%3E%3CmxGeometry%20x%3D%2220%22%20y%3D%2280%22%20width%3D%2220%22%20height%3D%2220%22%20as%3D%22geometry%22%2F%3E%3C%2FmxCell%3E%3CmxCell%20id%3D%2214%22%20value%3D%22%22%20style%3D%22ellipse%3BwhiteSpace%3Dwrap%22%20parent%3D%221%22%20vertex%3D%221%22%3E%3CmxGeometry%20x%3D%2280%22%20y%3D%22140%22%20width%3D%2220%22%20height%3D%2220%22%20as%3D%22geometry%22%2F%3E%3C%2FmxCell%3E%3CmxCell%20id%3D%2228%22%20style%3D%22edgeStyle%3Dnone%3Brounded%3D0%3Bhtml%3D1%3BexitX%3D0%3BexitY%3D1%3BentryX%3D1%3BentryY%3D0%3BstartArrow%3Dnone%3BstartFill%3D0%3BendArrow%3Dnone%3BendFill%3D0%3BjettySize%3Dauto%3BorthogonalLoop%3D1%3BstrokeColor%3D%23000000%3B%22%20parent%3D%221%22%20source%3D%2224%22%20target%3D%2214%22%20edge%3D%221%22%3E%3CmxGeometry%20relative%3D%221%22%20as%3D%22geometry%22%2F%3E%3C%2FmxCell%3E%3CmxCell%20id%3D%2224%22%20value%3D%22%22%20style%3D%22ellipse%3BwhiteSpace%3Dwrap%22%20parent%3D%221%22%20vertex%3D%221%22%3E%3CmxGeometry%20x%3D%22140%22%20y%3D%2280%22%20width%3D%2220%22%20height%3D%2220%22%20as%3D%22geometry%22%2F%3E%3C%2FmxCell%3E%3CmxCell%20id%3D%2231%22%20style%3D%22edgeStyle%3Dnone%3Brounded%3D0%3Bhtml%3D1%3BexitX%3D0.5%3BexitY%3D0%3BentryX%3D0.5%3BentryY%3D1%3BstartArrow%3Dnone%3BstartFill%3D0%3BendArrow%3Dnone%3BendFill%3D0%3BjettySize%3Dauto%3BorthogonalLoop%3D1%3BstrokeColor%3D%23000000%3B%22%20parent%3D%221%22%20source%3D%2229%22%20target%3D%2212%22%20edge%3D%221%22%3E%3CmxGeometry%20relative%3D%221%22%20as%3D%22geometry%22%2F%3E%3C%2FmxCell%3E%3CmxCell%20id%3D%2233%22%20style%3D%22edgeStyle%3Dnone%3Brounded%3D0%3Bhtml%3D1%3BexitX%3D0.5%3BexitY%3D1%3BentryX%3D0.5%3BentryY%3D0%3BstartArrow%3Dnone%3BstartFill%3D0%3BendArrow%3Dnone%3BendFill%3D0%3BjettySize%3Dauto%3BorthogonalLoop%3D1%3BstrokeColor%3D%23999999%3Bdashed%3D1%3B%22%20parent%3D%221%22%20source%3D%2229%22%20target%3D%2214%22%20edge%3D%221%22%3E%3CmxGeometry%20relative%3D%221%22%20as%3D%22geometry%22%2F%3E%3C%2FmxCell%3E%3CmxCell%20id%3D%2229%22%20value%3D%22%22%20style%3D%22ellipse%3BwhiteSpace%3Dwrap%3BfillColor%3Dnone%22%20parent%3D%221%22%20vertex%3D%221%22%3E%3CmxGeometry%20x%3D%2280%22%20y%3D%2280%22%20width%3D%2220%22%20height%3D%2220%22%20as%3D%22geometry%22%2F%3E%3C%2FmxCell%3E%3C%2Froot%3E%3C%2FmxGraphModel%3E"
   id="svg2"
   inkscape:version="0.91 r13725"
   sodipodi:docname="a2.svg">
  <metadata
     id="metadata32">
    <rdf:RDF>
      <cc:Work
         rdf:about="">
        <dc:format>image/svg+xml</dc:format>
        <dc:type
           rdf:resource="http://purl.org/dc/dcmitype/StillImage" />
        <dc:title></dc:title>
      </cc:Work>
    </rdf:RDF>
  </metadata>
  <sodipodi:namedview
     pagecolor="#ffffff"
     bordercolor="#666666"
     borderopacity="1"
     objecttolerance="10"
     gridtolerance="10"
     guidetolerance="10"
     inkscape:pageopacity="0"
     inkscape:pageshadow="2"
     inkscape:window-width="1301"
     inkscape:window-height="744"
     id="namedview30"
     showgrid="false"
     fit-margin-top="0"
     fit-margin-left="0"
     fit-margin-right="0"
     fit-margin-bottom="0"
     inkscape:zoom="3.55"
     inkscape:cx="42.722222"
     inkscape:cy="70.5"
     inkscape:window-x="65"
     inkscape:window-y="24"
     inkscape:window-maximized="1"
     inkscape:current-layer="g6818" />
  <defs
     id="defs4" />
  <g
     transform="translate(-0.5,-0.5)"
     id="g6"
     style="fill:none">
    <path
       d="m 78,18 45.93,45.93"
       stroke-miterlimit="10"
       pointer-events="none"
       id="path8"
       style="fill:none;stroke:#000000;stroke-miterlimit:10"
       inkscape:connector-curvature="0" />
    <path
       d="M 63.93,18.07 18.07,63.93"
       stroke-miterlimit="10"
       pointer-events="none"
       id="path10"
       style="fill:none;stroke:#000000;stroke-miterlimit:10"
       inkscape:connector-curvature="0" />
    <path
       d="m 18,78 46,46"
       stroke-miterlimit="10"
       pointer-events="none"
       id="path14"
       style="fill:none;stroke:#999999;stroke-miterlimit:10;stroke-dasharray:3, 3"
       inkscape:connector-curvature="0" />
    <path
       d="M 124,78 78,124"
       stroke-miterlimit="10"
       pointer-events="none"
       id="path20"
       style="fill:none;stroke:#000000;stroke-miterlimit:10"
       inkscape:connector-curvature="0" />
    <path
       d="M 71,61 71,21"
       stroke-miterlimit="10"
       pointer-events="none"
       id="path24"
       style="fill:none;stroke:#000000;stroke-miterlimit:10"
       inkscape:connector-curvature="0" />
    <path
       d="m 71,81 0,40"
       stroke-miterlimit="10"
       pointer-events="none"
       id="path26"
       style="fill:none;stroke:#999999;stroke-miterlimit:10;stroke-dasharray:3, 3"
       inkscape:connector-curvature="0" />
    <circle
       cx="71"
       cy="11"
       pointer-events="none"
       id="ellipse12"
       style="fill:none;stroke:#000000"
       r="10" />
    <circle
       cx="11"
       cy="71"
       pointer-events="none"
       id="ellipse16"
       style="fill:none;stroke:#000000"
       r="10" />
    <circle
       cx="71"
       cy="131"
       pointer-events="none"
       id="ellipse18"
       style="fill:none;stroke:#000000"
       r="10" />
    <circle
       cx="131"
       cy="71"
       pointer-events="none"
       id="ellipse22"
       style="fill:none;stroke:#000000"
       r="10" />
    <circle
       cx="71"
       cy="71"
       pointer-events="none"
       id="ellipse28"
       style="fill:none;stroke:#000000"
       r="10" />
  </g>
  <path
     style="font-style:normal;font-variant:normal;font-weight:normal;font-stretch:normal;letter-spacing:normal;word-spacing:normal;text-anchor:start;fill:#000000;fill-opacity:1;fill-rule:evenodd;stroke:#000000;stroke-width:0;stroke-linecap:butt;stroke-linejoin:miter;stroke-miterlimit:10.43299961;stroke-dasharray:none;stroke-dashoffset:0;stroke-opacity:1"
     inkscape:connector-curvature="0"
     id="path5613"
     d="m 10.978454,66.813347 0,-0.01205 0,-0.01446 0,-0.01205 0,-0.01205 0,-0.01205 0,-0.01205 0,-0.0096 0,-0.01205 0,-0.0096 0,-0.0096 -0.0024,-0.0096 0,-0.0096 0,-0.0096 0,-0.0072 0,-0.0096 -0.0024,-0.0072 -0.0024,-0.01687 0,-0.01446 -0.0048,-0.01205 -0.0024,-0.01205 -0.0048,-0.01205 -0.0048,-0.0096 -0.0048,-0.0096 -0.0048,-0.0072 -0.0072,-0.0072 -0.0072,-0.0072 -0.0096,-0.0072 -0.0096,-0.0048 -0.0096,-0.0048 -0.0072,-0.0024 -0.0048,-0.0024 -0.0072,0 -0.0048,-0.0024 -0.0072,-0.0024 -0.0072,0 -0.0072,-0.0024 -0.0072,0 -0.0096,-0.0024 -0.0072,0 -0.0096,0 -0.0072,-0.0024 -0.0096,0 -0.0096,0 -0.01205,0 -0.0096,0 -0.0096,0 -0.01205,-0.0024 -0.01205,0 -0.01205,0 -0.01205,0 -0.01205,0 c -0.7448029,0.768906 -1.8005419,0.768906 -2.1837899,0.768906 l 0,0.373606 c 0.241037,0 0.947273,0 1.5691469,-0.313347 l 0,6.221149 c 0,0.433866 -0.03374,0.576077 -1.1135879,0.576077 l -0.385658,0 0,0.373606 c 0.421813,-0.03857 1.4655009,-0.03857 1.9451629,-0.03857 0.482073,0 1.52335,0 1.945164,0.03857 l 0,-0.373606 -0.383248,0 c -1.079843,0 -1.118409,-0.13016 -1.118409,-0.576077 z" />
  <path
     style="font-style:normal;font-variant:normal;font-weight:normal;font-stretch:normal;letter-spacing:normal;word-spacing:normal;text-anchor:start;fill:#000000;fill-opacity:1;fill-rule:evenodd;stroke:#000000;stroke-width:0;stroke-linecap:butt;stroke-linejoin:miter;stroke-miterlimit:10.43299961;stroke-dasharray:none;stroke-dashoffset:0;stroke-opacity:1"
     inkscape:connector-curvature="0"
     d="m 69.030885,13.574428 1.272672,-1.236517 c 1.870442,-1.65592 2.593552,-2.304308 2.593552,-3.5046685 0,-1.371498 -1.079843,-2.333233 -2.545345,-2.333233 -1.359445,0 -2.248869,1.108768 -2.248869,2.176559 0,0.672491 0.602591,0.672491 0.636336,0.672491 0.207291,0 0.626695,-0.144621 0.626695,-0.636336 0,-0.313347 -0.214523,-0.626694 -0.636336,-0.626694 -0.094,0 -0.120519,0 -0.154264,0.01205 0.274782,-0.780958 0.92317,-1.224465 1.619765,-1.224465 1.091895,0 1.610123,0.976197 1.610123,1.959626 0,0.959324 -0.602591,1.9090075 -1.26062,2.6538105 l -2.304308,2.569448 c -0.137391,0.130159 -0.137391,0.154263 -0.137391,0.443506 l 4.456763,0 0.337451,-2.089785 -0.301296,0 c -0.06026,0.361555 -0.142211,0.889424 -0.262729,1.070202 -0.08677,0.094 -0.877373,0.094 -1.140103,0.094 z"
     id="path5843" />
  <path
     style="font-style:normal;font-variant:normal;font-weight:normal;font-stretch:normal;letter-spacing:normal;word-spacing:normal;text-anchor:start;fill:#000000;fill-opacity:1;fill-rule:evenodd;stroke:#000000;stroke-width:0;stroke-linecap:butt;stroke-linejoin:miter;stroke-miterlimit:10.43299961;stroke-dasharray:none;stroke-dashoffset:0;stroke-opacity:1"
     inkscape:connector-curvature="0"
     id="path6079"
     d="m 130.97141,70.15461 0.0887,-0.03034 0.0864,-0.03501 0.0863,-0.035 0.0817,-0.03967 0.0817,-0.04201 0.0794,-0.04434 0.077,-0.04668 0.0747,-0.05134 0.0723,-0.05134 0.0724,-0.05367 0.0677,-0.05601 0.0653,-0.05834 0.063,-0.06068 0.0607,-0.06301 0.0583,-0.06301 0.056,-0.06768 0.0513,-0.06768 0.049,-0.07001 0.0467,-0.07001 0.0443,-0.07468 0.042,-0.07468 0.0373,-0.07468 0.0327,-0.07701 0.0327,-0.07935 0.0257,-0.07935 0.0257,-0.07935 0.021,-0.08168 0.0163,-0.08401 0.014,-0.08401 0.009,-0.08401 0.005,-0.08401 0.002,-0.08635 c 0,-0.952158 -1.02451,-1.6056 -2.14003,-1.6056 -1.17386,0 -2.05601,0.700116 -2.05601,1.582263 0,0.385064 0.25438,0.606767 0.59277,0.606767 0.35939,0 0.59277,-0.256709 0.59277,-0.595099 0,-0.578762 -0.54843,-0.578762 -0.71879,-0.578762 0.35706,-0.569429 1.12719,-0.723454 1.54492,-0.723454 0.47375,0 1.11552,0.256709 1.11552,1.302216 0,0.142357 -0.0257,0.814469 -0.32672,1.327888 -0.34772,0.55776 -0.74446,0.590432 -1.0315,0.604434 -0.0957,0.01167 -0.3734,0.03267 -0.45741,0.03267 -0.091,0.01167 -0.17503,0.02334 -0.17503,0.140023 0,0.126021 0.084,0.126021 0.28238,0.126021 l 0.50875,0 c 0.95682,0 1.38623,0.791132 1.38623,1.934656 0,1.577595 -0.8028,1.915985 -1.31622,1.915985 -0.49942,0 -1.37223,-0.196033 -1.77596,-0.882147 0.40373,0.05601 0.76546,-0.2007 0.76546,-0.641773 0,-0.417736 -0.31272,-0.648775 -0.65344,-0.648775 -0.27538,0 -0.64878,0.161027 -0.64878,0.674446 0,1.057176 1.08052,1.822636 2.35006,1.822636 1.41657,0 2.47608,-1.057176 2.47608,-2.240372 0,-0.956826 -0.73512,-1.859977 -1.94166,-2.105017 z" />
  <path
     style="font-style:normal;font-variant:normal;font-weight:normal;font-stretch:normal;letter-spacing:normal;word-spacing:normal;text-anchor:start;fill:#000000;fill-opacity:1;fill-rule:evenodd;stroke:#000000;stroke-width:0;stroke-linecap:butt;stroke-linejoin:miter;stroke-miterlimit:10.43299961;stroke-dasharray:none;stroke-dashoffset:0;stroke-opacity:1"
     inkscape:connector-curvature="0"
     d="m 71.024161,132.55041 0,1.02697 c 0,0.42692 -0.02135,0.555 -0.896531,0.555 l -0.249036,0 0,0.36763 c 0.486214,-0.0379 1.100503,-0.0379 1.598576,-0.0379 0.495701,0 1.12185,0 1.60332,0.0379 l 0,-0.36763 -0.246664,0 c -0.875186,0 -0.898903,-0.12808 -0.898903,-0.555 l 0,-1.02697 1.183516,0 0,-0.36526 -1.183516,0 0,-5.37918 c 0,-0.23718 0,-0.30596 -0.18737,-0.30596 -0.109102,0 -0.142307,0 -0.237178,0.14468 l -3.628816,5.54046 0.33442,0 2.881707,-4.40676 0,4.40676 -2.881707,0 -0.33442,0 0,0.36526 z"
     id="path6321" />
  <path
     style="font-style:normal;font-variant:normal;font-weight:normal;font-stretch:normal;letter-spacing:normal;word-spacing:normal;text-anchor:start;fill:#000000;fill-opacity:1;fill-rule:evenodd;stroke:#000000;stroke-width:0;stroke-linecap:butt;stroke-linejoin:miter;stroke-miterlimit:10.43299961;stroke-dasharray:none;stroke-dashoffset:0;stroke-opacity:1"
     inkscape:connector-curvature="0"
     id="path6569"
     d="m 72.820888,71.909568 -0.0023,-0.130688 -0.007,-0.126021 -0.014,-0.126021 -0.01867,-0.123687 -0.02334,-0.123688 -0.03034,-0.119019 -0.03267,-0.116686 -0.03967,-0.116687 -0.04201,-0.112018 -0.04901,-0.109685 -0.05134,-0.107351 -0.05601,-0.102684 -0.06068,-0.10035 -0.06534,-0.09568 -0.06768,-0.09335 -0.07234,-0.08868 -0.07701,-0.08401 -0.07935,-0.08168 -0.08401,-0.07468 -0.08635,-0.07235 -0.08868,-0.06768 -0.09335,-0.06068 -0.09568,-0.05834 -0.09802,-0.05134 -0.10035,-0.04668 -0.102684,-0.03967 -0.107351,-0.03501 -0.107351,-0.03034 -0.112019,-0.021 -0.112019,-0.01634 -0.114352,-0.01167 -0.116686,-0.0023 c -0.55776,0 -1.05951,0.186698 -1.477246,0.590432 l 0,-2.26371 c 0.233372,0.06768 0.616103,0.149358 0.987164,0.149358 1.430572,0 2.242707,-1.057176 2.242707,-1.211202 0,-0.07001 -0.03267,-0.128354 -0.116686,-0.128354 -0.01167,0 -0.03267,0 -0.09101,0.03734 -0.233373,0.105018 -0.802801,0.336056 -1.582264,0.336056 -0.462077,0 -0.998832,-0.08168 -1.547257,-0.324387 -0.09101,-0.03267 -0.116686,-0.03267 -0.13769,-0.03267 -0.116686,0 -0.116686,0.09101 -0.116686,0.275379 l 0,3.442239 c 0,0.207701 0,0.303384 0.163361,0.303384 0.08168,0 0.102684,-0.03734 0.149358,-0.105017 0.128355,-0.186698 0.560093,-0.814469 1.500583,-0.814469 0.604434,0 0.896149,0.536756 0.987164,0.744457 0.189032,0.429405 0.212369,0.882147 0.212369,1.465577 0,0.406068 0,1.106184 -0.28238,1.593932 -0.27538,0.452742 -0.707118,0.753792 -1.24154,0.753792 -0.849475,0 -1.509918,-0.616103 -1.710618,-1.299883 0.03501,0.0093 0.07234,0.021 0.2007,0.021 0.38273,0 0.578763,-0.291716 0.578763,-0.569429 0,-0.280046 -0.196033,-0.569428 -0.578763,-0.569428 -0.165694,0 -0.574096,0.08168 -0.574096,0.618437 0,0.998832 0.802801,2.123686 2.109685,2.123686 1.344223,0 2.532088,-1.115519 2.532088,-2.590431 z" />
  <g
     id="g6606"
     transform="translate(23.365169,5.0505675)">
    <rect
       y="25.449442"
       x="-0.22121736"
       height="11.99999"
       width="34.712097"
       id="rect6244"
       style="fill:#ffffff;fill-opacity:1;stroke:none;stroke-width:1.24600005;stroke-miterlimit:4;stroke-dasharray:none;stroke-opacity:1" />
    <g
       transform="translate(-4.1515086,-5.555594)"
       id="g6565"
       style="fill:none">
      <path
         d="m 9.1856569,34.702652 -0.03016,0 -0.032315,0 -0.032315,0.0022 -0.030161,0 -0.030161,0.0022 -0.03016,0.0043 -0.01508,0.0022 -0.01508,0.0022 -0.012926,0.0043 -0.01508,0.0022 -0.01508,0.0043 -0.01508,0.0043 -0.01508,0.0043 -0.012926,0.0043 -0.01508,0.0065 -0.01508,0.0065 -0.012926,0.0065 -0.01508,0.0086 -0.01508,0.0086 -0.012926,0.0086 -0.01508,0.01077 -0.01508,0.0086 -0.012926,0.01293 -0.01508,0.01077 -0.012926,0.01293 -0.01508,0.01508 c -0.1723462,0.161575 -0.1917351,0.342539 -0.1917351,0.415786 0,0.260673 0.1917351,0.377007 0.3963963,0.377007 0.3102232,0 0.6032117,-0.258519 0.6032117,-0.685076 0,-0.525656 -0.5041126,-0.922052 -1.268899,-0.922052 -1.4477082,0 -2.8738731,1.533881 -2.8738731,3.046219 0,0.965139 0.6226007,1.813944 1.7363881,1.813944 1.5338813,0 2.4365446,-1.137485 2.4365446,-1.266745 0,-0.06247 -0.06463,-0.140031 -0.1271053,-0.140031 -0.053858,0 -0.075401,0.0237 -0.1421856,0.107716 -0.8488052,1.062084 -2.0164508,1.062084 -2.1435561,1.062084 -0.6764589,0 -0.9672931,-0.523502 -0.9672931,-1.1698 0,-0.437329 0.2132784,-1.482178 0.5795141,-2.145711 0.3339208,-0.611829 0.9220523,-1.072855 1.5123381,-1.072855 0.3662357,0 0.7734036,0.137877 0.9242065,0.426557 z"
         id="path4391"
         inkscape:connector-curvature="0"
         style="font-style:normal;font-variant:normal;font-weight:normal;font-stretch:normal;letter-spacing:normal;word-spacing:normal;text-anchor:start;fill:#000000;fill-opacity:1;fill-rule:evenodd;stroke:#000000;stroke-width:0;stroke-linecap:butt;stroke-linejoin:miter;stroke-miterlimit:10.43299961;stroke-dasharray:none;stroke-dashoffset:0;stroke-opacity:1" />
      <path
         d="m 12.830779,31.74476 0,-0.01293 0,-0.01508 0,-0.01293 0,-0.01293 -0.0022,-0.01077 0,-0.01293 0,-0.01077 0,-0.01077 -0.0022,-0.01077 -0.0022,-0.01077 -0.0022,-0.01077 -0.0022,-0.0086 -0.0022,-0.01077 -0.0022,-0.0086 -0.0043,-0.0086 -0.0043,-0.0065 -0.0043,-0.0086 -0.0043,-0.0065 -0.0065,-0.0065 -0.0043,-0.0065 -0.0086,-0.0065 -0.0065,-0.0043 -0.0086,-0.0043 -0.0043,-0.0022 -0.0043,-0.0022 -0.0043,-0.0022 -0.0065,-0.0022 -0.0043,-0.0022 -0.0065,-0.0022 -0.0043,0 -0.0065,-0.0022 -0.0065,-0.0022 -0.0065,0 -0.0065,-0.0022 -0.0065,0 -0.0065,0 -0.0065,-0.0022 -0.0086,0 -0.0065,0 -0.0086,0 -0.0086,0 c -0.05386,0 -0.07325,0 -0.196044,0.06032 -0.01508,0.0065 -0.114179,0.0517 -0.140031,0.0517 -0.01077,0 -0.0237,0 -0.05386,-0.01508 -0.310223,-0.09695 -0.622601,-0.09695 -0.782021,-0.09695 -0.217587,0 -0.676459,0 -1.049158,0.202507 -0.428711,0.23913 -0.489032,0.629063 -0.489032,0.803564 0,0.807873 0.990991,0.958676 1.514492,1.044849 0.458872,0.06678 1.006071,0.146494 1.006071,0.538582 0,0.510575 -0.743243,0.510575 -0.922052,0.510575 -0.713082,0 -0.97591,-0.323149 -1.115942,-0.730317 -0.04739,-0.124951 -0.05386,-0.142185 -0.243439,-0.142185 -0.2154324,0 -0.23913,0.0237 -0.23913,0.23913 l 0,0.73678 c 0,0.152957 0,0.239131 0.172346,0.239131 0.06678,0 0.08402,0 0.239131,-0.09694 0.04739,-0.01939 0.168037,-0.08833 0.211124,-0.118488 0.389933,0.215433 0.794947,0.215433 0.969447,0.215433 0.245593,0 1.53819,0 1.53819,-1.109479 0,-0.344693 -0.180963,-0.585977 -0.35331,-0.728163 -0.353309,-0.292989 -0.676459,-0.346847 -1.299059,-0.443792 -0.426557,-0.06678 -0.872503,-0.133568 -0.872503,-0.435174 0,-0.420094 0.75186,-0.420094 0.909126,-0.420094 0.848805,0 0.878966,0.346847 0.902664,0.525656 0.01293,0.150803 0.06032,0.163729 0.232667,0.163729 0.217587,0 0.23913,-0.01939 0.23913,-0.236976 z"
         id="path4393"
         inkscape:connector-curvature="0"
         style="font-style:normal;font-variant:normal;font-weight:normal;font-stretch:normal;letter-spacing:normal;word-spacing:normal;text-anchor:start;fill:#000000;fill-opacity:1;fill-rule:evenodd;stroke:#000000;stroke-width:0;stroke-linecap:butt;stroke-linejoin:miter;stroke-miterlimit:10.43299961;stroke-dasharray:none;stroke-dashoffset:0;stroke-opacity:1" />
      <path
         d="m 16.665483,34.248089 0,-0.03878 0,-0.04524 -0.0022,-0.0517 0,-0.05601 -0.0043,-0.06032 -0.0022,-0.06248 -0.0065,-0.06894 -0.0065,-0.07109 -0.01077,-0.07325 -0.01077,-0.0754 -0.01508,-0.0754 -0.01508,-0.07971 -0.02154,-0.07971 -0.0237,-0.07756 -0.02585,-0.07971 -0.03016,-0.07971 -0.03662,-0.07756 -0.03878,-0.0754 -0.04309,-0.07325 -0.04955,-0.07109 -0.05386,-0.06894 -0.05817,-0.06463 -0.03232,-0.03016 -0.03232,-0.03016 -0.03662,-0.02801 -0.03447,-0.02801 -0.03878,-0.02585 -0.03878,-0.02585 -0.04093,-0.0237 -0.04309,-0.02154 -0.04309,-0.02154 -0.04739,-0.01939 -0.0474,-0.01723 -0.04955,-0.01723 -0.04955,-0.01508 -0.05386,-0.01077 -0.05386,-0.01293 -0.05817,-0.0086 -0.05817,-0.0065 -0.06032,-0.0065 -0.06247,-0.0022 -0.06463,-0.0022 0,0.178809 c 0.396396,0 0.682922,0.202507 0.786329,0.579515 0.07756,0.273599 0.07756,0.719545 0.07756,1.036231 0,0.364082 0,0.799256 -0.07971,1.122405 -0.142186,0.521347 -0.568743,0.598903 -0.784175,0.598903 l 0,0 c -0.198198,0 -0.650607,-0.06894 -0.784176,-0.609675 -0.0754,-0.28868 -0.08186,-0.674304 -0.08186,-1.111633 0,-0.396396 0,-0.76694 0.08833,-1.072855 0.133569,-0.450254 0.549354,-0.542891 0.777713,-0.542891 l 0,-0.178809 c -1.400313,0 -1.400313,1.471406 -1.400313,1.859185 0,0.389933 0,1.835487 1.400313,1.835487 1.400313,0 1.400313,-1.445554 1.400313,-1.835487 z"
         id="path4395"
         inkscape:connector-curvature="0"
         style="font-style:normal;font-variant:normal;font-weight:normal;font-stretch:normal;letter-spacing:normal;word-spacing:normal;text-anchor:start;fill:#000000;fill-opacity:1;fill-rule:evenodd;stroke:#000000;stroke-width:0;stroke-linecap:butt;stroke-linejoin:miter;stroke-miterlimit:10.43299961;stroke-dasharray:none;stroke-dashoffset:0;stroke-opacity:1" />
      <path
         d="m 11.271046,39.735162 0.02154,0 0.0237,0 0.0237,0 0.02801,0 0.02801,0 0.03016,-0.0022 0.03232,0 0.03232,-0.0022 0.03447,-0.0022 0.03662,-0.0022 0.03878,-0.0022 0.03878,-0.0022 0.03878,-0.0022 0.04093,-0.0022 0.08187,-0.0086 0.08617,-0.0086 0.08617,-0.01077 0.08833,-0.01293 0.08617,-0.01508 0.08833,-0.01723 0.04093,-0.0086 0.04309,-0.01077 0.04093,-0.01077 0.04093,-0.01293 0.03878,-0.01077 0.03878,-0.01293 c 0.555817,-0.196044 0.661379,-0.555817 0.661379,-0.782021 0,-0.413631 -0.415786,-0.659224 -0.932824,-0.659224 l 0,0.208969 c 0.329612,0 0.609674,0.165884 0.609674,0.450255 0,0.728163 -1.271053,0.728163 -1.594202,0.728163 l -0.366236,0 c 0.305915,-1.087936 1.141794,-1.178418 1.350764,-1.178418 l 0,-0.208969 c -0.898355,0 -2.117704,0.689384 -2.117704,1.973364 0,0.756169 0.473952,1.40893 1.352917,1.40893 1.268899,0 1.86134,-0.738934 1.86134,-0.846651 0,-0.04524 -0.06678,-0.129259 -0.127106,-0.129259 -0.04524,0 -0.06032,0.01723 -0.122797,0.07755 -0.583822,0.69154 -1.462788,0.69154 -1.598511,0.69154 -0.450254,0 -0.749706,-0.301606 -0.749706,-0.909127 0,-0.105562 0,-0.256365 0.09048,-0.667841 z"
         id="path4397"
         inkscape:connector-curvature="0"
         style="font-style:normal;font-variant:normal;font-weight:normal;font-stretch:normal;letter-spacing:normal;word-spacing:normal;text-anchor:start;fill:#000000;fill-opacity:1;fill-rule:evenodd;stroke:#000000;stroke-width:0;stroke-linecap:butt;stroke-linejoin:miter;stroke-miterlimit:10.43299961;stroke-dasharray:none;stroke-dashoffset:0;stroke-opacity:1" />
      <path
         d="m 15.784363,39.091018 0,-0.0065 0,-0.0065 0,-0.0086 0,-0.0065 0,-0.0065 0,-0.0065 0,-0.0065 0,-0.0043 0,-0.0065 -0.0022,-0.0065 0,-0.0043 0,-0.0043 0,-0.0065 -0.0022,-0.0043 0,-0.0043 0,-0.0043 -0.0022,-0.0043 0,-0.0043 -0.0022,-0.0065 -0.0022,-0.0065 -0.0043,-0.0065 -0.0022,-0.0065 -0.0043,-0.0043 -0.0043,-0.0043 -0.0043,-0.0043 -0.0043,-0.0043 -0.0065,-0.0022 -0.0065,-0.0043 -0.0065,-0.0022 -0.0086,-0.0022 -0.0086,0 -0.0086,-0.0022 -0.0043,0 -0.0043,0 -0.0065,-0.0022 -0.0043,0 -0.0065,0 -0.0043,0 -0.0065,0 -0.0065,0 -0.0065,0 -0.0065,0 -0.0065,-0.0022 -0.0065,0 -0.0065,0 -0.0086,0 -0.0065,0 -0.0086,0 -0.0065,0 -0.0086,0 c -0.381316,0.344693 -0.97591,0.344693 -1.083627,0.344693 l -0.09264,0 0,0.234821 0.09264,0 c 0.122797,0 0.469644,-0.01293 0.784176,-0.148648 l 0,2.684292 c 0,0.163729 0,0.22405 -0.568743,0.22405 l -0.269291,0 0,0.236976 c 0.295143,-0.02154 0.773404,-0.02154 1.083627,-0.02154 0.312378,0 0.790638,0 1.083627,0.02154 l 0,-0.236976 -0.267137,0 c -0.568742,0 -0.568742,-0.06032 -0.568742,-0.22405 z"
         id="path4399"
         inkscape:connector-curvature="0"
         style="font-style:normal;font-variant:normal;font-weight:normal;font-stretch:normal;letter-spacing:normal;word-spacing:normal;text-anchor:start;fill:#000000;fill-opacity:1;fill-rule:evenodd;stroke:#000000;stroke-width:0;stroke-linecap:butt;stroke-linejoin:miter;stroke-miterlimit:10.43299961;stroke-dasharray:none;stroke-dashoffset:0;stroke-opacity:1" />
      <path
         d="m 28.751261,35.271395 0.03016,0 0.03232,0 0.03016,0 0.01724,-0.0022 0.01508,0 0.01508,-0.0022 0.01508,-0.0022 0.01508,-0.0022 0.01508,-0.0022 0.01508,-0.0022 0.01508,-0.0043 0.01293,-0.0043 0.01293,-0.0043 0.01293,-0.0043 0.01293,-0.0065 0.01293,-0.0065 0.01077,-0.0086 0.01077,-0.0065 0.01077,-0.01077 0.0086,-0.0086 0.0086,-0.01077 0.0043,-0.0065 0.0043,-0.0065 0.0022,-0.0043 0.0043,-0.0065 0.0022,-0.0065 0.0043,-0.0086 0.0022,-0.0065 0.0022,-0.0086 0.0022,-0.0065 0.0022,-0.0086 0.0022,-0.0086 0,-0.0086 0.0022,-0.0086 0,-0.0086 0,-0.0086 0,-0.01077 c 0,-0.215433 -0.204661,-0.215433 -0.353309,-0.215433 l -6.428514,0 c -0.152957,0 -0.35331,0 -0.35331,0.215433 0,0.211124 0.200353,0.211124 0.361927,0.211124 z"
         id="path4401"
         inkscape:connector-curvature="0"
         style="font-style:normal;font-variant:normal;font-weight:normal;font-stretch:normal;letter-spacing:normal;word-spacing:normal;text-anchor:start;fill:#000000;fill-opacity:1;fill-rule:evenodd;stroke:#000000;stroke-width:0;stroke-linecap:butt;stroke-linejoin:miter;stroke-miterlimit:10.43299961;stroke-dasharray:none;stroke-dashoffset:0;stroke-opacity:1" />
      <path
         d="m 28.762033,37.356784 0.01508,0 0.01293,0 0.03016,-0.0022 0.03016,0 0.01508,0 0.01508,-0.0022 0.01508,-0.0022 0.01508,0 0.01293,-0.0022 0.01508,-0.0043 0.01508,-0.0022 0.01293,-0.0043 0.01508,-0.0043 0.01293,-0.0043 0.01293,-0.0043 0.01293,-0.0065 0.01077,-0.0065 0.01077,-0.0086 0.01077,-0.0086 0.01077,-0.0086 0.0086,-0.01077 0.0043,-0.0043 0.0043,-0.0065 0.0043,-0.0043 0.0043,-0.0065 0.0022,-0.0065 0.0043,-0.0065 0.0022,-0.0065 0.0043,-0.0065 0.0022,-0.0086 0.0022,-0.0065 0.0022,-0.0086 0.0022,-0.0086 0.0022,-0.0086 0,-0.0086 0.0022,-0.0086 0,-0.0086 0,-0.01077 0,-0.0086 c 0,-0.215433 -0.204661,-0.215433 -0.364081,-0.215433 l -6.409125,0 c -0.161574,0 -0.361927,0 -0.361927,0.215433 0,0.215433 0.200353,0.215433 0.35331,0.215433 z"
         id="path4403"
         inkscape:connector-curvature="0"
         style="font-style:normal;font-variant:normal;font-weight:normal;font-stretch:normal;letter-spacing:normal;word-spacing:normal;text-anchor:start;fill:#000000;fill-opacity:1;fill-rule:evenodd;stroke:#000000;stroke-width:0;stroke-linecap:butt;stroke-linejoin:miter;stroke-miterlimit:10.43299961;stroke-dasharray:none;stroke-dashoffset:0;stroke-opacity:1" />
      <path
         d="m 35.85408,31.912798 0,-0.01077 0,-0.01293 0,-0.01077 0,-0.01077 0,-0.01077 0,-0.01077 0,-0.0086 0,-0.01077 0,-0.0086 -0.0022,-0.0086 0,-0.0086 0,-0.0086 0,-0.0086 0,-0.0065 -0.0022,-0.0086 0,-0.0065 -0.0022,-0.01508 -0.0022,-0.01293 -0.0022,-0.01077 -0.0022,-0.01077 -0.0043,-0.01077 -0.0043,-0.0086 -0.0043,-0.0086 -0.0043,-0.0065 -0.0065,-0.0065 -0.0065,-0.0065 -0.0086,-0.0065 -0.0086,-0.0043 -0.0086,-0.0043 -0.0065,-0.0022 -0.0043,-0.0022 -0.0065,0 -0.0043,-0.0022 -0.0065,-0.0022 -0.0065,0 -0.0065,-0.0022 -0.0086,0 -0.0065,-0.0022 -0.0065,0 -0.0086,0 -0.0086,-0.0022 -0.0086,0 -0.0086,0 -0.0086,0 -0.0086,0 -0.0086,0 -0.01077,-0.0022 -0.01077,0 -0.01077,0 -0.01077,0 -0.01077,0 c -0.667841,0.687231 -1.609283,0.687231 -1.951821,0.687231 l 0,0.333921 c 0.215433,0 0.846651,0 1.402468,-0.280063 l 0,5.56032 c 0,0.387779 -0.03016,0.514884 -0.9953,0.514884 l -0.344692,0 0,0.333921 c 0.377007,-0.03447 1.309831,-0.03447 1.738542,-0.03447 0.430866,0 1.361535,0 1.738543,0.03447 l 0,-0.333921 -0.342538,0 c -0.965139,0 -0.999608,-0.116334 -0.999608,-0.514884 z"
         id="path4405"
         inkscape:connector-curvature="0"
         style="font-style:normal;font-variant:normal;font-weight:normal;font-stretch:normal;letter-spacing:normal;word-spacing:normal;text-anchor:start;fill:#000000;fill-opacity:1;fill-rule:evenodd;stroke:#000000;stroke-width:0;stroke-linecap:butt;stroke-linejoin:miter;stroke-miterlimit:10.43299961;stroke-dasharray:none;stroke-dashoffset:0;stroke-opacity:1" />
    </g>
  </g>
  <g
     id="g6659"
     transform="translate(-1.6607094,13.778522)">
    <rect
       y="28.721483"
       x="54.986294"
       height="12"
       width="34.348831"
       id="rect6250"
       style="fill:#ffffff;fill-opacity:1;stroke:none;stroke-width:1.24600005;stroke-miterlimit:4;stroke-dasharray:none;stroke-opacity:1" />
    <g
       transform="matrix(0.91666529,0,0,0.91666529,4.2432177,2.8935129)"
       id="g6618"
       style="fill:none">
      <path
         d="m 61.029297,32.172584 -0.03256,0 -0.03488,0 -0.03488,0.0023 -0.03256,0 -0.03256,0.0023 -0.03256,0.0047 -0.01628,0.0023 -0.01628,0.0023 -0.01395,0.0047 -0.01628,0.0023 -0.01628,0.0047 -0.01628,0.0047 -0.01628,0.0047 -0.01395,0.0047 -0.01628,0.007 -0.01628,0.007 -0.01395,0.007 -0.01628,0.0093 -0.01628,0.0093 -0.01395,0.0093 -0.01628,0.01163 -0.01628,0.0093 -0.01395,0.01395 -0.01628,0.01163 -0.01395,0.01395 -0.01628,0.01628 c -0.186046,0.174418 -0.206976,0.369767 -0.206976,0.448837 0,0.281395 0.206976,0.406977 0.427907,0.406977 0.334883,0 0.651162,-0.27907 0.651162,-0.739535 0,-0.567442 -0.544186,-0.995349 -1.369767,-0.995349 -1.56279,0 -3.102325,1.655814 -3.102325,3.288372 0,1.04186 0.672093,1.958139 1.874418,1.958139 1.655814,0 2.630232,-1.227907 2.630232,-1.367442 0,-0.06744 -0.06977,-0.151163 -0.137209,-0.151163 -0.05814,0 -0.0814,0.02558 -0.153488,0.11628 -0.916279,1.146511 -2.176744,1.146511 -2.313953,1.146511 -0.730233,0 -1.044186,-0.565116 -1.044186,-1.262791 0,-0.472092 0.230233,-1.599999 0.625581,-2.316278 0.360465,-0.660465 0.995349,-1.158139 1.632558,-1.158139 0.395349,0 0.834884,0.148837 0.997674,0.460465 z"
         id="path4956"
         inkscape:connector-curvature="0"
         style="font-style:normal;font-variant:normal;font-weight:normal;font-stretch:normal;letter-spacing:normal;word-spacing:normal;text-anchor:start;fill:#000000;fill-opacity:1;fill-rule:evenodd;stroke:#000000;stroke-width:0;stroke-linecap:butt;stroke-linejoin:miter;stroke-miterlimit:10.43299961;stroke-dasharray:none;stroke-dashoffset:0;stroke-opacity:1" />
      <path
         d="m 64.96418,28.979561 0,-0.01395 0,-0.01628 0,-0.01395 0,-0.01395 -0.0023,-0.01163 0,-0.01395 0,-0.01163 0,-0.01163 -0.0023,-0.01163 -0.0023,-0.01163 -0.0023,-0.01163 -0.0023,-0.0093 -0.0023,-0.01163 -0.0023,-0.0093 -0.0047,-0.0093 -0.0047,-0.007 -0.0047,-0.0093 -0.0047,-0.007 -0.007,-0.007 -0.0047,-0.007 -0.0093,-0.007 -0.007,-0.0047 -0.0093,-0.0047 -0.0047,-0.0023 -0.0047,-0.0023 -0.0047,-0.0023 -0.007,-0.0023 -0.0047,-0.0023 -0.007,-0.0023 -0.0047,0 -0.007,-0.0023 -0.007,-0.0023 -0.007,0 -0.007,-0.0023 -0.007,0 -0.007,0 -0.007,-0.0023 -0.0093,0 -0.007,0 -0.0093,0 -0.0093,0 c -0.05814,0 -0.07907,0 -0.211628,0.06512 -0.01628,0.007 -0.123256,0.05581 -0.151163,0.05581 -0.01163,0 -0.02558,0 -0.05814,-0.01628 -0.334884,-0.104651 -0.672093,-0.104651 -0.844186,-0.104651 -0.234884,0 -0.730232,0 -1.132558,0.218604 -0.462791,0.25814 -0.527907,0.67907 -0.527907,0.867442 0,0.872093 1.069767,1.034883 1.634884,1.127907 0.495348,0.07209 1.086046,0.158139 1.086046,0.581395 0,0.551162 -0.802326,0.551162 -0.995349,0.551162 -0.769767,0 -1.053488,-0.348837 -1.204651,-0.788371 -0.05116,-0.134884 -0.05814,-0.153489 -0.26279,-0.153489 -0.232558,0 -0.25814,0.02558 -0.25814,0.25814 l 0,0.795348 c 0,0.165117 0,0.25814 0.186047,0.25814 0.07209,0 0.0907,0 0.258139,-0.104651 0.05116,-0.02093 0.181395,-0.09535 0.227907,-0.127907 0.42093,0.232558 0.858139,0.232558 1.046511,0.232558 0.265117,0 1.660465,0 1.660465,-1.197674 0,-0.372093 -0.195349,-0.632558 -0.381395,-0.786047 -0.381395,-0.316279 -0.730232,-0.374418 -1.402325,-0.479069 -0.460465,-0.07209 -0.941861,-0.144186 -0.941861,-0.469768 0,-0.453488 0.811628,-0.453488 0.981396,-0.453488 0.916278,0 0.948837,0.374419 0.974418,0.567442 0.01395,0.16279 0.06512,0.176744 0.251163,0.176744 0.234883,0 0.258139,-0.02093 0.258139,-0.255814 z"
         id="path4958"
         inkscape:connector-curvature="0"
         style="font-style:normal;font-variant:normal;font-weight:normal;font-stretch:normal;letter-spacing:normal;word-spacing:normal;text-anchor:start;fill:#000000;fill-opacity:1;fill-rule:evenodd;stroke:#000000;stroke-width:0;stroke-linecap:butt;stroke-linejoin:miter;stroke-miterlimit:10.43299961;stroke-dasharray:none;stroke-dashoffset:0;stroke-opacity:1" />
      <path
         d="m 69.103714,31.681886 0,-0.04186 0,-0.04884 -0.0023,-0.05581 0,-0.06047 -0.0047,-0.06512 -0.0023,-0.06744 -0.007,-0.07442 -0.007,-0.07674 -0.01163,-0.07907 -0.01163,-0.0814 -0.01628,-0.08139 -0.01628,-0.08605 -0.02325,-0.08605 -0.02558,-0.08372 -0.02791,-0.08605 -0.03256,-0.08605 -0.03954,-0.08372 -0.04186,-0.0814 -0.04651,-0.07907 -0.05349,-0.07674 -0.05814,-0.07442 -0.06279,-0.06977 -0.03488,-0.03256 -0.03488,-0.03256 -0.03954,-0.03023 -0.03721,-0.03023 -0.04186,-0.02791 -0.04186,-0.02791 -0.04419,-0.02558 -0.04651,-0.02326 -0.04651,-0.02325 -0.05116,-0.02093 -0.05116,-0.0186 -0.05349,-0.01861 -0.05349,-0.01628 -0.05814,-0.01163 -0.05814,-0.01395 -0.06279,-0.0093 -0.06279,-0.007 -0.06512,-0.007 -0.06744,-0.0023 -0.06977,-0.0023 0,0.193023 c 0.427906,0 0.737209,0.218605 0.848837,0.625581 0.08372,0.295349 0.08372,0.776744 0.08372,1.118605 0,0.393023 0,0.86279 -0.08605,1.211627 -0.153488,0.562791 -0.613953,0.646512 -0.846511,0.646512 l 0,0 c -0.213954,0 -0.702326,-0.07442 -0.846512,-0.65814 -0.0814,-0.311627 -0.08837,-0.727906 -0.08837,-1.199999 0,-0.427907 0,-0.827907 0.09535,-1.15814 0.144186,-0.486046 0.593023,-0.586046 0.839535,-0.586046 l 0,-0.193023 c -1.511628,0 -1.511628,1.588371 -1.511628,2.006976 0,0.42093 0,1.981395 1.511628,1.981395 1.511627,0 1.511627,-1.560465 1.511627,-1.981395 z"
         id="path4960"
         inkscape:connector-curvature="0"
         style="font-style:normal;font-variant:normal;font-weight:normal;font-stretch:normal;letter-spacing:normal;word-spacing:normal;text-anchor:start;fill:#000000;fill-opacity:1;fill-rule:evenodd;stroke:#000000;stroke-width:0;stroke-linecap:butt;stroke-linejoin:miter;stroke-miterlimit:10.43299961;stroke-dasharray:none;stroke-dashoffset:0;stroke-opacity:1" />
      <path
         d="m 63.28046,37.605141 0.02325,0 0.02558,0 0.02558,0 0.03023,0 0.03023,0 0.03256,-0.0023 0.03488,0 0.03488,-0.0023 0.03721,-0.0023 0.03954,-0.0023 0.04186,-0.0023 0.04186,-0.0023 0.04186,-0.0023 0.04419,-0.0023 0.08837,-0.0093 0.09302,-0.0093 0.09302,-0.01163 0.09535,-0.01395 0.09302,-0.01628 0.09535,-0.01861 0.04419,-0.0093 0.04651,-0.01163 0.04419,-0.01163 0.04419,-0.01395 0.04186,-0.01163 0.04186,-0.01395 c 0.6,-0.211628 0.713954,-0.6 0.713954,-0.844186 0,-0.446511 -0.448837,-0.711627 -1.006977,-0.711627 l 0,0.225581 c 0.355814,0 0.65814,0.17907 0.65814,0.486046 0,0.786047 -1.372093,0.786047 -1.72093,0.786047 l -0.395349,0 c 0.330233,-1.174419 1.232558,-1.272093 1.458139,-1.272093 l 0,-0.225581 c -0.969767,0 -2.286046,0.744185 -2.286046,2.130232 0,0.816279 0.511628,1.52093 1.460465,1.52093 1.369767,0 2.009302,-0.797675 2.009302,-0.913954 0,-0.04884 -0.07209,-0.139535 -0.137209,-0.139535 -0.04884,0 -0.06512,0.01861 -0.132558,0.08372 -0.630233,0.746512 -1.57907,0.746512 -1.725581,0.746512 -0.486047,0 -0.809303,-0.325582 -0.809303,-0.981395 0,-0.113954 0,-0.276744 0.09768,-0.72093 z"
         id="path4962"
         inkscape:connector-curvature="0"
         style="font-style:normal;font-variant:normal;font-weight:normal;font-stretch:normal;letter-spacing:normal;word-spacing:normal;text-anchor:start;fill:#000000;fill-opacity:1;fill-rule:evenodd;stroke:#000000;stroke-width:0;stroke-linecap:butt;stroke-linejoin:miter;stroke-miterlimit:10.43299961;stroke-dasharray:none;stroke-dashoffset:0;stroke-opacity:1" />
      <path
         d="m 67.757203,38.677233 0.04884,0 0.04884,0.0023 0.04651,0.007 0.04651,0.0047 0.04651,0.0093 0.04186,0.01163 0.04419,0.01163 0.03953,0.01395 0.04186,0.01628 0.03721,0.01628 0.03721,0.02093 0.03721,0.02093 0.03256,0.02326 0.03256,0.02326 0.03256,0.02791 0.03023,0.02791 0.02791,0.03023 0.02558,0.03023 0.02558,0.03256 0.02326,0.03488 0.02093,0.03721 0.02093,0.03721 0.0186,0.03954 0.01628,0.04186 0.01395,0.04186 0.01395,0.04419 0.0093,0.04651 0.0093,0.04651 0.007,0.04884 0.0047,0.05116 0.0047,0.05116 0,0.05349 c 0,0.593023 -0.36279,0.904651 -0.879069,0.904651 -0.06512,0 -0.755814,0 -1.048837,-0.302325 0.239534,-0.03488 0.306976,-0.213954 0.306976,-0.351163 0,-0.213953 -0.16279,-0.355814 -0.355814,-0.355814 -0.183721,0 -0.355814,0.123256 -0.355814,0.365116 0,0.604651 0.683721,0.87907 1.467442,0.87907 0.953488,0 1.544186,-0.572093 1.544186,-1.132558 0,-0.476744 -0.423256,-0.883721 -1.086047,-1.032558 0.697675,-0.225581 0.883721,-0.667442 0.883721,-0.990697 0,-0.476744 -0.593023,-0.830233 -1.323255,-0.830233 -0.711628,0 -1.286047,0.302326 -1.286047,0.825582 0,0.272093 0.220931,0.34186 0.330233,0.34186 0.167442,0 0.330232,-0.123256 0.330232,-0.330233 0,-0.134883 -0.06744,-0.297674 -0.274418,-0.330232 0.246511,-0.265116 0.76279,-0.283721 0.881395,-0.283721 0.425581,0 0.727907,0.213954 0.727907,0.606977 0,0.337209 -0.22093,0.865116 -0.827907,0.897674 -0.165116,0.007 -0.186046,0.0093 -0.339535,0.01628 -0.06047,0.0093 -0.125581,0.01163 -0.125581,0.1 0,0.09767 0.05814,0.09767 0.162791,0.09767 z"
         id="path4964"
         inkscape:connector-curvature="0"
         style="font-style:normal;font-variant:normal;font-weight:normal;font-stretch:normal;letter-spacing:normal;word-spacing:normal;text-anchor:start;fill:#000000;fill-opacity:1;fill-rule:evenodd;stroke:#000000;stroke-width:0;stroke-linecap:butt;stroke-linejoin:miter;stroke-miterlimit:10.43299961;stroke-dasharray:none;stroke-dashoffset:0;stroke-opacity:1" />
      <path
         d="m 82.150223,32.786537 0.03256,0 0.03488,0 0.03256,0 0.0186,-0.0023 0.01628,0 0.01628,-0.0023 0.01628,-0.0023 0.01628,-0.0023 0.01628,-0.0023 0.01628,-0.0023 0.01628,-0.0047 0.01395,-0.0047 0.01395,-0.0047 0.01395,-0.0047 0.01395,-0.007 0.01395,-0.007 0.01163,-0.0093 0.01163,-0.007 0.01163,-0.01163 0.0093,-0.0093 0.0093,-0.01163 0.0047,-0.007 0.0047,-0.007 0.0023,-0.0047 0.0047,-0.007 0.0023,-0.007 0.0047,-0.0093 0.0023,-0.007 0.0023,-0.0093 0.0023,-0.007 0.0023,-0.0093 0.0023,-0.0093 0,-0.0093 0.0023,-0.0093 0,-0.0093 0,-0.0093 0,-0.01163 c 0,-0.232558 -0.22093,-0.232558 -0.381395,-0.232558 l -6.939533,0 c -0.165117,0 -0.381396,0 -0.381396,0.232558 0,0.227907 0.216279,0.227907 0.390698,0.227907 z"
         id="path4966"
         inkscape:connector-curvature="0"
         style="font-style:normal;font-variant:normal;font-weight:normal;font-stretch:normal;letter-spacing:normal;word-spacing:normal;text-anchor:start;fill:#000000;fill-opacity:1;fill-rule:evenodd;stroke:#000000;stroke-width:0;stroke-linecap:butt;stroke-linejoin:miter;stroke-miterlimit:10.43299961;stroke-dasharray:none;stroke-dashoffset:0;stroke-opacity:1" />
      <path
         d="m 82.161851,35.037699 0.01628,0 0.01395,0 0.03256,-0.0023 0.03256,0 0.01628,0 0.01628,-0.0023 0.01628,-0.0023 0.01628,0 0.01395,-0.0023 0.01628,-0.0047 0.01628,-0.0023 0.01395,-0.0047 0.01628,-0.0047 0.01395,-0.0047 0.01395,-0.0047 0.01395,-0.007 0.01163,-0.007 0.01163,-0.0093 0.01163,-0.0093 0.01163,-0.0093 0.0093,-0.01163 0.0047,-0.0047 0.0047,-0.007 0.0047,-0.0047 0.0047,-0.007 0.0023,-0.007 0.0047,-0.007 0.0023,-0.007 0.0047,-0.007 0.0023,-0.0093 0.0023,-0.007 0.0023,-0.0093 0.0023,-0.0093 0.0023,-0.0093 0,-0.0093 0.0023,-0.0093 0,-0.0093 0,-0.01163 0,-0.0093 c 0,-0.232558 -0.22093,-0.232558 -0.393023,-0.232558 l -6.918603,0 c -0.174419,0 -0.390698,0 -0.390698,0.232558 0,0.232558 0.216279,0.232558 0.381396,0.232558 z"
         id="path4968"
         inkscape:connector-curvature="0"
         style="font-style:normal;font-variant:normal;font-weight:normal;font-stretch:normal;letter-spacing:normal;word-spacing:normal;text-anchor:start;fill:#000000;fill-opacity:1;fill-rule:evenodd;stroke:#000000;stroke-width:0;stroke-linecap:butt;stroke-linejoin:miter;stroke-miterlimit:10.43299961;stroke-dasharray:none;stroke-dashoffset:0;stroke-opacity:1" />
      <path
         d="m 89.817663,29.160956 0,-0.01163 0,-0.01395 0,-0.01163 0,-0.01163 0,-0.01163 0,-0.01163 0,-0.0093 0,-0.01163 0,-0.0093 -0.0023,-0.0093 0,-0.0093 0,-0.0093 0,-0.0093 0,-0.007 -0.0023,-0.0093 0,-0.007 -0.0023,-0.01628 -0.0023,-0.01395 -0.0023,-0.01163 -0.0023,-0.01163 -0.0047,-0.01163 -0.0047,-0.0093 -0.0047,-0.0093 -0.0047,-0.007 -0.007,-0.007 -0.007,-0.007 -0.0093,-0.007 -0.0093,-0.0047 -0.0093,-0.0047 -0.007,-0.0023 -0.0047,-0.0023 -0.007,0 -0.0047,-0.0023 -0.007,-0.0023 -0.007,0 -0.007,-0.0023 -0.0093,0 -0.007,-0.0023 -0.007,0 -0.0093,0 -0.0093,-0.0023 -0.0093,0 -0.0093,0 -0.0093,0 -0.0093,0 -0.0093,0 -0.01163,-0.0023 -0.01163,0 -0.01163,0 -0.01163,0 -0.01163,0 c -0.72093,0.74186 -1.737209,0.74186 -2.106976,0.74186 l 0,0.360465 c 0.232558,0 0.913953,0 1.513953,-0.302325 l 0,6.002324 c 0,0.418605 -0.03256,0.555814 -1.074418,0.555814 l -0.372093,0 0,0.360465 c 0.406976,-0.03721 1.413953,-0.03721 1.876743,-0.03721 0.465117,0 1.469767,0 1.876744,0.03721 l 0,-0.360465 -0.369767,0 c -1.04186,0 -1.07907,-0.125582 -1.07907,-0.555814 z"
         id="path4970"
         inkscape:connector-curvature="0"
         style="font-style:normal;font-variant:normal;font-weight:normal;font-stretch:normal;letter-spacing:normal;word-spacing:normal;text-anchor:start;fill:#000000;fill-opacity:1;fill-rule:evenodd;stroke:#000000;stroke-width:0;stroke-linecap:butt;stroke-linejoin:miter;stroke-miterlimit:10.43299961;stroke-dasharray:none;stroke-dashoffset:0;stroke-opacity:1" />
    </g>
  </g>
  <g
     id="g6712"
     transform="translate(-9.3646032,7.6155345)">
    <rect
       y="22.88447"
       x="92.65519"
       height="12"
       width="34.348827"
       id="rect6254"
       style="fill:#ffffff;fill-opacity:1;stroke:none;stroke-width:1.24600005;stroke-miterlimit:4;stroke-dasharray:none;stroke-opacity:1" />
    <g
       id="g6671"
       style="fill:none"
       transform="matrix(0.91665376,0,0,0.91665376,8.6955546,1.9490855)">
      <path
         d="m 97.265252,26.835504 -0.03256,0 -0.03488,0 -0.03488,0.0023 -0.03256,0 -0.03256,0.0023 -0.03256,0.0047 -0.01628,0.0023 -0.01628,0.0023 -0.01395,0.0047 -0.01628,0.0023 -0.01628,0.0047 -0.01628,0.0047 -0.01628,0.0047 -0.01395,0.0047 -0.01628,0.007 -0.01628,0.007 -0.01395,0.007 -0.01628,0.0093 -0.01628,0.0093 -0.01395,0.0093 -0.01628,0.01163 -0.01628,0.0093 -0.01395,0.01395 -0.01628,0.01163 -0.01395,0.01395 -0.01628,0.01628 c -0.186046,0.174418 -0.206976,0.369767 -0.206976,0.448837 0,0.281395 0.206976,0.406977 0.427907,0.406977 0.334883,0 0.651162,-0.27907 0.651162,-0.739535 0,-0.567442 -0.544186,-0.995349 -1.369767,-0.995349 -1.56279,0 -3.102325,1.655814 -3.102325,3.288372 0,1.04186 0.672093,1.958139 1.874418,1.958139 1.655814,0 2.630232,-1.227907 2.630232,-1.367442 0,-0.06744 -0.06977,-0.151163 -0.137209,-0.151163 -0.05814,0 -0.0814,0.02558 -0.153488,0.11628 -0.916279,1.146511 -2.176744,1.146511 -2.313953,1.146511 -0.730233,0 -1.044186,-0.565116 -1.044186,-1.262791 0,-0.472092 0.230233,-1.599999 0.625581,-2.316278 0.360465,-0.660465 0.995349,-1.158139 1.632558,-1.158139 0.395349,0 0.834884,0.148837 0.997674,0.460465 z"
         id="path5600"
         inkscape:connector-curvature="0"
         style="font-style:normal;font-variant:normal;font-weight:normal;font-stretch:normal;letter-spacing:normal;word-spacing:normal;text-anchor:start;fill:#000000;fill-opacity:1;fill-rule:evenodd;stroke:#000000;stroke-width:0;stroke-linecap:butt;stroke-linejoin:miter;stroke-miterlimit:10.43299961;stroke-dasharray:none;stroke-dashoffset:0;stroke-opacity:1" />
      <path
         d="m 101.20014,23.642481 0,-0.01395 0,-0.01628 0,-0.01395 0,-0.01395 -0.002,-0.01163 0,-0.01395 0,-0.01163 0,-0.01163 -0.002,-0.01163 -0.002,-0.01163 -0.002,-0.01163 -0.002,-0.0093 -0.002,-0.01163 -0.002,-0.0093 -0.005,-0.0093 -0.005,-0.007 -0.005,-0.0093 -0.005,-0.007 -0.007,-0.007 -0.005,-0.007 -0.009,-0.007 -0.007,-0.0047 -0.009,-0.0047 -0.005,-0.0023 -0.005,-0.0023 -0.005,-0.0023 -0.007,-0.0023 -0.005,-0.0023 -0.007,-0.0023 -0.005,0 -0.007,-0.0023 -0.007,-0.0023 -0.007,0 -0.007,-0.0023 -0.007,0 -0.007,0 -0.007,-0.0023 -0.009,0 -0.007,0 -0.009,0 -0.009,0 c -0.0581,0 -0.0791,0 -0.21163,0.06512 -0.0163,0.007 -0.12325,0.05581 -0.15116,0.05581 -0.0116,0 -0.0256,0 -0.0581,-0.01628 -0.33488,-0.104651 -0.672091,-0.104651 -0.844184,-0.104651 -0.234884,0 -0.730232,0 -1.132558,0.218604 -0.462791,0.25814 -0.527907,0.67907 -0.527907,0.867442 0,0.872093 1.069767,1.034883 1.634884,1.127907 0.495345,0.07209 1.086045,0.158139 1.086045,0.581395 0,0.551162 -0.80232,0.551162 -0.995348,0.551162 -0.769767,0 -1.053488,-0.348837 -1.204651,-0.788371 -0.05116,-0.134884 -0.05814,-0.153489 -0.26279,-0.153489 -0.232558,0 -0.25814,0.02558 -0.25814,0.25814 l 0,0.795348 c 0,0.165117 0,0.25814 0.186047,0.25814 0.07209,0 0.0907,0 0.258139,-0.104651 0.05116,-0.02093 0.181395,-0.09535 0.227907,-0.127907 0.42093,0.232558 0.858139,0.232558 1.046511,0.232558 0.265115,0 1.660465,0 1.660465,-1.197674 0,-0.372093 -0.19535,-0.632558 -0.3814,-0.786047 -0.38139,-0.316279 -0.73023,-0.374418 -1.40232,-0.479069 -0.460465,-0.07209 -0.941861,-0.144186 -0.941861,-0.469768 0,-0.453488 0.811628,-0.453488 0.981396,-0.453488 0.916275,0 0.948835,0.374419 0.974415,0.567442 0.014,0.16279 0.0651,0.176744 0.25117,0.176744 0.23488,0 0.25814,-0.02093 0.25814,-0.255814 z"
         id="path5602"
         inkscape:connector-curvature="0"
         style="font-style:normal;font-variant:normal;font-weight:normal;font-stretch:normal;letter-spacing:normal;word-spacing:normal;text-anchor:start;fill:#000000;fill-opacity:1;fill-rule:evenodd;stroke:#000000;stroke-width:0;stroke-linecap:butt;stroke-linejoin:miter;stroke-miterlimit:10.43299961;stroke-dasharray:none;stroke-dashoffset:0;stroke-opacity:1" />
      <path
         d="m 105.33967,26.344806 0,-0.04186 0,-0.04884 -0.002,-0.05581 0,-0.06047 -0.005,-0.06512 -0.002,-0.06744 -0.007,-0.07442 -0.007,-0.07674 -0.0116,-0.07907 -0.0116,-0.0814 -0.0163,-0.0814 -0.0163,-0.08605 -0.0233,-0.08605 -0.0256,-0.08372 -0.0279,-0.08605 -0.0326,-0.08605 -0.0395,-0.08372 -0.0419,-0.0814 -0.0465,-0.07907 -0.0535,-0.07674 -0.0581,-0.07442 -0.0628,-0.06977 -0.0349,-0.03256 -0.0349,-0.03256 -0.0395,-0.03023 -0.0372,-0.03023 -0.0419,-0.02791 -0.0419,-0.02791 -0.0442,-0.02558 -0.0465,-0.02326 -0.0465,-0.02325 -0.0512,-0.02093 -0.0512,-0.0186 -0.0535,-0.01861 -0.0535,-0.01628 -0.0581,-0.01163 -0.0581,-0.01395 -0.0628,-0.0093 -0.0628,-0.007 -0.0651,-0.007 -0.0674,-0.0023 -0.0698,-0.0023 0,0.193023 c 0.42791,0 0.73721,0.218605 0.84884,0.625581 0.0837,0.295349 0.0837,0.776744 0.0837,1.118605 0,0.393023 0,0.86279 -0.0861,1.211627 -0.15349,0.562791 -0.61395,0.646512 -0.84651,0.646512 l 0,0 c -0.21395,0 -0.70232,-0.07442 -0.84651,-0.65814 -0.0814,-0.311627 -0.0884,-0.727906 -0.0884,-1.199999 0,-0.427907 0,-0.827907 0.0954,-1.15814 0.14418,-0.486046 0.59302,-0.586046 0.83953,-0.586046 l 0,-0.193023 c -1.51163,0 -1.51163,1.588371 -1.51163,2.006976 0,0.42093 0,1.981395 1.51163,1.981395 1.51163,0 1.51163,-1.560465 1.51163,-1.981395 z"
         id="path5604"
         inkscape:connector-curvature="0"
         style="font-style:normal;font-variant:normal;font-weight:normal;font-stretch:normal;letter-spacing:normal;word-spacing:normal;text-anchor:start;fill:#000000;fill-opacity:1;fill-rule:evenodd;stroke:#000000;stroke-width:0;stroke-linecap:butt;stroke-linejoin:miter;stroke-miterlimit:10.43299961;stroke-dasharray:none;stroke-dashoffset:0;stroke-opacity:1" />
      <path
         d="m 99.516415,32.268061 0.02326,0 0.02558,0 0.02558,0 0.03023,0 0.03023,0 0.03256,-0.0023 0.03488,0 0.03488,-0.0023 0.03721,-0.0023 0.03954,-0.0023 0.04186,-0.0023 0.04186,-0.0023 0.04186,-0.0023 0.04421,-0.0023 0.0884,-0.0093 0.093,-0.0093 0.093,-0.01163 0.0953,-0.01395 0.093,-0.01628 0.0953,-0.01861 0.0442,-0.0093 0.0465,-0.01163 0.0442,-0.01163 0.0442,-0.01395 0.0419,-0.01163 0.0419,-0.01395 c 0.6,-0.211628 0.71395,-0.6 0.71395,-0.844186 0,-0.446511 -0.44884,-0.711627 -1.00698,-0.711627 l 0,0.225581 c 0.35582,0 0.65814,0.17907 0.65814,0.486046 0,0.786047 -1.372181,0.786047 -1.721018,0.786047 l -0.395349,0 c 0.330233,-1.174419 1.232647,-1.272093 1.458227,-1.272093 l 0,-0.225581 c -0.969855,0 -2.286134,0.744185 -2.286134,2.130232 0,0.816279 0.511628,1.52093 1.460465,1.52093 1.369859,0 2.009389,-0.797675 2.009389,-0.913954 0,-0.04884 -0.0721,-0.139535 -0.13721,-0.139535 -0.0488,0 -0.0651,0.01861 -0.13255,0.08372 -0.63024,0.746512 -1.579164,0.746512 -1.725675,0.746512 -0.486047,0 -0.809303,-0.325582 -0.809303,-0.981395 0,-0.113954 0,-0.276744 0.09767,-0.72093 z"
         id="path5606"
         inkscape:connector-curvature="0"
         style="font-style:normal;font-variant:normal;font-weight:normal;font-stretch:normal;letter-spacing:normal;word-spacing:normal;text-anchor:start;fill:#000000;fill-opacity:1;fill-rule:evenodd;stroke:#000000;stroke-width:0;stroke-linecap:butt;stroke-linejoin:miter;stroke-miterlimit:10.43299961;stroke-dasharray:none;stroke-dashoffset:0;stroke-opacity:1" />
      <path
         d="m 103.21641,32.068061 0.0279,0.007 0.0279,0.0047 0.0279,0.007 0.0279,0.0047 0.0279,0.0047 0.0279,0.0047 0.0256,0.0047 0.0256,0.0047 0.0256,0.0047 0.0256,0.0023 0.0256,0.0023 0.0233,0.0047 0.0232,0.0023 0.0233,0.0023 0.0209,0.0023 0.0209,0 0.0209,0.0023 0.0209,0.0023 0.0186,0 0.0186,0.0023 0.0163,0 0.0163,0 0.0163,0.0023 0.0139,0 0.014,0 0.014,0 0.0116,0 0.0116,0 0.009,0 0.009,0 0.007,0 0.005,0 c 0.39767,0 0.68372,-0.116279 0.83721,-0.195349 0.1372,-0.06977 0.53488,-0.32093 0.53488,-0.446512 0,-0.08837 -0.0674,-0.1 -0.0837,-0.1 -0.0116,0 -0.0233,0 -0.0884,0.03023 -0.21861,0.07674 -0.57675,0.155814 -0.95814,0.155814 -0.33256,0 -0.65117,-0.05814 -0.95582,-0.160465 -0.0651,-0.02558 -0.0767,-0.02558 -0.0884,-0.02558 -0.0837,0 -0.0837,0.06977 -0.0837,0.165117 l 0,1.737209 c 0,0.09767 0,0.174418 0.11395,0.174418 0.0605,0 0.0674,-0.01163 0.11861,-0.07674 0.22325,-0.255814 0.5279,-0.381395 0.92325,-0.381395 0.33489,0 0.52093,0.195348 0.6,0.318604 0.13489,0.197675 0.16279,0.45814 0.16279,0.734884 0,0.244186 -0.0209,0.567442 -0.25116,0.795348 -0.25814,0.265117 -0.58837,0.283721 -0.71395,0.283721 -0.37907,0 -0.8,-0.16279 -0.9814,-0.504651 0.24186,-0.0186 0.32558,-0.193023 0.32558,-0.323255 0,-0.186047 -0.14186,-0.327907 -0.32558,-0.327907 -0.1279,0 -0.32325,0.07674 -0.32325,0.344186 0,0.567441 0.55581,1.046511 1.31395,1.046511 0.86512,0 1.56977,-0.576744 1.56977,-1.295349 0,-0.655813 -0.56279,-1.265116 -1.36512,-1.265116 -0.36744,0 -0.66279,0.09535 -0.91163,0.286047 z"
         id="path5608"
         inkscape:connector-curvature="0"
         style="font-style:normal;font-variant:normal;font-weight:normal;font-stretch:normal;letter-spacing:normal;word-spacing:normal;text-anchor:start;fill:#000000;fill-opacity:1;fill-rule:evenodd;stroke:#000000;stroke-width:0;stroke-linecap:butt;stroke-linejoin:miter;stroke-miterlimit:10.43299961;stroke-dasharray:none;stroke-dashoffset:0;stroke-opacity:1" />
      <path
         d="m 118.38618,27.449457 0.0326,0 0.0349,0 0.0326,0 0.0186,-0.0023 0.0163,0 0.0163,-0.0023 0.0163,-0.0023 0.0163,-0.0023 0.0163,-0.0023 0.0163,-0.0023 0.0163,-0.0047 0.0139,-0.0047 0.014,-0.0047 0.014,-0.0047 0.0139,-0.007 0.014,-0.007 0.0116,-0.0093 0.0116,-0.007 0.0116,-0.01163 0.009,-0.0093 0.009,-0.01163 0.005,-0.007 0.005,-0.007 0.002,-0.0047 0.005,-0.007 0.002,-0.007 0.005,-0.0093 0.002,-0.007 0.002,-0.0093 0.002,-0.007 0.002,-0.0093 0.002,-0.0093 0,-0.0093 0.002,-0.0093 0,-0.0093 0,-0.0093 0,-0.01163 c 0,-0.232558 -0.22093,-0.232558 -0.38139,-0.232558 l -6.93954,0 c -0.16511,0 -0.38139,0 -0.38139,0.232558 0,0.227907 0.21628,0.227907 0.39069,0.227907 z"
         id="path5610"
         inkscape:connector-curvature="0"
         style="font-style:normal;font-variant:normal;font-weight:normal;font-stretch:normal;letter-spacing:normal;word-spacing:normal;text-anchor:start;fill:#000000;fill-opacity:1;fill-rule:evenodd;stroke:#000000;stroke-width:0;stroke-linecap:butt;stroke-linejoin:miter;stroke-miterlimit:10.43299961;stroke-dasharray:none;stroke-dashoffset:0;stroke-opacity:1" />
      <path
         d="m 118.39781,29.700619 0.0163,0 0.014,0 0.0326,-0.0023 0.0326,0 0.0163,0 0.0163,-0.0023 0.0163,-0.0023 0.0163,0 0.014,-0.0023 0.0163,-0.0047 0.0163,-0.0023 0.014,-0.0047 0.0163,-0.0047 0.014,-0.0047 0.0139,-0.0047 0.014,-0.007 0.0116,-0.007 0.0116,-0.0093 0.0116,-0.0093 0.0116,-0.0093 0.009,-0.01163 0.005,-0.0047 0.005,-0.007 0.005,-0.0047 0.005,-0.007 0.002,-0.007 0.005,-0.007 0.002,-0.007 0.005,-0.007 0.002,-0.0093 0.002,-0.007 0.002,-0.0093 0.002,-0.0093 0.002,-0.0093 0,-0.0093 0.002,-0.0093 0,-0.0093 0,-0.01163 0,-0.0093 c 0,-0.232558 -0.22093,-0.232558 -0.39302,-0.232558 l -6.91861,0 c -0.17441,0 -0.39069,0 -0.39069,0.232558 0,0.232558 0.21628,0.232558 0.38139,0.232558 z"
         id="path5612"
         inkscape:connector-curvature="0"
         style="font-style:normal;font-variant:normal;font-weight:normal;font-stretch:normal;letter-spacing:normal;word-spacing:normal;text-anchor:start;fill:#000000;fill-opacity:1;fill-rule:evenodd;stroke:#000000;stroke-width:0;stroke-linecap:butt;stroke-linejoin:miter;stroke-miterlimit:10.43299961;stroke-dasharray:none;stroke-dashoffset:0;stroke-opacity:1" />
      <path
         d="m 126.05362,23.823876 0,-0.01163 0,-0.01395 0,-0.01163 0,-0.01163 0,-0.01163 0,-0.01163 0,-0.0093 0,-0.01163 0,-0.0093 -0.002,-0.0093 0,-0.0093 0,-0.0093 0,-0.0093 0,-0.007 -0.002,-0.0093 0,-0.007 -0.002,-0.01628 -0.002,-0.01395 -0.002,-0.01163 -0.002,-0.01163 -0.005,-0.01163 -0.005,-0.0093 -0.005,-0.0093 -0.005,-0.007 -0.007,-0.007 -0.007,-0.007 -0.009,-0.007 -0.009,-0.0047 -0.009,-0.0047 -0.007,-0.0023 -0.005,-0.0023 -0.007,0 -0.005,-0.0023 -0.007,-0.0023 -0.007,0 -0.007,-0.0023 -0.009,0 -0.007,-0.0023 -0.007,0 -0.009,0 -0.009,-0.0023 -0.009,0 -0.009,0 -0.009,0 -0.009,0 -0.009,0 -0.0116,-0.0023 -0.0116,0 -0.0116,0 -0.0116,0 -0.0116,0 c -0.72093,0.74186 -1.73721,0.74186 -2.10697,0.74186 l 0,0.360465 c 0.23255,0 0.91395,0 1.51395,-0.302325 l 0,6.002324 c 0,0.418605 -0.0326,0.555814 -1.07442,0.555814 l -0.37209,0 0,0.360465 c 0.40697,-0.03721 1.41395,-0.03721 1.87674,-0.03721 0.46512,0 1.46977,0 1.87675,0.03721 l 0,-0.360465 -0.36977,0 c -1.04186,0 -1.07907,-0.125582 -1.07907,-0.555814 z"
         id="path5614"
         inkscape:connector-curvature="0"
         style="font-style:normal;font-variant:normal;font-weight:normal;font-stretch:normal;letter-spacing:normal;word-spacing:normal;text-anchor:start;fill:#000000;fill-opacity:1;fill-rule:evenodd;stroke:#000000;stroke-width:0;stroke-linecap:butt;stroke-linejoin:miter;stroke-miterlimit:10.43299961;stroke-dasharray:none;stroke-dashoffset:0;stroke-opacity:1" />
    </g>
  </g>
  <g
     id="g6765"
     transform="translate(-6.2696629,-5.4606665)">
    <rect
       y="103.96067"
       x="29.413612"
       height="12.000001"
       width="34.712101"
       id="rect6246"
       style="fill:#ffffff;fill-opacity:1;stroke:none;stroke-width:1.24600005;stroke-miterlimit:4;stroke-dasharray:none;stroke-opacity:1" />
    <g
       id="g6724"
       style="fill:#999999;fill-opacity:1"
       transform="matrix(0.91664016,0,0,0.91664016,21.687074,25.706911)">
      <path
         id="path4664"
         d="m 14.162673,89.403682 -0.0329,0 -0.03525,0 -0.03525,0.0023 -0.0329,0 -0.0329,0.0024 -0.0329,0.0047 -0.01645,0.0024 -0.01645,0.0024 -0.0141,0.0047 -0.01645,0.0024 -0.01645,0.0047 -0.01645,0.0047 -0.01645,0.0047 -0.0141,0.0047 -0.01645,0.007 -0.01645,0.0071 -0.0141,0.0071 -0.01645,0.0094 -0.01645,0.0094 -0.0141,0.0094 -0.01645,0.01175 -0.01645,0.0094 -0.0141,0.0141 -0.01645,0.01175 -0.0141,0.0141 -0.01645,0.01645 c -0.188014,0.176263 -0.209166,0.373678 -0.209166,0.453584 0,0.284372 0.209166,0.411281 0.432433,0.411281 0.338425,0 0.658049,-0.282021 0.658049,-0.747356 0,-0.573443 -0.549941,-1.005875 -1.384254,-1.005875 -1.579318,0 -3.135134,1.673325 -3.135134,3.323149 0,1.052878 0.6792,1.978848 1.894241,1.978848 1.673326,0 2.658049,-1.240893 2.658049,-1.381904 0,-0.06816 -0.0705,-0.152761 -0.13866,-0.152761 -0.05875,0 -0.08226,0.02585 -0.155112,0.117509 -0.925969,1.158636 -2.199764,1.158636 -2.338425,1.158636 -0.737955,0 -1.055229,-0.571092 -1.055229,-1.276145 0,-0.477086 0.232668,-1.616921 0.632198,-2.340775 0.364277,-0.66745 1.005875,-1.170388 1.649823,-1.170388 0.39953,0 0.843713,0.150411 1.008226,0.465335 z"
         inkscape:connector-curvature="0"
         style="font-style:normal;font-variant:normal;font-weight:normal;font-stretch:normal;letter-spacing:normal;word-spacing:normal;text-anchor:start;fill:#999999;fill-opacity:1;fill-rule:evenodd;stroke:#000000;stroke-width:0;stroke-linecap:butt;stroke-linejoin:miter;stroke-miterlimit:10.43299961;stroke-dasharray:none;stroke-dashoffset:0;stroke-opacity:1" />
      <path
         id="path4666"
         d="m 18.13917,86.17689 0,-0.0141 0,-0.01645 0,-0.0141 0,-0.0141 -0.0023,-0.01175 0,-0.0141 0,-0.01175 0,-0.01175 -0.0023,-0.01175 -0.0023,-0.01175 -0.0023,-0.01175 -0.0024,-0.0094 -0.0023,-0.01175 -0.0023,-0.0094 -0.0047,-0.0094 -0.0047,-0.0071 -0.0047,-0.0094 -0.0047,-0.0071 -0.0071,-0.0071 -0.0047,-0.0071 -0.0094,-0.0071 -0.007,-0.0047 -0.0094,-0.0047 -0.0047,-0.0024 -0.0047,-0.0024 -0.0047,-0.0023 -0.0071,-0.0024 -0.0047,-0.0023 -0.0071,-0.0024 -0.0047,0 -0.0071,-0.0024 -0.0071,-0.0023 -0.0071,0 -0.0071,-0.0024 -0.0071,0 -0.0071,0 -0.0071,-0.0023 -0.0094,0 -0.0071,0 -0.0094,0 -0.0094,0 c -0.05876,0 -0.07991,0 -0.213866,0.0658 -0.01645,0.0071 -0.12456,0.0564 -0.152762,0.0564 -0.01175,0 -0.02585,0 -0.05875,-0.01645 -0.338425,-0.105758 -0.679201,-0.105758 -0.853114,-0.105758 -0.237368,0 -0.737955,0 -1.144536,0.220916 -0.467685,0.26087 -0.53349,0.686252 -0.53349,0.876616 0,0.881316 1.081081,1.045828 1.652174,1.139835 0.500588,0.07286 1.097532,0.159812 1.097532,0.587544 0,0.556992 -0.81081,0.556992 -1.005875,0.556992 -0.777908,0 -1.06463,-0.352527 -1.217391,-0.79671 -0.0517,-0.13631 -0.05875,-0.155111 -0.26557,-0.155111 -0.235018,0 -0.26087,0.02585 -0.26087,0.260869 l 0,0.80376 c 0,0.166863 0,0.26087 0.188014,0.26087 0.07286,0 0.09166,0 0.26087,-0.105758 0.0517,-0.02115 0.183314,-0.09636 0.230317,-0.12926 0.425382,0.235018 0.867215,0.235018 1.057579,0.235018 0.26792,0 1.678026,0 1.678026,-1.210341 0,-0.376028 -0.197415,-0.639248 -0.385429,-0.794359 -0.385429,-0.319624 -0.737955,-0.378379 -1.417156,-0.484136 -0.465335,-0.07286 -0.951821,-0.145711 -0.951821,-0.474736 0,-0.458284 0.820211,-0.458284 0.991774,-0.458284 0.925969,0 0.958872,0.378378 0.984724,0.573443 0.0141,0.164512 0.06581,0.178613 0.253819,0.178613 0.237368,0 0.260869,-0.02115 0.260869,-0.258519 z"
         inkscape:connector-curvature="0"
         style="font-style:normal;font-variant:normal;font-weight:normal;font-stretch:normal;letter-spacing:normal;word-spacing:normal;text-anchor:start;fill:#999999;fill-opacity:1;fill-rule:evenodd;stroke:#000000;stroke-width:0;stroke-linecap:butt;stroke-linejoin:miter;stroke-miterlimit:10.43299961;stroke-dasharray:none;stroke-dashoffset:0;stroke-opacity:1" />
      <path
         id="path4668"
         d="m 22.322483,88.907795 0,-0.0423 0,-0.04935 -0.0023,-0.0564 0,-0.0611 -0.0047,-0.0658 -0.0023,-0.06816 -0.0071,-0.07521 -0.007,-0.07756 -0.01175,-0.07991 -0.01175,-0.08226 -0.01645,-0.08226 -0.01645,-0.08696 -0.0235,-0.08696 -0.02585,-0.08461 -0.0282,-0.08696 -0.0329,-0.08696 -0.03995,-0.08461 -0.0423,-0.08226 -0.047,-0.07991 -0.05405,-0.07756 -0.05875,-0.07521 -0.06346,-0.0705 -0.03525,-0.0329 -0.03525,-0.0329 -0.03995,-0.03055 -0.0376,-0.03055 -0.0423,-0.0282 -0.0423,-0.0282 -0.04465,-0.02585 -0.047,-0.0235 -0.047,-0.0235 -0.0517,-0.02115 -0.0517,-0.0188 -0.05405,-0.0188 -0.05405,-0.01645 -0.05876,-0.01175 -0.05875,-0.0141 -0.06346,-0.0094 -0.06345,-0.007 -0.06581,-0.0071 -0.06816,-0.0023 -0.07051,-0.0024 0,0.195064 c 0.432432,0 0.745006,0.220917 0.857814,0.632198 0.08461,0.298472 0.08461,0.784959 0.08461,1.130434 0,0.39718 0,0.871916 -0.08696,1.224442 -0.155112,0.568743 -0.620446,0.653349 -0.855464,0.653349 l 0,0 c -0.216216,0 -0.709753,-0.07521 -0.855464,-0.6651 -0.08226,-0.314923 -0.08931,-0.735605 -0.08931,-1.212691 0,-0.432432 0,-0.836662 0.09636,-1.170387 0.14571,-0.491187 0.599294,-0.592245 0.848413,-0.592245 l 0,-0.195064 c -1.527614,0 -1.527614,1.60517 -1.527614,2.028202 0,0.425382 0,2.00235 1.527614,2.00235 1.527614,0 1.527614,-1.576968 1.527614,-2.00235 z"
         inkscape:connector-curvature="0"
         style="font-style:normal;font-variant:normal;font-weight:normal;font-stretch:normal;letter-spacing:normal;word-spacing:normal;text-anchor:start;fill:#999999;fill-opacity:1;fill-rule:evenodd;stroke:#000000;stroke-width:0;stroke-linecap:butt;stroke-linejoin:miter;stroke-miterlimit:10.43299961;stroke-dasharray:none;stroke-dashoffset:0;stroke-opacity:1" />
      <path
         id="path4670"
         d="m 16.437643,94.893693 0.0235,0 0.02585,0 0.02585,0 0.03055,0 0.03055,0 0.0329,-0.0023 0.03525,0 0.03525,-0.0024 0.0376,-0.0024 0.03995,-0.0023 0.0423,-0.0024 0.0423,-0.0023 0.0423,-0.0024 0.04465,-0.0023 0.08931,-0.0094 0.09401,-0.0094 0.09401,-0.01175 0.09636,-0.0141 0.09401,-0.01645 0.09636,-0.0188 0.04465,-0.0094 0.047,-0.01175 0.04465,-0.01175 0.04465,-0.0141 0.0423,-0.01175 0.0423,-0.0141 c 0.606345,-0.213866 0.721504,-0.606346 0.721504,-0.853114 0,-0.451234 -0.453584,-0.719154 -1.017627,-0.719154 l 0,0.227967 c 0.359577,0 0.6651,0.180964 0.6651,0.491187 0,0.794359 -1.386604,0.794359 -1.73913,0.794359 l -0.39953,0 c 0.333725,-1.186838 1.245593,-1.285546 1.47356,-1.285546 l 0,-0.227967 c -0.980023,0 -2.310222,0.752056 -2.310222,2.152761 0,0.824912 0.517038,1.537015 1.47591,1.537015 1.384254,0 2.030552,-0.80611 2.030552,-0.923619 0,-0.04935 -0.07286,-0.14101 -0.13866,-0.14101 -0.04935,0 -0.0658,0.0188 -0.13396,0.08461 -0.636898,0.754406 -1.59577,0.754406 -1.743831,0.754406 -0.491187,0 -0.817861,-0.329024 -0.817861,-0.991774 0,-0.115158 0,-0.279671 0.09871,-0.728554 z"
         inkscape:connector-curvature="0"
         style="font-style:normal;font-variant:normal;font-weight:normal;font-stretch:normal;letter-spacing:normal;word-spacing:normal;text-anchor:start;fill:#999999;fill-opacity:1;fill-rule:evenodd;stroke:#000000;stroke-width:0;stroke-linecap:butt;stroke-linejoin:miter;stroke-miterlimit:10.43299961;stroke-dasharray:none;stroke-dashoffset:0;stroke-opacity:1" />
      <path
         id="path4672"
         d="m 22.477595,96.785584 -0.244418,0 c -0.0188,0.112809 -0.07756,0.472386 -0.169213,0.53114 -0.04935,0.0376 -0.54054,0.0376 -0.627497,0.0376 l -1.146886,0 c 0.385429,-0.286722 0.817861,-0.613396 1.170388,-0.848414 0.526439,-0.364277 1.017626,-0.705052 1.017626,-1.325499 0,-0.749706 -0.707403,-1.165687 -1.546416,-1.165687 -0.787309,0 -1.367802,0.460634 -1.367802,1.034077 0,0.303173 0.256169,0.354877 0.340775,0.354877 0.157462,0 0.345476,-0.105758 0.345476,-0.345476 0,-0.209166 -0.155111,-0.326674 -0.333725,-0.345476 0.159812,-0.26322 0.502938,-0.439483 0.895417,-0.439483 0.566393,0 1.038778,0.340776 1.038778,0.914219 0,0.491186 -0.338425,0.867215 -0.789659,1.247943 l -1.428907,1.212691 c -0.05875,0.0517 -0.06111,0.0517 -0.06816,0.09166 l 0,0.176263 2.719153,0 z"
         inkscape:connector-curvature="0"
         style="font-style:normal;font-variant:normal;font-weight:normal;font-stretch:normal;letter-spacing:normal;word-spacing:normal;text-anchor:start;fill:#999999;fill-opacity:1;fill-rule:evenodd;stroke:#000000;stroke-width:0;stroke-linecap:butt;stroke-linejoin:miter;stroke-miterlimit:10.43299961;stroke-dasharray:none;stroke-dashoffset:0;stroke-opacity:1" />
      <path
         id="path4674"
         d="m 35.50697,90.024128 0.0329,0 0.03525,0 0.0329,0 0.0188,-0.0024 0.01645,0 0.01645,-0.0023 0.01645,-0.0024 0.01645,-0.0023 0.01645,-0.0024 0.01645,-0.0024 0.01645,-0.0047 0.0141,-0.0047 0.0141,-0.0047 0.0141,-0.0047 0.0141,-0.0071 0.0141,-0.007 0.01175,-0.0094 0.01175,-0.0071 0.01175,-0.01175 0.0094,-0.0094 0.0094,-0.01175 0.0047,-0.0071 0.0047,-0.0071 0.0023,-0.0047 0.0047,-0.0071 0.0023,-0.0071 0.0047,-0.0094 0.0023,-0.0071 0.0023,-0.0094 0.0023,-0.0071 0.0024,-0.0094 0.0023,-0.0094 0,-0.0094 0.0023,-0.0094 0,-0.0094 0,-0.0094 0,-0.01175 c 0,-0.235018 -0.223267,-0.235018 -0.385429,-0.235018 l -7.012925,0 c -0.166862,0 -0.385429,0 -0.385429,0.235018 0,0.230317 0.218567,0.230317 0.39483,0.230317 z"
         inkscape:connector-curvature="0"
         style="font-style:normal;font-variant:normal;font-weight:normal;font-stretch:normal;letter-spacing:normal;word-spacing:normal;text-anchor:start;fill:#999999;fill-opacity:1;fill-rule:evenodd;stroke:#000000;stroke-width:0;stroke-linecap:butt;stroke-linejoin:miter;stroke-miterlimit:10.43299961;stroke-dasharray:none;stroke-dashoffset:0;stroke-opacity:1" />
      <path
         id="path4676"
         d="m 35.518721,92.299098 0.01645,0 0.0141,0 0.0329,-0.0024 0.0329,0 0.01645,0 0.01645,-0.0023 0.01645,-0.0024 0.01645,0 0.0141,-0.0023 0.01645,-0.0047 0.01645,-0.0024 0.0141,-0.0047 0.01645,-0.0047 0.0141,-0.0047 0.0141,-0.0047 0.0141,-0.0071 0.01175,-0.007 0.01175,-0.0094 0.01175,-0.0094 0.01175,-0.0094 0.0094,-0.01175 0.0047,-0.0047 0.0047,-0.007 0.0047,-0.0047 0.0047,-0.0071 0.0023,-0.0071 0.0047,-0.0071 0.0023,-0.0071 0.0047,-0.007 0.0023,-0.0094 0.0023,-0.007 0.0023,-0.0094 0.0024,-0.0094 0.0023,-0.0094 0,-0.0094 0.0023,-0.0094 0,-0.0094 0,-0.01175 0,-0.0094 c 0,-0.235018 -0.223267,-0.235018 -0.39718,-0.235018 l -6.991773,0 c -0.176263,0 -0.39483,0 -0.39483,0.235018 0,0.235017 0.218567,0.235017 0.385429,0.235017 z"
         inkscape:connector-curvature="0"
         style="font-style:normal;font-variant:normal;font-weight:normal;font-stretch:normal;letter-spacing:normal;word-spacing:normal;text-anchor:start;fill:#999999;fill-opacity:1;fill-rule:evenodd;stroke:#000000;stroke-width:0;stroke-linecap:butt;stroke-linejoin:miter;stroke-miterlimit:10.43299961;stroke-dasharray:none;stroke-dashoffset:0;stroke-opacity:1" />
      <path
         id="path4678"
         d="m 43.2555,86.360204 0,-0.01175 0,-0.0141 0,-0.01175 0,-0.01175 0,-0.01175 0,-0.01175 0,-0.0094 0,-0.01175 0,-0.0094 -0.0023,-0.0094 0,-0.0094 0,-0.0094 0,-0.0094 0,-0.0071 -0.0023,-0.0094 0,-0.0071 -0.0023,-0.01645 -0.0024,-0.0141 -0.0023,-0.01175 -0.0023,-0.01175 -0.0047,-0.01175 -0.0047,-0.0094 -0.0047,-0.0094 -0.0047,-0.0071 -0.0071,-0.0071 -0.007,-0.0071 -0.0094,-0.0071 -0.0094,-0.0047 -0.0094,-0.0047 -0.0071,-0.0024 -0.0047,-0.0024 -0.0071,0 -0.0047,-0.0023 -0.0071,-0.0024 -0.0071,0 -0.0071,-0.0023 -0.0094,0 -0.007,-0.0024 -0.0071,0 -0.0094,0 -0.0094,-0.0024 -0.0094,0 -0.0094,0 -0.0094,0 -0.0094,0 -0.0094,0 -0.01175,-0.0023 -0.01175,0 -0.01175,0 -0.01175,0 -0.01175,0 c -0.728554,0.749706 -1.755581,0.749706 -2.129259,0.749706 l 0,0.364278 c 0.235017,0 0.923619,0 1.529964,-0.305523 l 0,6.065804 c 0,0.423031 -0.0329,0.561692 -1.085781,0.561692 l -0.376028,0 0,0.364277 c 0.411281,-0.0376 1.428907,-0.0376 1.896592,-0.0376 0.470035,0 1.485311,0 1.896592,0.0376 l 0,-0.364277 -0.373678,0 c -1.052879,0 -1.090482,-0.12691 -1.090482,-0.561692 z"
         inkscape:connector-curvature="0"
         style="font-style:normal;font-variant:normal;font-weight:normal;font-stretch:normal;letter-spacing:normal;word-spacing:normal;text-anchor:start;fill:#999999;fill-opacity:1;fill-rule:evenodd;stroke:#000000;stroke-width:0;stroke-linecap:butt;stroke-linejoin:miter;stroke-miterlimit:10.43299961;stroke-dasharray:none;stroke-dashoffset:0;stroke-opacity:1" />
    </g>
  </g>
  <g
     id="g6818"
     transform="translate(-1.3072777,1.6459015)">
    <rect
       y="84.854103"
       x="54.451229"
       height="12"
       width="34.712097"
       id="rect6252"
       style="fill:#ffffff;fill-opacity:1;stroke:none;stroke-width:1.24600005;stroke-miterlimit:4;stroke-dasharray:none;stroke-opacity:1" />
    <g
       id="g6777"
       style="fill:#999999;fill-opacity:1"
       transform="matrix(0.91664771,0,0,0.91664771,5.526976,7.1145755)">
      <path
         id="path5268"
         d="m 59.106487,88.84188 -0.0329,0 -0.03525,0 -0.03525,0.0023 -0.0329,0 -0.0329,0.0024 -0.0329,0.0047 -0.01645,0.0023 -0.01645,0.0024 -0.0141,0.0047 -0.01645,0.0024 -0.01645,0.0047 -0.01645,0.0047 -0.01645,0.0047 -0.0141,0.0047 -0.01645,0.0071 -0.01645,0.007 -0.0141,0.0071 -0.01645,0.0094 -0.01645,0.0094 -0.0141,0.0094 -0.01645,0.01175 -0.01645,0.0094 -0.0141,0.0141 -0.01645,0.01175 -0.0141,0.0141 -0.01645,0.01645 c -0.188014,0.176263 -0.209165,0.373678 -0.209165,0.453584 0,0.284371 0.209165,0.41128 0.432432,0.41128 0.338425,0 0.658049,-0.282021 0.658049,-0.747355 0,-0.573443 -0.549941,-1.005876 -1.384253,-1.005876 -1.579318,0 -3.135134,1.673325 -3.135134,3.323149 0,1.052879 0.6792,1.978848 1.894241,1.978848 1.673325,0 2.658049,-1.240893 2.658049,-1.381904 0,-0.06816 -0.0705,-0.152761 -0.138661,-0.152761 -0.05875,0 -0.08226,0.02585 -0.155111,0.117509 -0.925969,1.158636 -2.199765,1.158636 -2.338425,1.158636 -0.737955,0 -1.055229,-0.571092 -1.055229,-1.276145 0,-0.477086 0.232668,-1.616921 0.632197,-2.340775 0.364278,-0.66745 1.005876,-1.170387 1.649824,-1.170387 0.39953,0 0.843713,0.150411 1.008225,0.465334 z"
         inkscape:connector-curvature="0"
         style="font-style:normal;font-variant:normal;font-weight:normal;font-stretch:normal;letter-spacing:normal;word-spacing:normal;text-anchor:start;fill:#999999;fill-opacity:1;fill-rule:evenodd;stroke:#000000;stroke-width:0;stroke-linecap:butt;stroke-linejoin:miter;stroke-miterlimit:10.43299961;stroke-dasharray:none;stroke-dashoffset:0;stroke-opacity:1" />
      <path
         id="path5270"
         d="m 63.082984,85.615089 0,-0.0141 0,-0.01645 0,-0.0141 0,-0.0141 -0.0023,-0.01175 0,-0.0141 0,-0.01175 0,-0.01175 -0.0024,-0.01175 -0.0023,-0.01175 -0.0023,-0.01175 -0.0023,-0.0094 -0.0024,-0.01175 -0.0023,-0.0094 -0.0047,-0.0094 -0.0047,-0.0071 -0.0047,-0.0094 -0.0047,-0.007 -0.0071,-0.0071 -0.0047,-0.0071 -0.0094,-0.0071 -0.007,-0.0047 -0.0094,-0.0047 -0.0047,-0.0023 -0.0047,-0.0024 -0.0047,-0.0023 -0.0071,-0.0024 -0.0047,-0.0024 -0.007,-0.0024 -0.0047,0 -0.007,-0.0023 -0.0071,-0.0024 -0.007,0 -0.0071,-0.0023 -0.007,0 -0.0071,0 -0.0071,-0.0024 -0.0094,0 -0.0071,0 -0.0094,0 -0.0094,0 c -0.05875,0 -0.07991,0 -0.213866,0.0658 -0.01645,0.0071 -0.124559,0.0564 -0.152762,0.0564 -0.01175,0 -0.02585,0 -0.05875,-0.01645 -0.338425,-0.105757 -0.679201,-0.105757 -0.853114,-0.105757 -0.237367,0 -0.737955,0 -1.144535,0.220916 -0.467685,0.26087 -0.53349,0.686251 -0.53349,0.876616 0,0.881315 1.081081,1.045828 1.652173,1.139835 0.500588,0.07285 1.097532,0.159812 1.097532,0.587544 0,0.556991 -0.81081,0.556991 -1.005875,0.556991 -0.777908,0 -1.064629,-0.352526 -1.217391,-0.796709 -0.0517,-0.13631 -0.05875,-0.155112 -0.26557,-0.155112 -0.235017,0 -0.260869,0.02585 -0.260869,0.26087 l 0,0.80376 c 0,0.166862 0,0.260869 0.188014,0.260869 0.07285,0 0.09166,0 0.260869,-0.105758 0.0517,-0.02115 0.183314,-0.09636 0.230318,-0.129259 0.425381,0.235017 0.867214,0.235017 1.057579,0.235017 0.26792,0 1.678025,0 1.678025,-1.21034 0,-0.376028 -0.197415,-0.639248 -0.385429,-0.79436 -0.385429,-0.319623 -0.737955,-0.378378 -1.417156,-0.484136 -0.465334,-0.07286 -0.951821,-0.145711 -0.951821,-0.474735 0,-0.458284 0.820212,-0.458284 0.991774,-0.458284 0.92597,0 0.958872,0.378378 0.984724,0.573442 0.0141,0.164513 0.06581,0.178614 0.253819,0.178614 0.237368,0 0.260869,-0.02115 0.260869,-0.25852 z"
         inkscape:connector-curvature="0"
         style="font-style:normal;font-variant:normal;font-weight:normal;font-stretch:normal;letter-spacing:normal;word-spacing:normal;text-anchor:start;fill:#999999;fill-opacity:1;fill-rule:evenodd;stroke:#000000;stroke-width:0;stroke-linecap:butt;stroke-linejoin:miter;stroke-miterlimit:10.43299961;stroke-dasharray:none;stroke-dashoffset:0;stroke-opacity:1" />
      <path
         id="path5272"
         d="m 67.266297,88.345993 0,-0.0423 0,-0.04935 -0.0023,-0.0564 0,-0.0611 -0.0047,-0.0658 -0.0024,-0.06815 -0.007,-0.07521 -0.0071,-0.07756 -0.01175,-0.07991 -0.01175,-0.08226 -0.01645,-0.08226 -0.01645,-0.08696 -0.0235,-0.08696 -0.02585,-0.08461 -0.0282,-0.08696 -0.0329,-0.08696 -0.03995,-0.08461 -0.0423,-0.08226 -0.047,-0.07991 -0.05405,-0.07756 -0.05875,-0.0752 -0.06346,-0.07051 -0.03525,-0.0329 -0.03525,-0.0329 -0.03995,-0.03055 -0.0376,-0.03055 -0.0423,-0.0282 -0.0423,-0.0282 -0.04465,-0.02585 -0.047,-0.0235 -0.047,-0.0235 -0.0517,-0.02115 -0.0517,-0.0188 -0.05405,-0.0188 -0.05405,-0.01645 -0.05876,-0.01175 -0.05875,-0.0141 -0.06346,-0.0094 -0.06346,-0.0071 -0.0658,-0.0071 -0.06815,-0.0023 -0.07051,-0.0024 0,0.195064 c 0.432432,0 0.745006,0.220917 0.857814,0.632197 0.08461,0.298473 0.08461,0.784959 0.08461,1.130435 0,0.39718 0,0.871915 -0.08696,1.224441 -0.155112,0.568743 -0.620446,0.653349 -0.855464,0.653349 l 0,0 c -0.216216,0 -0.709753,-0.0752 -0.855464,-0.665099 -0.08226,-0.314924 -0.08931,-0.735605 -0.08931,-1.212691 0,-0.432432 0,-0.836663 0.09636,-1.170388 0.14571,-0.491186 0.599294,-0.592244 0.848413,-0.592244 l 0,-0.195064 c -1.527614,0 -1.527614,1.60517 -1.527614,2.028201 0,0.425382 0,2.00235 1.527614,2.00235 1.527614,0 1.527614,-1.576968 1.527614,-2.00235 z"
         inkscape:connector-curvature="0"
         style="font-style:normal;font-variant:normal;font-weight:normal;font-stretch:normal;letter-spacing:normal;word-spacing:normal;text-anchor:start;fill:#999999;fill-opacity:1;fill-rule:evenodd;stroke:#000000;stroke-width:0;stroke-linecap:butt;stroke-linejoin:miter;stroke-miterlimit:10.43299961;stroke-dasharray:none;stroke-dashoffset:0;stroke-opacity:1" />
      <path
         id="path5274"
         d="m 61.381457,94.331891 0.0235,0 0.02585,0 0.02585,0 0.03055,0 0.03055,0 0.0329,-0.0023 0.03525,0 0.03525,-0.0024 0.0376,-0.0024 0.03995,-0.0023 0.0423,-0.0024 0.0423,-0.0023 0.0423,-0.0024 0.04465,-0.0023 0.08931,-0.0094 0.09401,-0.0094 0.09401,-0.01175 0.09636,-0.0141 0.09401,-0.01645 0.09636,-0.0188 0.04465,-0.0094 0.047,-0.01175 0.04465,-0.01175 0.04465,-0.0141 0.0423,-0.01175 0.0423,-0.0141 c 0.606345,-0.213866 0.721504,-0.606345 0.721504,-0.853114 0,-0.451234 -0.453584,-0.719154 -1.017626,-0.719154 l 0,0.227967 c 0.359577,0 0.665099,0.180964 0.665099,0.491187 0,0.79436 -1.386603,0.79436 -1.73913,0.79436 l -0.39953,0 c 0.333725,-1.186839 1.245594,-1.285547 1.473561,-1.285547 l 0,-0.227967 c -0.980024,0 -2.310223,0.752057 -2.310223,2.152761 0,0.824912 0.517039,1.537015 1.47591,1.537015 1.384254,0 2.030552,-0.80611 2.030552,-0.923619 0,-0.04935 -0.07285,-0.14101 -0.13866,-0.14101 -0.04935,0 -0.0658,0.0188 -0.13396,0.08461 -0.636898,0.754406 -1.59577,0.754406 -1.743831,0.754406 -0.491186,0 -0.817861,-0.329024 -0.817861,-0.991774 0,-0.115158 0,-0.279671 0.09871,-0.728554 z"
         inkscape:connector-curvature="0"
         style="font-style:normal;font-variant:normal;font-weight:normal;font-stretch:normal;letter-spacing:normal;word-spacing:normal;text-anchor:start;fill:#999999;fill-opacity:1;fill-rule:evenodd;stroke:#000000;stroke-width:0;stroke-linecap:butt;stroke-linejoin:miter;stroke-miterlimit:10.43299961;stroke-dasharray:none;stroke-dashoffset:0;stroke-opacity:1" />
      <path
         id="path5276"
         d="m 67.588271,96.400045 0,-0.258519 -0.735605,0 0,-2.578143 c 0,-0.13866 -0.0023,-0.171563 -0.157462,-0.171563 -0.117508,0 -0.122209,0.0024 -0.188014,0.08696 l -2.166862,2.662749 0,0.258519 1.950646,0 0.047,-0.258519 -1.720329,0 1.720329,-2.117508 0,2.117508 -0.047,0.258519 0,0.453584 c 0,0.183314 0,0.242068 -0.507638,0.242068 l -0.204465,0 0,0.25852 c 0.274971,-0.01175 0.653349,-0.0235 0.994124,-0.0235 0.338426,0 0.712104,0.01175 0.996475,0.0235 l 0,-0.25852 -0.206816,0 c -0.509988,0 -0.509988,-0.05875 -0.509988,-0.242068 l 0,-0.453584 z"
         inkscape:connector-curvature="0"
         style="font-style:normal;font-variant:normal;font-weight:normal;font-stretch:normal;letter-spacing:normal;word-spacing:normal;text-anchor:start;fill:#999999;fill-opacity:1;fill-rule:evenodd;stroke:#000000;stroke-width:0;stroke-linecap:butt;stroke-linejoin:miter;stroke-miterlimit:10.43299961;stroke-dasharray:none;stroke-dashoffset:0;stroke-opacity:1" />
      <path
         id="path5278"
         d="m 80.450783,89.462327 0.0329,0 0.03525,0 0.0329,0 0.0188,-0.0024 0.01645,0 0.01645,-0.0023 0.01645,-0.0024 0.01645,-0.0023 0.01645,-0.0024 0.01645,-0.0023 0.01645,-0.0047 0.0141,-0.0047 0.0141,-0.0047 0.0141,-0.0047 0.0141,-0.007 0.0141,-0.0071 0.01175,-0.0094 0.01175,-0.0071 0.01175,-0.01175 0.0094,-0.0094 0.0094,-0.01175 0.0047,-0.0071 0.0047,-0.0071 0.0024,-0.0047 0.0047,-0.007 0.0023,-0.0071 0.0047,-0.0094 0.0024,-0.0071 0.0023,-0.0094 0.0024,-0.007 0.0023,-0.0094 0.0024,-0.0094 0,-0.0094 0.0024,-0.0094 0,-0.0094 0,-0.0094 0,-0.01175 c 0,-0.235017 -0.223267,-0.235017 -0.385429,-0.235017 l -7.012925,0 c -0.166862,0 -0.385428,0 -0.385428,0.235017 0,0.230318 0.218566,0.230318 0.394829,0.230318 z"
         inkscape:connector-curvature="0"
         style="font-style:normal;font-variant:normal;font-weight:normal;font-stretch:normal;letter-spacing:normal;word-spacing:normal;text-anchor:start;fill:#999999;fill-opacity:1;fill-rule:evenodd;stroke:#000000;stroke-width:0;stroke-linecap:butt;stroke-linejoin:miter;stroke-miterlimit:10.43299961;stroke-dasharray:none;stroke-dashoffset:0;stroke-opacity:1" />
      <path
         id="path5280"
         d="m 80.462534,91.737297 0.01645,0 0.0141,0 0.0329,-0.0023 0.0329,0 0.01645,0 0.01645,-0.0024 0.01645,-0.0024 0.01645,0 0.0141,-0.0023 0.01645,-0.0047 0.01645,-0.0024 0.0141,-0.0047 0.01645,-0.0047 0.0141,-0.0047 0.0141,-0.0047 0.0141,-0.0071 0.01175,-0.0071 0.01175,-0.0094 0.01175,-0.0094 0.01175,-0.0094 0.0094,-0.01175 0.0047,-0.0047 0.0047,-0.0071 0.0047,-0.0047 0.0047,-0.0071 0.0024,-0.007 0.0047,-0.0071 0.0023,-0.0071 0.0047,-0.0071 0.0024,-0.0094 0.0023,-0.0071 0.0024,-0.0094 0.0023,-0.0094 0.0024,-0.0094 0,-0.0094 0.0024,-0.0094 0,-0.0094 0,-0.01175 0,-0.0094 c 0,-0.235017 -0.223267,-0.235017 -0.39718,-0.235017 l -6.991773,0 c -0.176263,0 -0.394829,0 -0.394829,0.235017 0,0.235018 0.218566,0.235018 0.385428,0.235018 z"
         inkscape:connector-curvature="0"
         style="font-style:normal;font-variant:normal;font-weight:normal;font-stretch:normal;letter-spacing:normal;word-spacing:normal;text-anchor:start;fill:#999999;fill-opacity:1;fill-rule:evenodd;stroke:#000000;stroke-width:0;stroke-linecap:butt;stroke-linejoin:miter;stroke-miterlimit:10.43299961;stroke-dasharray:none;stroke-dashoffset:0;stroke-opacity:1" />
      <path
         id="path5282"
         d="m 88.199312,85.798403 0,-0.01175 0,-0.0141 0,-0.01175 0,-0.01175 0,-0.01175 0,-0.01175 0,-0.0094 0,-0.01175 0,-0.0094 -0.0024,-0.0094 0,-0.0094 0,-0.0094 0,-0.0094 0,-0.0071 -0.0023,-0.0094 0,-0.0071 -0.0024,-0.01645 -0.0024,-0.0141 -0.0023,-0.01175 -0.0024,-0.01175 -0.0047,-0.01175 -0.0047,-0.0094 -0.0047,-0.0094 -0.0047,-0.0071 -0.0071,-0.0071 -0.007,-0.0071 -0.0094,-0.0071 -0.0094,-0.0047 -0.0094,-0.0047 -0.0071,-0.0023 -0.0047,-0.0024 -0.0071,0 -0.0047,-0.0023 -0.0071,-0.0024 -0.007,0 -0.0071,-0.0024 -0.0094,0 -0.0071,-0.0024 -0.0071,0 -0.0094,0 -0.0094,-0.0023 -0.0094,0 -0.0094,0 -0.0094,0 -0.0094,0 -0.0094,0 -0.01175,-0.0024 -0.01175,0 -0.01175,0 -0.01175,0 -0.01175,0 c -0.728554,0.749706 -1.755581,0.749706 -2.129259,0.749706 l 0,0.364277 c 0.235017,0 0.923619,0 1.529964,-0.305523 l 0,6.065804 c 0,0.423031 -0.0329,0.561692 -1.085781,0.561692 l -0.376028,0 0,0.364277 c 0.411281,-0.0376 1.428907,-0.0376 1.896592,-0.0376 0.470035,0 1.485311,0 1.896592,0.0376 l 0,-0.364277 -0.373678,0 c -1.052879,0 -1.090482,-0.12691 -1.090482,-0.561692 z"
         inkscape:connector-curvature="0"
         style="font-style:normal;font-variant:normal;font-weight:normal;font-stretch:normal;letter-spacing:normal;word-spacing:normal;text-anchor:start;fill:#999999;fill-opacity:1;fill-rule:evenodd;stroke:#000000;stroke-width:0;stroke-linecap:butt;stroke-linejoin:miter;stroke-miterlimit:10.43299961;stroke-dasharray:none;stroke-dashoffset:0;stroke-opacity:1" />
    </g>
  </g>
  <g
     id="g6879"
     transform="translate(1.7640457,-7.4269595)">
    <rect
       y="105.92696"
       x="81.561539"
       height="12"
       width="34.348831"
       id="rect6248"
       style="fill:#ffffff;fill-opacity:1;stroke:none;stroke-width:1.24600005;stroke-miterlimit:4;stroke-dasharray:none;stroke-opacity:1" />
    <g
       transform="matrix(0.91665979,0,0,0.91665979,-13.213061,22.42168)"
       id="g6830"
       style="fill:none">
      <path
         id="path5952"
         d="m 109.063,95.093934 -0.0326,0 -0.0349,0 -0.0349,0.0023 -0.0326,0 -0.0326,0.0023 -0.0326,0.0047 -0.0163,0.0023 -0.0163,0.0023 -0.014,0.0047 -0.0163,0.0023 -0.0163,0.0047 -0.0163,0.0047 -0.0163,0.0047 -0.014,0.0047 -0.0163,0.007 -0.0163,0.007 -0.014,0.007 -0.0163,0.0093 -0.0163,0.0093 -0.0139,0.0093 -0.0163,0.01163 -0.0163,0.0093 -0.0139,0.01395 -0.0163,0.01163 -0.0139,0.01395 -0.0163,0.01628 c -0.18605,0.174418 -0.20698,0.369767 -0.20698,0.448837 0,0.281395 0.20698,0.406977 0.42791,0.406977 0.33488,0 0.65116,-0.27907 0.65116,-0.739535 0,-0.567442 -0.54419,-0.995349 -1.36977,-0.995349 -1.56279,0 -3.10232,1.655814 -3.10232,3.288372 0,1.04186 0.67209,1.958139 1.87442,1.958139 1.65581,0 2.63023,-1.227907 2.63023,-1.367442 0,-0.06744 -0.0698,-0.151163 -0.13721,-0.151163 -0.0581,0 -0.0814,0.02558 -0.15349,0.11628 -0.91628,1.146511 -2.17674,1.146511 -2.31395,1.146511 -0.73023,0 -1.04419,-0.565116 -1.04419,-1.262791 0,-0.472092 0.23023,-1.599999 0.62558,-2.316278 0.36047,-0.660465 0.99535,-1.158139 1.63256,-1.158139 0.39535,0 0.83488,0.148837 0.99767,0.460465 z"
         inkscape:connector-curvature="0"
         style="font-style:normal;font-variant:normal;font-weight:normal;font-stretch:normal;letter-spacing:normal;word-spacing:normal;text-anchor:start;fill:#000000;fill-opacity:1;fill-rule:evenodd;stroke:#000000;stroke-width:0;stroke-linecap:butt;stroke-linejoin:miter;stroke-miterlimit:10.43299961;stroke-dasharray:none;stroke-dashoffset:0;stroke-opacity:1" />
      <path
         id="path5954"
         d="m 112.99789,91.900911 0,-0.01395 0,-0.01628 0,-0.01395 0,-0.01395 -0.002,-0.01163 0,-0.01395 0,-0.01163 0,-0.01163 -0.002,-0.01163 -0.002,-0.01163 -0.002,-0.01163 -0.002,-0.0093 -0.002,-0.01163 -0.002,-0.0093 -0.005,-0.0093 -0.005,-0.007 -0.005,-0.0093 -0.005,-0.007 -0.007,-0.007 -0.005,-0.007 -0.009,-0.007 -0.007,-0.0047 -0.009,-0.0047 -0.005,-0.0023 -0.005,-0.0023 -0.005,-0.0023 -0.007,-0.0023 -0.005,-0.0023 -0.007,-0.0023 -0.005,0 -0.007,-0.0023 -0.007,-0.0023 -0.007,0 -0.007,-0.0023 -0.007,0 -0.007,0 -0.007,-0.0023 -0.009,0 -0.007,0 -0.009,0 -0.009,0 c -0.0581,0 -0.0791,0 -0.21162,0.06512 -0.0163,0.007 -0.12326,0.05581 -0.15117,0.05581 -0.0116,0 -0.0256,0 -0.0581,-0.01628 -0.33488,-0.104651 -0.67209,-0.104651 -0.84418,-0.104651 -0.23489,0 -0.73023,0 -1.13256,0.218604 -0.46279,0.25814 -0.52791,0.67907 -0.52791,0.867442 0,0.872093 1.06977,1.034883 1.63489,1.127907 0.49535,0.07209 1.08604,0.158139 1.08604,0.581395 0,0.551162 -0.80232,0.551162 -0.99535,0.551162 -0.76976,0 -1.05348,-0.348837 -1.20465,-0.788371 -0.0512,-0.134884 -0.0581,-0.153489 -0.26279,-0.153489 -0.23255,0 -0.25814,0.02558 -0.25814,0.25814 l 0,0.795348 c 0,0.165117 0,0.25814 0.18605,0.25814 0.0721,0 0.0907,0 0.25814,-0.104651 0.0512,-0.02093 0.1814,-0.09535 0.22791,-0.127907 0.42093,0.232558 0.85814,0.232558 1.04651,0.232558 0.26511,0 1.66046,0 1.66046,-1.197674 0,-0.372093 -0.19535,-0.632558 -0.38139,-0.786047 -0.3814,-0.316279 -0.73023,-0.374418 -1.40233,-0.479069 -0.46046,-0.07209 -0.94186,-0.144186 -0.94186,-0.469768 0,-0.453488 0.81163,-0.453488 0.9814,-0.453488 0.91628,0 0.94883,0.374419 0.97442,0.567442 0.0139,0.16279 0.0651,0.176744 0.25116,0.176744 0.23488,0 0.25814,-0.02093 0.25814,-0.255814 z"
         inkscape:connector-curvature="0"
         style="font-style:normal;font-variant:normal;font-weight:normal;font-stretch:normal;letter-spacing:normal;word-spacing:normal;text-anchor:start;fill:#000000;fill-opacity:1;fill-rule:evenodd;stroke:#000000;stroke-width:0;stroke-linecap:butt;stroke-linejoin:miter;stroke-miterlimit:10.43299961;stroke-dasharray:none;stroke-dashoffset:0;stroke-opacity:1" />
      <path
         id="path5956"
         d="m 117.13742,94.603236 0,-0.04186 0,-0.04884 -0.002,-0.05581 0,-0.06046 -0.005,-0.06512 -0.002,-0.06744 -0.007,-0.07442 -0.007,-0.07675 -0.0116,-0.07907 -0.0116,-0.0814 -0.0163,-0.0814 -0.0163,-0.08605 -0.0233,-0.08605 -0.0256,-0.08372 -0.0279,-0.08605 -0.0326,-0.08605 -0.0395,-0.08372 -0.0419,-0.0814 -0.0465,-0.07907 -0.0535,-0.07674 -0.0581,-0.07442 -0.0628,-0.06977 -0.0349,-0.03256 -0.0349,-0.03256 -0.0395,-0.03023 -0.0372,-0.03023 -0.0419,-0.02791 -0.0419,-0.02791 -0.0442,-0.02558 -0.0465,-0.02326 -0.0465,-0.02326 -0.0512,-0.02093 -0.0512,-0.0186 -0.0535,-0.0186 -0.0535,-0.01628 -0.0581,-0.01163 -0.0581,-0.01395 -0.0628,-0.0093 -0.0628,-0.007 -0.0651,-0.007 -0.0674,-0.0023 -0.0698,-0.0023 0,0.193023 c 0.42791,0 0.73721,0.218605 0.84884,0.625581 0.0837,0.295349 0.0837,0.776744 0.0837,1.118605 0,0.393023 0,0.86279 -0.086,1.211627 -0.15349,0.562791 -0.61396,0.646512 -0.84652,0.646512 l 0,0 c -0.21395,0 -0.70232,-0.07442 -0.84651,-0.65814 -0.0814,-0.311627 -0.0884,-0.727906 -0.0884,-1.199999 0,-0.427907 0,-0.827907 0.0953,-1.15814 0.14419,-0.486046 0.59302,-0.586046 0.83953,-0.586046 l 0,-0.193023 c -1.51162,0 -1.51162,1.588371 -1.51162,2.006976 0,0.42093 0,1.981395 1.51162,1.981395 1.51163,0 1.51163,-1.560465 1.51163,-1.981395 z"
         inkscape:connector-curvature="0"
         style="font-style:normal;font-variant:normal;font-weight:normal;font-stretch:normal;letter-spacing:normal;word-spacing:normal;text-anchor:start;fill:#000000;fill-opacity:1;fill-rule:evenodd;stroke:#000000;stroke-width:0;stroke-linecap:butt;stroke-linejoin:miter;stroke-miterlimit:10.43299961;stroke-dasharray:none;stroke-dashoffset:0;stroke-opacity:1" />
      <path
         id="path5958"
         d="m 111.31417,100.52649 0.0232,0 0.0256,0 0.0256,0 0.0302,0 0.0302,0 0.0326,-0.002 0.0349,0 0.0349,-0.002 0.0372,-0.002 0.0395,-0.002 0.0419,-0.002 0.0419,-0.002 0.0419,-0.002 0.0442,-0.002 0.0884,-0.009 0.093,-0.009 0.093,-0.0116 0.0953,-0.0139 0.093,-0.0163 0.0954,-0.0186 0.0442,-0.009 0.0465,-0.0116 0.0442,-0.0116 0.0442,-0.014 0.0419,-0.0116 0.0419,-0.014 c 0.6,-0.21162 0.71395,-0.599997 0.71395,-0.844183 0,-0.446511 -0.44884,-0.711627 -1.00698,-0.711627 l 0,0.225581 c 0.35582,0 0.65814,0.17907 0.65814,0.486046 0,0.786043 -1.37209,0.786043 -1.72093,0.786043 l -0.39534,0 c 0.33023,-1.174415 1.23255,-1.272089 1.45813,-1.272089 l 0,-0.225581 c -0.96976,0 -2.28604,0.744185 -2.28604,2.13023 0,0.81628 0.51163,1.52093 1.46046,1.52093 1.36977,0 2.00931,-0.79767 2.00931,-0.91395 0,-0.0488 -0.0721,-0.13954 -0.13721,-0.13954 -0.0488,0 -0.0651,0.0186 -0.13256,0.0837 -0.63023,0.74652 -1.57907,0.74652 -1.72558,0.74652 -0.48605,0 -0.80931,-0.32559 -0.80931,-0.9814 0,-0.11395 0,-0.27674 0.0977,-0.72093 z"
         inkscape:connector-curvature="0"
         style="font-style:normal;font-variant:normal;font-weight:normal;font-stretch:normal;letter-spacing:normal;word-spacing:normal;text-anchor:start;fill:#000000;fill-opacity:1;fill-rule:evenodd;stroke:#000000;stroke-width:0;stroke-linecap:butt;stroke-linejoin:miter;stroke-miterlimit:10.43299961;stroke-dasharray:none;stroke-dashoffset:0;stroke-opacity:1" />
      <path
         id="path5960"
         d="m 114.95835,101.61719 0,-0.0256 0.002,-0.0279 0,-0.0279 0,-0.0279 0,-0.0279 0.002,-0.0302 0,-0.0326 0.002,-0.0326 0.005,-0.0651 0.005,-0.0674 0.007,-0.0721 0.009,-0.0721 0.0116,-0.0744 0.014,-0.0744 0.0186,-0.0744 0.009,-0.0372 0.0116,-0.0372 0.0116,-0.0372 0.0116,-0.0395 0.014,-0.0372 0.014,-0.0349 0.0163,-0.0372 0.0163,-0.0372 0.0186,-0.0349 0.0186,-0.0372 c 0.16744,-0.31163 0.54418,-0.634881 1.08372,-0.634881 0.11163,0 0.36977,0.0093 0.54418,0.148841 -0.0907,0.0256 -0.24418,0.11162 -0.24418,0.3093 0,0.18372 0.13953,0.30465 0.3093,0.30465 0.0977,0 0.30465,-0.0512 0.30465,-0.32326 0,-0.31395 -0.21628,-0.662787 -0.9186,-0.662787 -1,0 -1.91163,0.818607 -1.91163,2.018607 0,1.38372 0.67674,1.96744 1.52325,1.96744 0.57442,0 0.84652,-0.21395 1.04186,-0.37675 0.3721,-0.30465 0.44652,-0.64651 0.44652,-0.9372 0,-0.35349 -0.11628,-0.63721 -0.41628,-0.90466 -0.25582,-0.23023 -0.52326,-0.38604 -1.02558,-0.38604 l -0.014,0.19767 c 0.29768,0 0.48372,0.0744 0.66047,0.30465 0.17442,0.21396 0.18139,0.45814 0.18139,0.78372 0,0.33489 0,0.55582 -0.18372,0.78605 -0.16511,0.19302 -0.36744,0.29768 -0.6907,0.29768 l 0,0 c -0.89534,0 -0.89534,-0.9628 -0.89534,-1.20698 0,-0.44651 0.32093,-0.96512 0.9279,-0.96512 l 0.014,-0.19767 c -0.33721,0 -0.71628,0.16046 -0.95582,0.57907 z"
         inkscape:connector-curvature="0"
         style="font-style:normal;font-variant:normal;font-weight:normal;font-stretch:normal;letter-spacing:normal;word-spacing:normal;text-anchor:start;fill:#000000;fill-opacity:1;fill-rule:evenodd;stroke:#000000;stroke-width:0;stroke-linecap:butt;stroke-linejoin:miter;stroke-miterlimit:10.43299961;stroke-dasharray:none;stroke-dashoffset:0;stroke-opacity:1" />
      <path
         id="path5962"
         d="m 130.18393,95.707887 0.0326,0 0.0349,0 0.0326,0 0.0186,-0.0023 0.0163,0 0.0163,-0.0023 0.0163,-0.0023 0.0163,-0.0023 0.0163,-0.0023 0.0163,-0.0023 0.0163,-0.0047 0.0139,-0.0047 0.014,-0.0047 0.0139,-0.0047 0.0139,-0.007 0.014,-0.007 0.0116,-0.0093 0.0116,-0.007 0.0116,-0.01163 0.009,-0.0093 0.009,-0.01163 0.005,-0.007 0.005,-0.007 0.002,-0.0047 0.005,-0.007 0.002,-0.007 0.005,-0.0093 0.002,-0.007 0.002,-0.0093 0.002,-0.007 0.002,-0.0093 0.002,-0.0093 0,-0.0093 0.002,-0.0093 0,-0.0093 0,-0.0093 0,-0.01163 c 0,-0.232558 -0.22093,-0.232558 -0.38139,-0.232558 l -6.93953,0 c -0.16512,0 -0.3814,0 -0.3814,0.232558 0,0.227907 0.21628,0.227907 0.3907,0.227907 z"
         inkscape:connector-curvature="0"
         style="font-style:normal;font-variant:normal;font-weight:normal;font-stretch:normal;letter-spacing:normal;word-spacing:normal;text-anchor:start;fill:#000000;fill-opacity:1;fill-rule:evenodd;stroke:#000000;stroke-width:0;stroke-linecap:butt;stroke-linejoin:miter;stroke-miterlimit:10.43299961;stroke-dasharray:none;stroke-dashoffset:0;stroke-opacity:1" />
      <path
         id="path5964"
         d="m 130.19556,97.959049 0.0163,0 0.0139,0 0.0326,-0.0023 0.0326,0 0.0163,0 0.0163,-0.0023 0.0163,-0.0023 0.0163,0 0.014,-0.0023 0.0163,-0.0047 0.0163,-0.0023 0.014,-0.0047 0.0163,-0.0047 0.0139,-0.0047 0.0139,-0.0047 0.014,-0.007 0.0116,-0.007 0.0116,-0.0093 0.0116,-0.0093 0.0116,-0.0093 0.009,-0.01163 0.005,-0.0047 0.005,-0.007 0.005,-0.0047 0.005,-0.007 0.002,-0.007 0.005,-0.007 0.002,-0.007 0.005,-0.007 0.002,-0.0093 0.002,-0.007 0.002,-0.0093 0.002,-0.0093 0.002,-0.0093 0,-0.0093 0.002,-0.0093 0,-0.0093 0,-0.01163 0,-0.0093 c 0,-0.232558 -0.22093,-0.232558 -0.39302,-0.232558 l -6.9186,0 c -0.17442,0 -0.3907,0 -0.3907,0.232558 0,0.232558 0.21628,0.232558 0.3814,0.232558 z"
         inkscape:connector-curvature="0"
         style="font-style:normal;font-variant:normal;font-weight:normal;font-stretch:normal;letter-spacing:normal;word-spacing:normal;text-anchor:start;fill:#000000;fill-opacity:1;fill-rule:evenodd;stroke:#000000;stroke-width:0;stroke-linecap:butt;stroke-linejoin:miter;stroke-miterlimit:10.43299961;stroke-dasharray:none;stroke-dashoffset:0;stroke-opacity:1" />
      <path
         id="path5966"
         d="m 137.85137,92.082306 0,-0.01163 0,-0.01395 0,-0.01163 0,-0.01163 0,-0.01163 0,-0.01163 0,-0.0093 0,-0.01163 0,-0.0093 -0.002,-0.0093 0,-0.0093 0,-0.0093 0,-0.0093 0,-0.007 -0.002,-0.0093 0,-0.007 -0.002,-0.01628 -0.002,-0.01395 -0.002,-0.01163 -0.002,-0.01163 -0.005,-0.01163 -0.005,-0.0093 -0.005,-0.0093 -0.005,-0.007 -0.007,-0.007 -0.007,-0.007 -0.009,-0.007 -0.009,-0.0047 -0.009,-0.0047 -0.007,-0.0023 -0.005,-0.0023 -0.007,0 -0.005,-0.0023 -0.007,-0.0023 -0.007,0 -0.007,-0.0023 -0.009,0 -0.007,-0.0023 -0.007,0 -0.009,0 -0.009,-0.0023 -0.009,0 -0.009,0 -0.009,0 -0.009,0 -0.009,0 -0.0116,-0.0023 -0.0116,0 -0.0116,0 -0.0116,0 -0.0116,0 c -0.72093,0.74186 -1.7372,0.74186 -2.10697,0.74186 l 0,0.360465 c 0.23256,0 0.91395,0 1.51395,-0.302325 l 0,6.002324 c 0,0.418605 -0.0326,0.555814 -1.07442,0.555814 l -0.37209,0 0,0.360465 c 0.40698,-0.03721 1.41395,-0.03721 1.87674,-0.03721 0.46512,0 1.46977,0 1.87675,0.03721 l 0,-0.360465 -0.36977,0 c -1.04186,0 -1.07907,-0.125582 -1.07907,-0.555814 z"
         inkscape:connector-curvature="0"
         style="font-style:normal;font-variant:normal;font-weight:normal;font-stretch:normal;letter-spacing:normal;word-spacing:normal;text-anchor:start;fill:#000000;fill-opacity:1;fill-rule:evenodd;stroke:#000000;stroke-width:0;stroke-linecap:butt;stroke-linejoin:miter;stroke-miterlimit:10.43299961;stroke-dasharray:none;stroke-dashoffset:0;stroke-opacity:1" />
    </g>
  </g>
</svg>
