<?xml version="1.0" encoding="UTF-8" standalone="no"?>
<svg
   xmlns:dc="http://purl.org/dc/elements/1.1/"
   xmlns:cc="http://creativecommons.org/ns#"
   xmlns:rdf="http://www.w3.org/1999/02/22-rdf-syntax-ns#"
   xmlns:svg="http://www.w3.org/2000/svg"
   xmlns="http://www.w3.org/2000/svg"
   xmlns:sodipodi="http://sodipodi.sourceforge.net/DTD/sodipodi-0.dtd"
   xmlns:inkscape="http://www.inkscape.org/namespaces/inkscape"
   width="141"
   height="141"
   version="1.1"
   content="%3CmxGraphModel%20dx%3D%22815%22%20dy%3D%22498%22%20grid%3D%221%22%20gridSize%3D%2210%22%20guides%3D%221%22%20tooltips%3D%221%22%20connect%3D%221%22%20arrows%3D%221%22%20fold%3D%221%22%20page%3D%221%22%20pageScale%3D%221%22%20pageWidth%3D%22826%22%20pageHeight%3D%221169%22%20background%3D%22%23ffffff%22%20math%3D%220%22%20shadow%3D%220%22%3E%3Croot%3E%3CmxCell%20id%3D%220%22%2F%3E%3CmxCell%20id%3D%221%22%20parent%3D%220%22%2F%3E%3CmxCell%20id%3D%2227%22%20style%3D%22edgeStyle%3Dnone%3Brounded%3D0%3Bhtml%3D1%3BexitX%3D1%3BexitY%3D1%3BstartArrow%3Dnone%3BstartFill%3D0%3BendArrow%3Dnone%3BendFill%3D0%3BjettySize%3Dauto%3BorthogonalLoop%3D1%3BstrokeColor%3D%23999999%3Bdashed%3D1%3B%22%20parent%3D%221%22%20source%3D%2212%22%20target%3D%2224%22%20edge%3D%221%22%3E%3CmxGeometry%20relative%3D%221%22%20as%3D%22geometry%22%2F%3E%3C%2FmxCell%3E%3CmxCell%20id%3D%2236%22%20value%3D%22%22%20style%3D%22edgeStyle%3Dnone%3Brounded%3D0%3Bhtml%3D1%3BstartArrow%3Dnone%3BstartFill%3D0%3BendArrow%3Dnone%3BendFill%3D0%3BjettySize%3Dauto%3BorthogonalLoop%3D1%3BstrokeColor%3D%23000000%3B%22%20parent%3D%221%22%20source%3D%2212%22%20target%3D%2235%22%20edge%3D%221%22%3E%3CmxGeometry%20relative%3D%221%22%20as%3D%22geometry%22%2F%3E%3C%2FmxCell%3E%3CmxCell%20id%3D%2212%22%20value%3D%22%22%20style%3D%22ellipse%3BwhiteSpace%3Dwrap%3BfillColor%3Dnone%22%20parent%3D%221%22%20vertex%3D%221%22%3E%3CmxGeometry%20x%3D%2280%22%20y%3D%2220%22%20width%3D%2220%22%20height%3D%2220%22%20as%3D%22geometry%22%2F%3E%3C%2FmxCell%3E%3CmxCell%20id%3D%2237%22%20style%3D%22edgeStyle%3Dnone%3Brounded%3D0%3Bhtml%3D1%3BexitX%3D1%3BexitY%3D1%3BentryX%3D0%3BentryY%3D0%3BstartArrow%3Dnone%3BstartFill%3D0%3BendArrow%3Dnone%3BendFill%3D0%3BjettySize%3Dauto%3BorthogonalLoop%3D1%3BstrokeColor%3D%23000000%3B%22%20parent%3D%221%22%20source%3D%2235%22%20target%3D%2214%22%20edge%3D%221%22%3E%3CmxGeometry%20relative%3D%221%22%20as%3D%22geometry%22%2F%3E%3C%2FmxCell%3E%3CmxCell%20id%3D%2235%22%20value%3D%22%22%20style%3D%22ellipse%3BwhiteSpace%3Dwrap%3BfillColor%3Dnone%22%20parent%3D%221%22%20vertex%3D%221%22%3E%3CmxGeometry%20x%3D%2220%22%20y%3D%2280%22%20width%3D%2220%22%20height%3D%2220%22%20as%3D%22geometry%22%2F%3E%3C%2FmxCell%3E%3CmxCell%20id%3D%2214%22%20value%3D%22%22%20style%3D%22ellipse%3BwhiteSpace%3Dwrap%22%20parent%3D%221%22%20vertex%3D%221%22%3E%3CmxGeometry%20x%3D%2280%22%20y%3D%22140%22%20width%3D%2220%22%20height%3D%2220%22%20as%3D%22geometry%22%2F%3E%3C%2FmxCell%3E%3CmxCell%20id%3D%2228%22%20style%3D%22edgeStyle%3Dnone%3Brounded%3D0%3Bhtml%3D1%3BexitX%3D0%3BexitY%3D1%3BentryX%3D1%3BentryY%3D0%3BstartArrow%3Dnone%3BstartFill%3D0%3BendArrow%3Dnone%3BendFill%3D0%3BjettySize%3Dauto%3BorthogonalLoop%3D1%3BstrokeColor%3D%23000000%3B%22%20parent%3D%221%22%20source%3D%2224%22%20target%3D%2214%22%20edge%3D%221%22%3E%3CmxGeometry%20relative%3D%221%22%20as%3D%22geometry%22%2F%3E%3C%2FmxCell%3E%3CmxCell%20id%3D%2224%22%20value%3D%22%22%20style%3D%22ellipse%3BwhiteSpace%3Dwrap%22%20parent%3D%221%22%20vertex%3D%221%22%3E%3CmxGeometry%20x%3D%22140%22%20y%3D%2280%22%20width%3D%2220%22%20height%3D%2220%22%20as%3D%22geometry%22%2F%3E%3C%2FmxCell%3E%3CmxCell%20id%3D%2231%22%20style%3D%22edgeStyle%3Dnone%3Brounded%3D0%3Bhtml%3D1%3BexitX%3D0.5%3BexitY%3D0%3BentryX%3D0.5%3BentryY%3D1%3BstartArrow%3Dnone%3BstartFill%3D0%3BendArrow%3Dnone%3BendFill%3D0%3BjettySize%3Dauto%3BorthogonalLoop%3D1%3BstrokeColor%3D%23999999%3Bdashed%3D1%3B%22%20parent%3D%221%22%20source%3D%2229%22%20target%3D%2212%22%20edge%3D%221%22%3E%3CmxGeometry%20relative%3D%221%22%20as%3D%22geometry%22%2F%3E%3C%2FmxCell%3E%3CmxCell%20id%3D%2233%22%20style%3D%22edgeStyle%3Dnone%3Brounded%3D0%3Bhtml%3D1%3BexitX%3D0.5%3BexitY%3D1%3BentryX%3D0.5%3BentryY%3D0%3BstartArrow%3Dnone%3BstartFill%3D0%3BendArrow%3Dnone%3BendFill%3D0%3BjettySize%3Dauto%3BorthogonalLoop%3D1%3BstrokeColor%3D%23000000%3B%22%20parent%3D%221%22%20source%3D%2229%22%20target%3D%2214%22%20edge%3D%221%22%3E%3CmxGeometry%20relative%3D%221%22%20as%3D%22geometry%22%2F%3E%3C%2FmxCell%3E%3CmxCell%20id%3D%2229%22%20value%3D%22%22%20style%3D%22ellipse%3BwhiteSpace%3Dwrap%3BfillColor%3Dnone%22%20parent%3D%221%22%20vertex%3D%221%22%3E%3CmxGeometry%20x%3D%2280%22%20y%3D%2280%22%20width%3D%2220%22%20height%3D%2220%22%20as%3D%22geometry%22%2F%3E%3C%2FmxCell%3E%3C%2Froot%3E%3C%2FmxGraphModel%3E"
   id="svg2"
   inkscape:version="0.91 r13725"
   sodipodi:docname="d2.svg">
  <metadata
     id="metadata32">
    <rdf:RDF>
      <cc:Work
         rdf:about="">
        <dc:format>image/svg+xml</dc:format>
        <dc:type
           rdf:resource="http://purl.org/dc/dcmitype/StillImage" />
        <dc:title></dc:title>
      </cc:Work>
    </rdf:RDF>
  </metadata>
  <sodipodi:namedview
     pagecolor="#ffffff"
     bordercolor="#666666"
     borderopacity="1"
     objecttolerance="10"
     gridtolerance="10"
     guidetolerance="10"
     inkscape:pageopacity="0"
     inkscape:pageshadow="2"
     inkscape:window-width="1301"
     inkscape:window-height="744"
     id="namedview30"
     showgrid="false"
     fit-margin-top="0"
     fit-margin-left="0"
     fit-margin-right="0"
     fit-margin-bottom="0"
     inkscape:zoom="2.52"
     inkscape:cx="30.1401"
     inkscape:cy="70.5"
     inkscape:window-x="65"
     inkscape:window-y="24"
     inkscape:window-maximized="1"
     inkscape:current-layer="g6" />
  <defs
     id="defs4" />
  <g
     transform="translate(-0.5,-0.5)"
     id="g6"
     style="fill:none">
    <path
       d="m 78,18 45.93,45.93"
       stroke-miterlimit="10"
       pointer-events="none"
       id="path8"
       style="fill:none;stroke:#999999;stroke-miterlimit:10;stroke-dasharray:3, 3"
       inkscape:connector-curvature="0" />
    <path
       d="M 63.93,18.07 18.07,63.93"
       stroke-miterlimit="10"
       pointer-events="none"
       id="path10"
       style="fill:none;stroke:#000000;stroke-miterlimit:10"
       inkscape:connector-curvature="0" />
    <path
       d="m 18,78 46,46"
       stroke-miterlimit="10"
       pointer-events="none"
       id="path14"
       style="fill:none;stroke:#000000;stroke-miterlimit:10"
       inkscape:connector-curvature="0" />
    <path
       d="M 124,78 78,124"
       stroke-miterlimit="10"
       pointer-events="none"
       id="path20"
       style="fill:none;stroke:#000000;stroke-miterlimit:10"
       inkscape:connector-curvature="0" />
    <path
       d="M 71,61 71,21"
       stroke-miterlimit="10"
       pointer-events="none"
       id="path24"
       style="fill:none;stroke:#999999;stroke-miterlimit:10;stroke-dasharray:3, 3"
       inkscape:connector-curvature="0" />
    <path
       d="m 71,81 0,40"
       stroke-miterlimit="10"
       pointer-events="none"
       id="path26"
       style="fill:none;stroke:#000000;stroke-miterlimit:10"
       inkscape:connector-curvature="0" />
    <circle
       cx="71"
       cy="11"
       pointer-events="none"
       id="ellipse12"
       style="fill:none;stroke:#000000"
       r="10" />
    <circle
       cx="11"
       cy="71"
       pointer-events="none"
       id="ellipse16"
       style="fill:none;stroke:#000000"
       r="10" />
    <circle
       cx="71"
       cy="131"
       pointer-events="none"
       id="ellipse18"
       style="fill:none;stroke:#000000"
       r="10" />
    <circle
       cx="131"
       cy="71"
       pointer-events="none"
       id="ellipse22"
       style="fill:none;stroke:#000000"
       r="10" />
    <circle
       cx="71"
       cy="71"
       pointer-events="none"
       id="ellipse28"
       style="fill:none;stroke:#000000"
       r="10" />
  </g>
  <path
     style="font-style:normal;font-variant:normal;font-weight:normal;font-stretch:normal;letter-spacing:normal;word-spacing:normal;text-anchor:start;fill:#000000;fill-opacity:1;fill-rule:evenodd;stroke:#000000;stroke-width:0;stroke-linecap:butt;stroke-linejoin:miter;stroke-miterlimit:10.43299961;stroke-dasharray:none;stroke-dashoffset:0;stroke-opacity:1"
     inkscape:connector-curvature="0"
     id="path5613"
     d="m 10.978454,66.813357 0,-0.01205 0,-0.01446 0,-0.01205 0,-0.01205 0,-0.01205 0,-0.01205 0,-0.0096 0,-0.01205 0,-0.0096 0,-0.0096 -0.0024,-0.0096 0,-0.0096 0,-0.0096 0,-0.0072 0,-0.0096 -0.0024,-0.0072 -0.0024,-0.01687 0,-0.01446 -0.0048,-0.01205 -0.0024,-0.01205 -0.0048,-0.01205 -0.0048,-0.0096 -0.0048,-0.0096 -0.0048,-0.0072 -0.0072,-0.0072 -0.0072,-0.0072 -0.0096,-0.0072 -0.0096,-0.0048 -0.0096,-0.0048 -0.0072,-0.0024 -0.0048,-0.0024 -0.0072,0 -0.0048,-0.0024 -0.0072,-0.0024 -0.0072,0 -0.0072,-0.0024 -0.0072,0 -0.0096,-0.0024 -0.0072,0 -0.0096,0 -0.0072,-0.0024 -0.0096,0 -0.0096,0 -0.01205,0 -0.0096,0 -0.0096,0 -0.01205,-0.0024 -0.01205,0 -0.01205,0 -0.01205,0 -0.01205,0 c -0.744803,0.768906 -1.800542,0.768906 -2.18379,0.768906 l 0,0.373606 c 0.241037,0 0.947273,0 1.569147,-0.313347 l 0,6.221149 c 0,0.433866 -0.03374,0.576077 -1.113588,0.576077 l -0.385658,0 0,0.373606 c 0.421813,-0.03857 1.465501,-0.03857 1.945163,-0.03857 0.482073,0 1.52335,0 1.945164,0.03857 l 0,-0.373606 -0.383248,0 c -1.079843,0 -1.118409,-0.13016 -1.118409,-0.576077 z" />
  <path
     style="font-style:normal;font-variant:normal;font-weight:normal;font-stretch:normal;letter-spacing:normal;word-spacing:normal;text-anchor:start;fill:#000000;fill-opacity:1;fill-rule:evenodd;stroke:#000000;stroke-width:0;stroke-linecap:butt;stroke-linejoin:miter;stroke-miterlimit:10.43299961;stroke-dasharray:none;stroke-dashoffset:0;stroke-opacity:1"
     inkscape:connector-curvature="0"
     d="m 69.030885,13.574439 1.272672,-1.236517 c 1.870442,-1.65592 2.593552,-2.304308 2.593552,-3.5046695 0,-1.371498 -1.079843,-2.333233 -2.545345,-2.333233 -1.359445,0 -2.248869,1.108768 -2.248869,2.176559 0,0.672491 0.602591,0.672491 0.636336,0.672491 0.207291,0 0.626695,-0.144621 0.626695,-0.636336 0,-0.313347 -0.214523,-0.626694 -0.636336,-0.626694 -0.094,0 -0.120519,0 -0.154264,0.01205 0.274782,-0.780958 0.92317,-1.224465 1.619765,-1.224465 1.091895,0 1.610123,0.976197 1.610123,1.959626 0,0.959324 -0.602591,1.9090085 -1.26062,2.6538115 l -2.304308,2.569448 c -0.137391,0.130159 -0.137391,0.154263 -0.137391,0.443506 l 4.456763,0 0.337451,-2.089785 -0.301296,0 c -0.06026,0.361555 -0.142211,0.889424 -0.262729,1.070202 -0.08677,0.094 -0.877373,0.094 -1.140103,0.094 z"
     id="path5843" />
  <path
     style="font-style:normal;font-variant:normal;font-weight:normal;font-stretch:normal;letter-spacing:normal;word-spacing:normal;text-anchor:start;fill:#000000;fill-opacity:1;fill-rule:evenodd;stroke:#000000;stroke-width:0;stroke-linecap:butt;stroke-linejoin:miter;stroke-miterlimit:10.43299961;stroke-dasharray:none;stroke-dashoffset:0;stroke-opacity:1"
     inkscape:connector-curvature="0"
     id="path6079"
     d="m 130.97141,70.15462 0.0887,-0.03034 0.0864,-0.03501 0.0863,-0.035 0.0817,-0.03967 0.0817,-0.04201 0.0794,-0.04434 0.077,-0.04668 0.0747,-0.05134 0.0723,-0.05134 0.0724,-0.05367 0.0677,-0.05601 0.0653,-0.05834 0.063,-0.06068 0.0607,-0.06301 0.0583,-0.06301 0.056,-0.06768 0.0513,-0.06768 0.049,-0.07001 0.0467,-0.07001 0.0443,-0.07468 0.042,-0.07468 0.0373,-0.07468 0.0327,-0.07701 0.0327,-0.07935 0.0257,-0.07935 0.0257,-0.07935 0.021,-0.08168 0.0163,-0.08401 0.014,-0.08401 0.009,-0.08401 0.005,-0.08401 0.002,-0.08635 c 0,-0.952158 -1.02451,-1.6056 -2.14003,-1.6056 -1.17386,0 -2.05601,0.700116 -2.05601,1.582263 0,0.385064 0.25438,0.606767 0.59277,0.606767 0.35939,0 0.59277,-0.256709 0.59277,-0.595099 0,-0.578762 -0.54843,-0.578762 -0.71879,-0.578762 0.35706,-0.569429 1.12719,-0.723454 1.54492,-0.723454 0.47375,0 1.11552,0.256709 1.11552,1.302216 0,0.142357 -0.0257,0.814469 -0.32672,1.327888 -0.34772,0.55776 -0.74446,0.590432 -1.0315,0.604434 -0.0957,0.01167 -0.3734,0.03267 -0.45741,0.03267 -0.091,0.01167 -0.17503,0.02334 -0.17503,0.140023 0,0.126021 0.084,0.126021 0.28238,0.126021 l 0.50875,0 c 0.95682,0 1.38623,0.791132 1.38623,1.934656 0,1.577595 -0.8028,1.915985 -1.31622,1.915985 -0.49942,0 -1.37223,-0.196033 -1.77596,-0.882147 0.40373,0.05601 0.76546,-0.2007 0.76546,-0.641773 0,-0.417736 -0.31272,-0.648775 -0.65344,-0.648775 -0.27538,0 -0.64878,0.161027 -0.64878,0.674446 0,1.057176 1.08052,1.822636 2.35006,1.822636 1.41657,0 2.47608,-1.057176 2.47608,-2.240372 0,-0.956826 -0.73512,-1.859977 -1.94166,-2.105017 z" />
  <path
     style="font-style:normal;font-variant:normal;font-weight:normal;font-stretch:normal;letter-spacing:normal;word-spacing:normal;text-anchor:start;fill:#000000;fill-opacity:1;fill-rule:evenodd;stroke:#000000;stroke-width:0;stroke-linecap:butt;stroke-linejoin:miter;stroke-miterlimit:10.43299961;stroke-dasharray:none;stroke-dashoffset:0;stroke-opacity:1"
     inkscape:connector-curvature="0"
     d="m 71.024161,132.55041 0,1.02697 c 0,0.42692 -0.02135,0.555 -0.896531,0.555 l -0.249036,0 0,0.36763 c 0.486214,-0.0379 1.100503,-0.0379 1.598576,-0.0379 0.495701,0 1.12185,0 1.60332,0.0379 l 0,-0.36763 -0.246664,0 c -0.875186,0 -0.898903,-0.12808 -0.898903,-0.555 l 0,-1.02697 1.183516,0 0,-0.36526 -1.183516,0 0,-5.37917 c 0,-0.23718 0,-0.30596 -0.18737,-0.30596 -0.109102,0 -0.142307,0 -0.237178,0.14468 l -3.628816,5.54045 0.33442,0 2.881707,-4.40675 0,4.40675 -2.881707,0 -0.33442,0 0,0.36526 z"
     id="path6321" />
  <path
     style="font-style:normal;font-variant:normal;font-weight:normal;font-stretch:normal;letter-spacing:normal;word-spacing:normal;text-anchor:start;fill:#000000;fill-opacity:1;fill-rule:evenodd;stroke:#000000;stroke-width:0;stroke-linecap:butt;stroke-linejoin:miter;stroke-miterlimit:10.43299961;stroke-dasharray:none;stroke-dashoffset:0;stroke-opacity:1"
     inkscape:connector-curvature="0"
     id="path6569"
     d="m 72.820888,71.909578 -0.0023,-0.130688 -0.007,-0.126021 -0.014,-0.126021 -0.01867,-0.123687 -0.02334,-0.123688 -0.03034,-0.119019 -0.03267,-0.116686 -0.03967,-0.116687 -0.04201,-0.112018 -0.04901,-0.109685 -0.05134,-0.107351 -0.05601,-0.102684 -0.06068,-0.10035 -0.06534,-0.09568 -0.06768,-0.09335 -0.07234,-0.08868 -0.07701,-0.08401 -0.07935,-0.08168 -0.08401,-0.07468 -0.08635,-0.07235 -0.08868,-0.06768 -0.09335,-0.06068 -0.09568,-0.05834 -0.09802,-0.05134 -0.10035,-0.04668 -0.102684,-0.03967 -0.107351,-0.03501 -0.107351,-0.03034 -0.112019,-0.021 -0.112019,-0.01634 -0.114352,-0.01167 -0.116686,-0.0023 c -0.55776,0 -1.05951,0.186698 -1.477246,0.590432 l 0,-2.26371 c 0.233372,0.06768 0.616103,0.149358 0.987164,0.149358 1.430572,0 2.242707,-1.057176 2.242707,-1.211202 0,-0.07001 -0.03267,-0.128354 -0.116686,-0.128354 -0.01167,0 -0.03267,0 -0.09101,0.03734 -0.233373,0.105018 -0.802801,0.336056 -1.582264,0.336056 -0.462077,0 -0.998832,-0.08168 -1.547257,-0.324387 -0.09101,-0.03267 -0.116686,-0.03267 -0.13769,-0.03267 -0.116686,0 -0.116686,0.09101 -0.116686,0.275379 l 0,3.442239 c 0,0.207701 0,0.303384 0.163361,0.303384 0.08168,0 0.102684,-0.03734 0.149358,-0.105017 0.128355,-0.186698 0.560093,-0.814469 1.500583,-0.814469 0.604434,0 0.896149,0.536756 0.987164,0.744457 0.189032,0.429405 0.212369,0.882147 0.212369,1.465577 0,0.406068 0,1.106184 -0.28238,1.593932 -0.27538,0.452742 -0.707118,0.753792 -1.24154,0.753792 -0.849475,0 -1.509918,-0.616103 -1.710618,-1.299883 0.03501,0.0093 0.07234,0.021 0.2007,0.021 0.38273,0 0.578763,-0.291716 0.578763,-0.569429 0,-0.280046 -0.196033,-0.569428 -0.578763,-0.569428 -0.165694,0 -0.574096,0.08168 -0.574096,0.618437 0,0.998832 0.802801,2.123686 2.109685,2.123686 1.344223,0 2.532088,-1.115519 2.532088,-2.590431 z" />
  <g
     id="g6037"
     transform="translate(3.080645,-6.1128955)">
    <rect
       y="36.612904"
       x="19.677877"
       height="12"
       width="35.482956"
       id="rect5819"
       style="fill:#ffffff;fill-opacity:1;stroke:none;stroke-width:1.24600005;stroke-miterlimit:4;stroke-dasharray:none;stroke-opacity:1" />
    <g
       transform="matrix(1.0695244,0,0,1.0695244,-39.718502,18.79681)"
       id="g4395">
      <g
         style="font-style:normal;font-variant:normal;font-weight:normal;font-stretch:normal;letter-spacing:normal;word-spacing:normal;text-anchor:start;fill:none;fill-opacity:1;fill-rule:evenodd;stroke:#000000;stroke-linecap:butt;stroke-linejoin:miter;stroke-miterlimit:10.43299961;stroke-dasharray:none;stroke-dashoffset:0;stroke-opacity:1"
         word-spacing="normal"
         letter-spacing="normal"
         font-size-adjust="none"
         font-stretch="normal"
         font-weight="normal"
         font-variant="normal"
         font-style="normal"
         stroke-miterlimit="10.433"
         xml:space="preserve"
         transform="matrix(0.20142857,0,0,-0.20142857,-35.25,105.75)"
         id="content"><path
           style="fill:#000000;stroke-width:0"
           inkscape:connector-curvature="0"
           id="path4398"
           d="m 475.25,425.14 -0.14,0 -0.15,0 -0.15,-0.01 -0.14,0 -0.14,-0.01 -0.14,-0.02 -0.07,-0.01 -0.07,-0.01 -0.06,-0.02 -0.07,-0.01 -0.07,-0.02 -0.07,-0.02 -0.07,-0.02 -0.06,-0.02 -0.07,-0.03 -0.07,-0.03 -0.06,-0.03 -0.07,-0.04 -0.07,-0.04 -0.06,-0.04 -0.07,-0.05 -0.07,-0.04 -0.06,-0.06 -0.07,-0.05 -0.06,-0.06 -0.07,-0.07 c -0.8,-0.75 -0.89,-1.59 -0.89,-1.93 0,-1.21 0.89,-1.75 1.84,-1.75 1.44,0 2.8,1.2 2.8,3.18 0,2.44 -2.34,4.28 -5.89,4.28 -6.72,0 -13.34,-7.12 -13.34,-14.14 0,-4.48 2.89,-8.42 8.06,-8.42 7.12,0 11.31,5.28 11.31,5.88 0,0.29 -0.3,0.65 -0.59,0.65 -0.25,0 -0.35,-0.11 -0.66,-0.5 -3.94,-4.93 -9.36,-4.93 -9.95,-4.93 -3.14,0 -4.49,2.43 -4.49,5.43 0,2.03 0.99,6.88 2.69,9.96 1.55,2.84 4.28,4.98 7.02,4.98 1.7,0 3.59,-0.64 4.29,-1.98 z" /><path
           style="fill:#000000;stroke-width:0"
           inkscape:connector-curvature="0"
           id="path4400"
           d="m 492.17,438.87 0,0.06 0,0.07 0,0.06 0,0.06 -0.01,0.05 0,0.06 0,0.05 0,0.05 -0.01,0.05 -0.01,0.05 -0.01,0.05 -0.01,0.04 -0.01,0.05 -0.01,0.04 -0.02,0.04 -0.02,0.03 -0.02,0.04 -0.02,0.03 -0.03,0.03 -0.02,0.03 -0.04,0.03 -0.03,0.02 -0.04,0.02 -0.02,0.01 -0.02,0.01 -0.02,0.01 -0.03,0.01 -0.02,0.01 -0.03,0.01 -0.02,0 -0.03,0.01 -0.03,0.01 -0.03,0 -0.03,0.01 -0.03,0 -0.03,0 -0.03,0.01 -0.04,0 -0.03,0 -0.04,0 -0.04,0 c -0.25,0 -0.34,0 -0.91,-0.28 -0.07,-0.03 -0.53,-0.24 -0.65,-0.24 -0.05,0 -0.11,0 -0.25,0.07 -1.44,0.45 -2.89,0.45 -3.63,0.45 -1.01,0 -3.14,0 -4.87,-0.94 -1.99,-1.11 -2.27,-2.92 -2.27,-3.73 0,-3.75 4.6,-4.45 7.03,-4.85 2.13,-0.31 4.67,-0.68 4.67,-2.5 0,-2.37 -3.45,-2.37 -4.28,-2.37 -3.31,0 -4.53,1.5 -5.18,3.39 -0.22,0.58 -0.25,0.66 -1.13,0.66 -1,0 -1.11,-0.11 -1.11,-1.11 l 0,-3.42 c 0,-0.71 0,-1.11 0.8,-1.11 0.31,0 0.39,0 1.11,0.45 0.22,0.09 0.78,0.41 0.98,0.55 1.81,-1 3.69,-1 4.5,-1 1.14,0 7.14,0 7.14,5.15 0,1.6 -0.84,2.72 -1.64,3.38 -1.64,1.36 -3.14,1.61 -6.03,2.06 -1.98,0.31 -4.05,0.62 -4.05,2.02 0,1.95 3.49,1.95 4.22,1.95 3.94,0 4.08,-1.61 4.19,-2.44 0.06,-0.7 0.28,-0.76 1.08,-0.76 1.01,0 1.11,0.09 1.11,1.1 z" /><path
           style="fill:#000000;stroke-width:0"
           inkscape:connector-curvature="0"
           id="path4402"
           d="m 509.67,424.09 -1.05,0 c -0.07,-0.48 -0.32,-2.01 -0.71,-2.26 -0.21,-0.16 -2.3,-0.16 -2.68,-0.16 l -4.87,0 c 1.64,1.22 3.48,2.61 4.98,3.61 2.24,1.55 4.33,3 4.33,5.64 0,3.19 -3.01,4.96 -6.58,4.96 -3.36,0 -5.82,-1.96 -5.82,-4.4 0,-1.29 1.09,-1.51 1.45,-1.51 0.67,0 1.47,0.45 1.47,1.47 0,0.89 -0.66,1.39 -1.42,1.47 0.68,1.12 2.14,1.87 3.81,1.87 2.4,0 4.42,-1.45 4.42,-3.89 0,-2.09 -1.44,-3.69 -3.36,-5.31 l -6.08,-5.16 c -0.25,-0.22 -0.26,-0.22 -0.29,-0.39 l 0,-0.75 11.57,0 z" /><path
           style="fill:#000000;stroke-width:0"
           inkscape:connector-curvature="0"
           id="path4404"
           d="m 484.93,401.78 0.1,0 0.11,0 0.11,0 0.13,0 0.13,0 0.14,0.01 0.15,0 0.15,0.01 0.16,0.01 0.17,0.01 0.18,0.01 0.18,0.01 0.18,0.01 0.19,0.01 0.38,0.04 0.4,0.04 0.4,0.05 0.41,0.06 0.4,0.07 0.41,0.08 0.19,0.04 0.2,0.05 0.19,0.05 0.19,0.06 0.18,0.05 0.18,0.06 c 2.58,0.91 3.07,2.58 3.07,3.63 0,1.92 -1.93,3.06 -4.33,3.06 l 0,-0.97 c 1.53,0 2.83,-0.77 2.83,-2.09 0,-3.38 -5.9,-3.38 -7.4,-3.38 l -1.7,0 c 1.42,5.05 5.3,5.47 6.27,5.47 l 0,0.97 c -4.17,0 -9.83,-3.2 -9.83,-9.16 0,-3.51 2.2,-6.54 6.28,-6.54 5.89,0 8.64,3.43 8.64,3.93 0,0.21 -0.31,0.6 -0.59,0.6 -0.21,0 -0.28,-0.08 -0.57,-0.36 -2.71,-3.21 -6.79,-3.21 -7.42,-3.21 -2.09,0 -3.48,1.4 -3.48,4.22 0,0.49 0,1.19 0.42,3.1 z" /><path
           style="fill:#000000;stroke-width:0"
           inkscape:connector-curvature="0"
           id="path4406"
           d="m 505.88,404.77 0,0.03 0,0.03 0,0.04 0,0.03 0,0.03 0,0.03 0,0.03 0,0.02 0,0.03 -0.01,0.03 0,0.02 0,0.02 0,0.03 -0.01,0.02 0,0.02 0,0.02 -0.01,0.02 0,0.02 -0.01,0.03 -0.01,0.03 -0.02,0.03 -0.01,0.03 -0.02,0.02 -0.02,0.02 -0.02,0.02 -0.02,0.02 -0.03,0.01 -0.03,0.02 -0.03,0.01 -0.04,0.01 -0.04,0 -0.04,0.01 -0.02,0 -0.02,0 -0.03,0.01 -0.02,0 -0.03,0 -0.02,0 -0.03,0 -0.03,0 -0.03,0 -0.03,0 -0.03,0.01 -0.03,0 -0.03,0 -0.04,0 -0.03,0 -0.04,0 -0.03,0 -0.04,0 c -1.77,-1.6 -4.53,-1.6 -5.03,-1.6 l -0.43,0 0,-1.09 0.43,0 c 0.57,0 2.18,0.06 3.64,0.69 l 0,-12.46 c 0,-0.76 0,-1.04 -2.64,-1.04 l -1.25,0 0,-1.1 c 1.37,0.1 3.59,0.1 5.03,0.1 1.45,0 3.67,0 5.03,-0.1 l 0,1.1 -1.24,0 c -2.64,0 -2.64,0.28 -2.64,1.04 z" /><path
           style="fill:#000000;stroke-width:0"
           inkscape:connector-curvature="0"
           id="path4408"
           d="m 566.07,422.5 0.14,0 0.15,0 0.14,0 0.08,0.01 0.07,0 0.07,0.01 0.07,0.01 0.07,0.01 0.07,0.01 0.07,0.01 0.07,0.02 0.06,0.02 0.06,0.02 0.06,0.02 0.06,0.03 0.06,0.03 0.05,0.04 0.05,0.03 0.05,0.05 0.04,0.04 0.04,0.05 0.02,0.03 0.02,0.03 0.01,0.02 0.02,0.03 0.01,0.03 0.02,0.04 0.01,0.03 0.01,0.04 0.01,0.03 0.01,0.04 0.01,0.04 0,0.04 0.01,0.04 0,0.04 0,0.04 0,0.05 c 0,1 -0.95,1 -1.64,1 l -29.84,0 c -0.71,0 -1.64,0 -1.64,-1 0,-0.98 0.93,-0.98 1.68,-0.98 z" /><path
           style="fill:#000000;stroke-width:0"
           inkscape:connector-curvature="0"
           id="path4410"
           d="m 566.12,412.82 0.07,0 0.06,0 0.14,0.01 0.14,0 0.07,0 0.07,0.01 0.07,0.01 0.07,0 0.06,0.01 0.07,0.02 0.07,0.01 0.06,0.02 0.07,0.02 0.06,0.02 0.06,0.02 0.06,0.03 0.05,0.03 0.05,0.04 0.05,0.04 0.05,0.04 0.04,0.05 0.02,0.02 0.02,0.03 0.02,0.02 0.02,0.03 0.01,0.03 0.02,0.03 0.01,0.03 0.02,0.03 0.01,0.04 0.01,0.03 0.01,0.04 0.01,0.04 0.01,0.04 0,0.04 0.01,0.04 0,0.04 0,0.05 0,0.04 c 0,1 -0.95,1 -1.69,1 l -29.75,0 c -0.75,0 -1.68,0 -1.68,-1 0,-1 0.93,-1 1.64,-1 z" /><path
           style="fill:#000000;stroke-width:0"
           inkscape:connector-curvature="0"
           id="path4412"
           d="m 608.12,436.54 0.04,0.06 0.03,0.05 0.04,0.05 0.03,0.05 0.03,0.04 0.03,0.04 0.03,0.05 0.02,0.04 0.02,0.04 0.02,0.04 0.02,0.04 0.02,0.04 0.01,0.04 0.02,0.04 0.01,0.04 0.01,0.04 0.01,0.04 0.01,0.05 0.01,0.05 0,0.04 0.01,0.06 0,0.05 0.01,0.06 0,0.06 0,0.06 0,0.07 0,0.07 0,0.08 0,0.08 0,0.08 0,0.09 0,0.05 0,0.05 -12.09,0 c -6.08,0 -6.19,0.65 -6.39,1.59 l -1.23,0 -1.64,-10.25 1.23,0 c 0.16,0.8 0.61,3.94 1.25,4.53 0.34,0.3 4.23,0.3 4.87,0.3 l 10.33,0 c -0.56,-0.8 -4.48,-6.24 -5.59,-7.88 -4.49,-6.71 -6.13,-13.65 -6.13,-18.73 0,-0.5 0,-2.73 2.3,-2.73 2.3,0 2.3,2.23 2.3,2.73 l 0,2.55 c 0,2.73 0.14,5.48 0.54,8.17 0.19,1.14 0.9,5.42 3.08,8.51 z" /></g>    </g>
  </g>
  <g
     id="g6089"
     transform="translate(-10.180159,-13.693538)">
    <rect
       y="44.193546"
       x="93.250984"
       height="12"
       width="34.788361"
       id="rect5825"
       style="fill:#ffffff;fill-opacity:1;stroke:none;stroke-width:1.24600005;stroke-miterlimit:4;stroke-dasharray:none;stroke-opacity:1" />
    <g
       transform="matrix(1.0583318,0,0,1.0583318,34.462715,26.569131)"
       id="g5362">
      <g
         style="font-style:normal;font-variant:normal;font-weight:normal;font-stretch:normal;letter-spacing:normal;word-spacing:normal;text-anchor:start;fill:#999999;fill-opacity:1;fill-rule:evenodd;stroke:#000000;stroke-linecap:butt;stroke-linejoin:miter;stroke-miterlimit:10.43299961;stroke-dasharray:none;stroke-dashoffset:0;stroke-opacity:1"
         word-spacing="normal"
         letter-spacing="normal"
         font-size-adjust="none"
         font-stretch="normal"
         font-weight="normal"
         font-variant="normal"
         font-style="normal"
         stroke-miterlimit="10.433"
         xml:space="preserve"
         transform="matrix(0.20142857,0,0,-0.20142857,-35.25,105.75)"
         id="g5364"><path
           style="fill:#999999;fill-opacity:1;stroke-width:0"
           inkscape:connector-curvature="0"
           id="path5366"
           d="m 475.25,425.14 -0.14,0 -0.15,0 -0.15,-0.01 -0.14,0 -0.14,-0.01 -0.14,-0.02 -0.07,-0.01 -0.07,-0.01 -0.06,-0.02 -0.07,-0.01 -0.07,-0.02 -0.07,-0.02 -0.07,-0.02 -0.06,-0.02 -0.07,-0.03 -0.07,-0.03 -0.06,-0.03 -0.07,-0.04 -0.07,-0.04 -0.06,-0.04 -0.07,-0.05 -0.07,-0.04 -0.06,-0.06 -0.07,-0.05 -0.06,-0.06 -0.07,-0.07 c -0.8,-0.75 -0.89,-1.59 -0.89,-1.93 0,-1.21 0.89,-1.75 1.84,-1.75 1.44,0 2.8,1.2 2.8,3.18 0,2.44 -2.34,4.28 -5.89,4.28 -6.72,0 -13.34,-7.12 -13.34,-14.14 0,-4.48 2.89,-8.42 8.06,-8.42 7.12,0 11.31,5.28 11.31,5.88 0,0.29 -0.3,0.65 -0.59,0.65 -0.25,0 -0.35,-0.11 -0.66,-0.5 -3.94,-4.93 -9.36,-4.93 -9.95,-4.93 -3.14,0 -4.49,2.43 -4.49,5.43 0,2.03 0.99,6.88 2.69,9.96 1.55,2.84 4.28,4.98 7.02,4.98 1.7,0 3.59,-0.64 4.29,-1.98 z" /><path
           style="fill:#999999;fill-opacity:1;stroke-width:0"
           inkscape:connector-curvature="0"
           id="path5368"
           d="m 492.17,438.87 0,0.06 0,0.07 0,0.06 0,0.06 -0.01,0.05 0,0.06 0,0.05 0,0.05 -0.01,0.05 -0.01,0.05 -0.01,0.05 -0.01,0.04 -0.01,0.05 -0.01,0.04 -0.02,0.04 -0.02,0.03 -0.02,0.04 -0.02,0.03 -0.03,0.03 -0.02,0.03 -0.04,0.03 -0.03,0.02 -0.04,0.02 -0.02,0.01 -0.02,0.01 -0.02,0.01 -0.03,0.01 -0.02,0.01 -0.03,0.01 -0.02,0 -0.03,0.01 -0.03,0.01 -0.03,0 -0.03,0.01 -0.03,0 -0.03,0 -0.03,0.01 -0.04,0 -0.03,0 -0.04,0 -0.04,0 c -0.25,0 -0.34,0 -0.91,-0.28 -0.07,-0.03 -0.53,-0.24 -0.65,-0.24 -0.05,0 -0.11,0 -0.25,0.07 -1.44,0.45 -2.89,0.45 -3.63,0.45 -1.01,0 -3.14,0 -4.87,-0.94 -1.99,-1.11 -2.27,-2.92 -2.27,-3.73 0,-3.75 4.6,-4.45 7.03,-4.85 2.13,-0.31 4.67,-0.68 4.67,-2.5 0,-2.37 -3.45,-2.37 -4.28,-2.37 -3.31,0 -4.53,1.5 -5.18,3.39 -0.22,0.58 -0.25,0.66 -1.13,0.66 -1,0 -1.11,-0.11 -1.11,-1.11 l 0,-3.42 c 0,-0.71 0,-1.11 0.8,-1.11 0.31,0 0.39,0 1.11,0.45 0.22,0.09 0.78,0.41 0.98,0.55 1.81,-1 3.69,-1 4.5,-1 1.14,0 7.14,0 7.14,5.15 0,1.6 -0.84,2.72 -1.64,3.38 -1.64,1.36 -3.14,1.61 -6.03,2.06 -1.98,0.31 -4.05,0.62 -4.05,2.02 0,1.95 3.49,1.95 4.22,1.95 3.94,0 4.08,-1.61 4.19,-2.44 0.06,-0.7 0.28,-0.76 1.08,-0.76 1.01,0 1.11,0.09 1.11,1.1 z" /><path
           style="fill:#999999;fill-opacity:1;stroke-width:0"
           inkscape:connector-curvature="0"
           id="path5370"
           d="m 509.67,424.09 -1.05,0 c -0.07,-0.48 -0.32,-2.01 -0.71,-2.26 -0.21,-0.16 -2.3,-0.16 -2.68,-0.16 l -4.87,0 c 1.64,1.22 3.48,2.61 4.98,3.61 2.24,1.55 4.33,3 4.33,5.64 0,3.19 -3.01,4.96 -6.58,4.96 -3.36,0 -5.82,-1.96 -5.82,-4.4 0,-1.29 1.09,-1.51 1.45,-1.51 0.67,0 1.47,0.45 1.47,1.47 0,0.89 -0.66,1.39 -1.42,1.47 0.68,1.12 2.14,1.87 3.81,1.87 2.4,0 4.42,-1.45 4.42,-3.89 0,-2.09 -1.44,-3.69 -3.36,-5.31 l -6.08,-5.16 c -0.25,-0.22 -0.26,-0.22 -0.29,-0.39 l 0,-0.75 11.57,0 z" /><path
           style="fill:#999999;fill-opacity:1;stroke-width:0"
           inkscape:connector-curvature="0"
           id="path5372"
           d="m 484.93,401.78 0.1,0 0.11,0 0.11,0 0.13,0 0.13,0 0.14,0.01 0.15,0 0.15,0.01 0.16,0.01 0.17,0.01 0.18,0.01 0.18,0.01 0.18,0.01 0.19,0.01 0.38,0.04 0.4,0.04 0.4,0.05 0.41,0.06 0.4,0.07 0.41,0.08 0.19,0.04 0.2,0.05 0.19,0.05 0.19,0.06 0.18,0.05 0.18,0.06 c 2.58,0.91 3.07,2.58 3.07,3.63 0,1.92 -1.93,3.06 -4.33,3.06 l 0,-0.97 c 1.53,0 2.83,-0.77 2.83,-2.09 0,-3.38 -5.9,-3.38 -7.4,-3.38 l -1.7,0 c 1.42,5.05 5.3,5.47 6.27,5.47 l 0,0.97 c -4.17,0 -9.83,-3.2 -9.83,-9.16 0,-3.51 2.2,-6.54 6.28,-6.54 5.89,0 8.64,3.43 8.64,3.93 0,0.21 -0.31,0.6 -0.59,0.6 -0.21,0 -0.28,-0.08 -0.57,-0.36 -2.71,-3.21 -6.79,-3.21 -7.42,-3.21 -2.09,0 -3.48,1.4 -3.48,4.22 0,0.49 0,1.19 0.42,3.1 z" /><path
           style="fill:#999999;fill-opacity:1;stroke-width:0"
           inkscape:connector-curvature="0"
           id="path5374"
           d="m 500.84,402.64 0.12,-0.03 0.12,-0.02 0.12,-0.03 0.12,-0.02 0.12,-0.02 0.12,-0.02 0.11,-0.02 0.11,-0.02 0.11,-0.02 0.11,-0.01 0.11,-0.01 0.1,-0.02 0.1,-0.01 0.1,-0.01 0.09,-0.01 0.09,0 0.09,-0.01 0.09,-0.01 0.08,0 0.08,-0.01 0.07,0 0.07,0 0.07,-0.01 0.06,0 0.06,0 0.06,0 0.05,0 0.05,0 0.04,0 0.04,0 0.03,0 0.02,0 c 1.71,0 2.94,0.5 3.6,0.84 0.59,0.3 2.3,1.38 2.3,1.92 0,0.38 -0.29,0.43 -0.36,0.43 -0.05,0 -0.1,0 -0.38,-0.13 -0.94,-0.33 -2.48,-0.67 -4.12,-0.67 -1.43,0 -2.8,0.25 -4.11,0.69 -0.28,0.11 -0.33,0.11 -0.38,0.11 -0.36,0 -0.36,-0.3 -0.36,-0.71 l 0,-7.47 c 0,-0.42 0,-0.75 0.49,-0.75 0.26,0 0.29,0.05 0.51,0.33 0.96,1.1 2.27,1.64 3.97,1.64 1.44,0 2.24,-0.84 2.58,-1.37 0.58,-0.85 0.7,-1.97 0.7,-3.16 0,-1.05 -0.09,-2.44 -1.08,-3.42 -1.11,-1.14 -2.53,-1.22 -3.07,-1.22 -1.63,0 -3.44,0.7 -4.22,2.17 1.04,0.08 1.4,0.83 1.4,1.39 0,0.8 -0.61,1.41 -1.4,1.41 -0.55,0 -1.39,-0.33 -1.39,-1.48 0,-2.44 2.39,-4.5 5.65,-4.5 3.72,0 6.75,2.48 6.75,5.57 0,2.82 -2.42,5.44 -5.87,5.44 -1.58,0 -2.85,-0.41 -3.92,-1.23 z" /><path
           style="fill:#999999;fill-opacity:1;stroke-width:0"
           inkscape:connector-curvature="0"
           id="path5376"
           d="m 566.07,422.5 0.14,0 0.15,0 0.14,0 0.08,0.01 0.07,0 0.07,0.01 0.07,0.01 0.07,0.01 0.07,0.01 0.07,0.01 0.07,0.02 0.06,0.02 0.06,0.02 0.06,0.02 0.06,0.03 0.06,0.03 0.05,0.04 0.05,0.03 0.05,0.05 0.04,0.04 0.04,0.05 0.02,0.03 0.02,0.03 0.01,0.02 0.02,0.03 0.01,0.03 0.02,0.04 0.01,0.03 0.01,0.04 0.01,0.03 0.01,0.04 0.01,0.04 0,0.04 0.01,0.04 0,0.04 0,0.04 0,0.05 c 0,1 -0.95,1 -1.64,1 l -29.84,0 c -0.71,0 -1.64,0 -1.64,-1 0,-0.98 0.93,-0.98 1.68,-0.98 z" /><path
           style="fill:#999999;fill-opacity:1;stroke-width:0"
           inkscape:connector-curvature="0"
           id="path5378"
           d="m 566.12,412.82 0.07,0 0.06,0 0.14,0.01 0.14,0 0.07,0 0.07,0.01 0.07,0.01 0.07,0 0.06,0.01 0.07,0.02 0.07,0.01 0.06,0.02 0.07,0.02 0.06,0.02 0.06,0.02 0.06,0.03 0.05,0.03 0.05,0.04 0.05,0.04 0.05,0.04 0.04,0.05 0.02,0.02 0.02,0.03 0.02,0.02 0.02,0.03 0.01,0.03 0.02,0.03 0.01,0.03 0.02,0.03 0.01,0.04 0.01,0.03 0.01,0.04 0.01,0.04 0.01,0.04 0,0.04 0.01,0.04 0,0.04 0,0.05 0,0.04 c 0,1 -0.95,1 -1.69,1 l -29.75,0 c -0.75,0 -1.68,0 -1.68,-1 0,-1 0.93,-1 1.64,-1 z" /><path
           style="fill:#999999;fill-opacity:1;stroke-width:0"
           inkscape:connector-curvature="0"
           id="path5380"
           d="m 602.68,422.04 0,-1.59 c 0,-11.66 -5.17,-13.95 -8.06,-13.95 -0.86,0 -3.55,0.11 -4.89,1.79 2.18,0 2.59,1.44 2.59,2.3 0,1.53 -1.2,2.28 -2.3,2.28 -0.79,0 -2.28,-0.44 -2.28,-2.39 0,-3.33 2.69,-5.37 6.92,-5.37 6.43,0 12.5,6.76 12.5,17.48 0,13.41 -5.73,16.8 -10.15,16.8 -2.75,0 -5.19,-0.91 -7.33,-3.14 -2.05,-2.25 -3.19,-4.35 -3.19,-8.08 0,-6.22 4.39,-11.11 9.97,-11.11 l 0.05,1.14 c -0.8,0 -3.1,0 -4.64,3.14 -0.89,1.84 -0.89,4.34 -0.89,6.78 0,2.69 0,5.03 1.04,6.88 1.35,2.48 3.24,3.14 4.99,3.14 2.28,0 3.94,-1.71 4.78,-3.94 0.59,-1.59 0.8,-4.74 0.8,-7.03 0,-4.13 -1.71,-8.97 -6.08,-8.97 l 0,0 -0.05,-1.14 c 3.03,0 5.08,2.09 6.22,4.98 z" /></g>    </g>
  </g>
  <g
     id="g6050"
     transform="translate(-0.629034,0.75807252)">
    <rect
       y="97.741936"
       x="23.550892"
       height="12.000001"
       width="35.156284"
       id="rect5821"
       style="fill:#ffffff;fill-opacity:1;stroke:none;stroke-width:1.24600005;stroke-miterlimit:4;stroke-dasharray:none;stroke-opacity:1" />
    <g
       transform="matrix(1.0695245,0,0,1.0695245,-35.859105,79.92584)"
       id="g4606">
      <g
         style="font-style:normal;font-variant:normal;font-weight:normal;font-stretch:normal;letter-spacing:normal;word-spacing:normal;text-anchor:start;fill:none;fill-opacity:1;fill-rule:evenodd;stroke:#000000;stroke-linecap:butt;stroke-linejoin:miter;stroke-miterlimit:10.43299961;stroke-dasharray:none;stroke-dashoffset:0;stroke-opacity:1"
         id="g4608"
         transform="matrix(0.20142857,0,0,-0.20142857,-35.25,105.75)"
         xml:space="preserve"
         stroke-miterlimit="10.433"
         font-style="normal"
         font-variant="normal"
         font-weight="normal"
         font-stretch="normal"
         font-size-adjust="none"
         letter-spacing="normal"
         word-spacing="normal"><path
           style="fill:#000000;stroke-width:0"
           inkscape:connector-curvature="0"
           d="m 475.25,425.14 -0.14,0 -0.15,0 -0.15,-0.01 -0.14,0 -0.14,-0.01 -0.14,-0.02 -0.07,-0.01 -0.07,-0.01 -0.06,-0.02 -0.07,-0.01 -0.07,-0.02 -0.07,-0.02 -0.07,-0.02 -0.06,-0.02 -0.07,-0.03 -0.07,-0.03 -0.06,-0.03 -0.07,-0.04 -0.07,-0.04 -0.06,-0.04 -0.07,-0.05 -0.07,-0.04 -0.06,-0.06 -0.07,-0.05 -0.06,-0.06 -0.07,-0.07 c -0.8,-0.75 -0.89,-1.59 -0.89,-1.93 0,-1.21 0.89,-1.75 1.84,-1.75 1.44,0 2.8,1.2 2.8,3.18 0,2.44 -2.34,4.28 -5.89,4.28 -6.72,0 -13.34,-7.12 -13.34,-14.14 0,-4.48 2.89,-8.42 8.06,-8.42 7.12,0 11.31,5.28 11.31,5.88 0,0.29 -0.3,0.65 -0.59,0.65 -0.25,0 -0.35,-0.11 -0.66,-0.5 -3.94,-4.93 -9.36,-4.93 -9.95,-4.93 -3.14,0 -4.49,2.43 -4.49,5.43 0,2.03 0.99,6.88 2.69,9.96 1.55,2.84 4.28,4.98 7.02,4.98 1.7,0 3.59,-0.64 4.29,-1.98 z"
           id="path4610" /><path
           style="fill:#000000;stroke-width:0"
           inkscape:connector-curvature="0"
           d="m 492.17,438.87 0,0.06 0,0.07 0,0.06 0,0.06 -0.01,0.05 0,0.06 0,0.05 0,0.05 -0.01,0.05 -0.01,0.05 -0.01,0.05 -0.01,0.04 -0.01,0.05 -0.01,0.04 -0.02,0.04 -0.02,0.03 -0.02,0.04 -0.02,0.03 -0.03,0.03 -0.02,0.03 -0.04,0.03 -0.03,0.02 -0.04,0.02 -0.02,0.01 -0.02,0.01 -0.02,0.01 -0.03,0.01 -0.02,0.01 -0.03,0.01 -0.02,0 -0.03,0.01 -0.03,0.01 -0.03,0 -0.03,0.01 -0.03,0 -0.03,0 -0.03,0.01 -0.04,0 -0.03,0 -0.04,0 -0.04,0 c -0.25,0 -0.34,0 -0.91,-0.28 -0.07,-0.03 -0.53,-0.24 -0.65,-0.24 -0.05,0 -0.11,0 -0.25,0.07 -1.44,0.45 -2.89,0.45 -3.63,0.45 -1.01,0 -3.14,0 -4.87,-0.94 -1.99,-1.11 -2.27,-2.92 -2.27,-3.73 0,-3.75 4.6,-4.45 7.03,-4.85 2.13,-0.31 4.67,-0.68 4.67,-2.5 0,-2.37 -3.45,-2.37 -4.28,-2.37 -3.31,0 -4.53,1.5 -5.18,3.39 -0.22,0.58 -0.25,0.66 -1.13,0.66 -1,0 -1.11,-0.11 -1.11,-1.11 l 0,-3.42 c 0,-0.71 0,-1.11 0.8,-1.11 0.31,0 0.39,0 1.11,0.45 0.22,0.09 0.78,0.41 0.98,0.55 1.81,-1 3.69,-1 4.5,-1 1.14,0 7.14,0 7.14,5.15 0,1.6 -0.84,2.72 -1.64,3.38 -1.64,1.36 -3.14,1.61 -6.03,2.06 -1.98,0.31 -4.05,0.62 -4.05,2.02 0,1.95 3.49,1.95 4.22,1.95 3.94,0 4.08,-1.61 4.19,-2.44 0.06,-0.7 0.28,-0.76 1.08,-0.76 1.01,0 1.11,0.09 1.11,1.1 z"
           id="path4612" /><path
           style="fill:#000000;stroke-width:0"
           inkscape:connector-curvature="0"
           d="m 509.67,424.09 -1.05,0 c -0.07,-0.48 -0.32,-2.01 -0.71,-2.26 -0.21,-0.16 -2.3,-0.16 -2.68,-0.16 l -4.87,0 c 1.64,1.22 3.48,2.61 4.98,3.61 2.24,1.55 4.33,3 4.33,5.64 0,3.19 -3.01,4.96 -6.58,4.96 -3.36,0 -5.82,-1.96 -5.82,-4.4 0,-1.29 1.09,-1.51 1.45,-1.51 0.67,0 1.47,0.45 1.47,1.47 0,0.89 -0.66,1.39 -1.42,1.47 0.68,1.12 2.14,1.87 3.81,1.87 2.4,0 4.42,-1.45 4.42,-3.89 0,-2.09 -1.44,-3.69 -3.36,-5.31 l -6.08,-5.16 c -0.25,-0.22 -0.26,-0.22 -0.29,-0.39 l 0,-0.75 11.57,0 z"
           id="path4614" /><path
           style="fill:#000000;stroke-width:0"
           inkscape:connector-curvature="0"
           d="m 484.93,401.78 0.1,0 0.11,0 0.11,0 0.13,0 0.13,0 0.14,0.01 0.15,0 0.15,0.01 0.16,0.01 0.17,0.01 0.18,0.01 0.18,0.01 0.18,0.01 0.19,0.01 0.38,0.04 0.4,0.04 0.4,0.05 0.41,0.06 0.4,0.07 0.41,0.08 0.19,0.04 0.2,0.05 0.19,0.05 0.19,0.06 0.18,0.05 0.18,0.06 c 2.58,0.91 3.07,2.58 3.07,3.63 0,1.92 -1.93,3.06 -4.33,3.06 l 0,-0.97 c 1.53,0 2.83,-0.77 2.83,-2.09 0,-3.38 -5.9,-3.38 -7.4,-3.38 l -1.7,0 c 1.42,5.05 5.3,5.47 6.27,5.47 l 0,0.97 c -4.17,0 -9.83,-3.2 -9.83,-9.16 0,-3.51 2.2,-6.54 6.28,-6.54 5.89,0 8.64,3.43 8.64,3.93 0,0.21 -0.31,0.6 -0.59,0.6 -0.21,0 -0.28,-0.08 -0.57,-0.36 -2.71,-3.21 -6.79,-3.21 -7.42,-3.21 -2.09,0 -3.48,1.4 -3.48,4.22 0,0.49 0,1.19 0.42,3.1 z"
           id="path4616" /><path
           style="fill:#000000;stroke-width:0"
           inkscape:connector-curvature="0"
           d="m 510.63,393.73 -1.04,0 c -0.08,-0.48 -0.33,-2.01 -0.72,-2.26 -0.21,-0.16 -2.3,-0.16 -2.67,-0.16 l -4.88,0 c 1.64,1.22 3.48,2.61 4.98,3.61 2.24,1.55 4.33,3 4.33,5.64 0,3.19 -3.01,4.96 -6.58,4.96 -3.35,0 -5.82,-1.96 -5.82,-4.4 0,-1.29 1.09,-1.51 1.45,-1.51 0.67,0 1.47,0.45 1.47,1.47 0,0.89 -0.66,1.39 -1.42,1.47 0.68,1.12 2.14,1.87 3.81,1.87 2.41,0 4.42,-1.45 4.42,-3.89 0,-2.09 -1.44,-3.69 -3.36,-5.31 l -6.08,-5.16 c -0.25,-0.22 -0.26,-0.22 -0.29,-0.39 l 0,-0.75 11.57,0 z"
           id="path4618" /><path
           style="fill:#000000;stroke-width:0"
           inkscape:connector-curvature="0"
           d="m 566.07,422.5 0.14,0 0.15,0 0.14,0 0.08,0.01 0.07,0 0.07,0.01 0.07,0.01 0.07,0.01 0.07,0.01 0.07,0.01 0.07,0.02 0.06,0.02 0.06,0.02 0.06,0.02 0.06,0.03 0.06,0.03 0.05,0.04 0.05,0.03 0.05,0.05 0.04,0.04 0.04,0.05 0.02,0.03 0.02,0.03 0.01,0.02 0.02,0.03 0.01,0.03 0.02,0.04 0.01,0.03 0.01,0.04 0.01,0.03 0.01,0.04 0.01,0.04 0,0.04 0.01,0.04 0,0.04 0,0.04 0,0.05 c 0,1 -0.95,1 -1.64,1 l -29.84,0 c -0.71,0 -1.64,0 -1.64,-1 0,-0.98 0.93,-0.98 1.68,-0.98 z"
           id="path4620" /><path
           style="fill:#000000;stroke-width:0"
           inkscape:connector-curvature="0"
           d="m 566.12,412.82 0.07,0 0.06,0 0.14,0.01 0.14,0 0.07,0 0.07,0.01 0.07,0.01 0.07,0 0.06,0.01 0.07,0.02 0.07,0.01 0.06,0.02 0.07,0.02 0.06,0.02 0.06,0.02 0.06,0.03 0.05,0.03 0.05,0.04 0.05,0.04 0.05,0.04 0.04,0.05 0.02,0.02 0.02,0.03 0.02,0.02 0.02,0.03 0.01,0.03 0.02,0.03 0.01,0.03 0.02,0.03 0.01,0.04 0.01,0.03 0.01,0.04 0.01,0.04 0.01,0.04 0,0.04 0.01,0.04 0,0.04 0,0.05 0,0.04 c 0,1 -0.95,1 -1.69,1 l -29.75,0 c -0.75,0 -1.68,0 -1.68,-1 0,-1 0.93,-1 1.64,-1 z"
           id="path4622" /><path
           style="fill:#000000;stroke-width:0"
           inkscape:connector-curvature="0"
           d="m 598.85,423.73 0.38,0.13 0.37,0.15 0.37,0.15 0.35,0.17 0.35,0.18 0.34,0.19 0.33,0.2 0.32,0.22 0.31,0.22 0.31,0.23 0.29,0.24 0.28,0.25 0.27,0.26 0.26,0.27 0.25,0.27 0.24,0.29 0.22,0.29 0.21,0.3 0.2,0.3 0.19,0.32 0.17,0.32 0.17,0.32 0.14,0.33 0.13,0.34 0.12,0.34 0.11,0.34 0.08,0.35 0.08,0.36 0.06,0.36 0.04,0.36 0.02,0.36 0.01,0.37 c 0,4.08 -4.39,6.88 -9.17,6.88 -5.03,0 -8.81,-3 -8.81,-6.78 0,-1.65 1.09,-2.6 2.54,-2.6 1.53,0 2.53,1.1 2.53,2.55 0,2.48 -2.34,2.48 -3.07,2.48 1.53,2.44 4.82,3.1 6.62,3.1 2.03,0 4.78,-1.1 4.78,-5.58 0,-0.61 -0.11,-3.49 -1.4,-5.69 -1.49,-2.39 -3.19,-2.53 -4.43,-2.59 -0.4,-0.05 -1.59,-0.14 -1.95,-0.14 -0.39,-0.05 -0.75,-0.1 -0.75,-0.6 0,-0.54 0.36,-0.54 1.2,-0.54 l 2.19,0 c 4.1,0 5.94,-3.39 5.94,-8.29 0,-6.76 -3.44,-8.21 -5.64,-8.21 -2.14,0 -5.88,0.84 -7.61,3.78 1.73,-0.24 3.28,0.86 3.28,2.75 0,1.79 -1.34,2.78 -2.8,2.78 -1.18,0 -2.78,-0.69 -2.78,-2.89 0,-4.53 4.63,-7.81 10.06,-7.81 6.08,0 10.61,4.53 10.61,9.6 0,4.1 -3.14,7.97 -8.31,9.02 z"
           id="path4624" /></g>    </g>
  </g>
  <g
     id="g6076"
     transform="translate(2.112904,2.3064585)">
    <rect
       y="84.19355"
       x="51.031048"
       height="12"
       width="34.712097"
       id="rect5829"
       style="fill:#ffffff;fill-opacity:1;stroke:none;stroke-width:1.24600005;stroke-miterlimit:4;stroke-dasharray:none;stroke-opacity:1" />
    <g
       transform="matrix(1.0695245,0,0,1.0695245,-8.3974586,66.377454)"
       id="g5090">
      <g
         style="font-style:normal;font-variant:normal;font-weight:normal;font-stretch:normal;letter-spacing:normal;word-spacing:normal;text-anchor:start;fill:none;fill-opacity:1;fill-rule:evenodd;stroke:#000000;stroke-linecap:butt;stroke-linejoin:miter;stroke-miterlimit:10.43299961;stroke-dasharray:none;stroke-dashoffset:0;stroke-opacity:1"
         id="g5092"
         transform="matrix(0.20142857,0,0,-0.20142857,-35.25,105.75)"
         xml:space="preserve"
         stroke-miterlimit="10.433"
         font-style="normal"
         font-variant="normal"
         font-weight="normal"
         font-stretch="normal"
         font-size-adjust="none"
         letter-spacing="normal"
         word-spacing="normal"><path
           style="fill:#000000;stroke-width:0"
           inkscape:connector-curvature="0"
           d="m 475.25,425.14 -0.14,0 -0.15,0 -0.15,-0.01 -0.14,0 -0.14,-0.01 -0.14,-0.02 -0.07,-0.01 -0.07,-0.01 -0.06,-0.02 -0.07,-0.01 -0.07,-0.02 -0.07,-0.02 -0.07,-0.02 -0.06,-0.02 -0.07,-0.03 -0.07,-0.03 -0.06,-0.03 -0.07,-0.04 -0.07,-0.04 -0.06,-0.04 -0.07,-0.05 -0.07,-0.04 -0.06,-0.06 -0.07,-0.05 -0.06,-0.06 -0.07,-0.07 c -0.8,-0.75 -0.89,-1.59 -0.89,-1.93 0,-1.21 0.89,-1.75 1.84,-1.75 1.44,0 2.8,1.2 2.8,3.18 0,2.44 -2.34,4.28 -5.89,4.28 -6.72,0 -13.34,-7.12 -13.34,-14.14 0,-4.48 2.89,-8.42 8.06,-8.42 7.12,0 11.31,5.28 11.31,5.88 0,0.29 -0.3,0.65 -0.59,0.65 -0.25,0 -0.35,-0.11 -0.66,-0.5 -3.94,-4.93 -9.36,-4.93 -9.95,-4.93 -3.14,0 -4.49,2.43 -4.49,5.43 0,2.03 0.99,6.88 2.69,9.96 1.55,2.84 4.28,4.98 7.02,4.98 1.7,0 3.59,-0.64 4.29,-1.98 z"
           id="path5094" /><path
           style="fill:#000000;stroke-width:0"
           inkscape:connector-curvature="0"
           d="m 492.17,438.87 0,0.06 0,0.07 0,0.06 0,0.06 -0.01,0.05 0,0.06 0,0.05 0,0.05 -0.01,0.05 -0.01,0.05 -0.01,0.05 -0.01,0.04 -0.01,0.05 -0.01,0.04 -0.02,0.04 -0.02,0.03 -0.02,0.04 -0.02,0.03 -0.03,0.03 -0.02,0.03 -0.04,0.03 -0.03,0.02 -0.04,0.02 -0.02,0.01 -0.02,0.01 -0.02,0.01 -0.03,0.01 -0.02,0.01 -0.03,0.01 -0.02,0 -0.03,0.01 -0.03,0.01 -0.03,0 -0.03,0.01 -0.03,0 -0.03,0 -0.03,0.01 -0.04,0 -0.03,0 -0.04,0 -0.04,0 c -0.25,0 -0.34,0 -0.91,-0.28 -0.07,-0.03 -0.53,-0.24 -0.65,-0.24 -0.05,0 -0.11,0 -0.25,0.07 -1.44,0.45 -2.89,0.45 -3.63,0.45 -1.01,0 -3.14,0 -4.87,-0.94 -1.99,-1.11 -2.27,-2.92 -2.27,-3.73 0,-3.75 4.6,-4.45 7.03,-4.85 2.13,-0.31 4.67,-0.68 4.67,-2.5 0,-2.37 -3.45,-2.37 -4.28,-2.37 -3.31,0 -4.53,1.5 -5.18,3.39 -0.22,0.58 -0.25,0.66 -1.13,0.66 -1,0 -1.11,-0.11 -1.11,-1.11 l 0,-3.42 c 0,-0.71 0,-1.11 0.8,-1.11 0.31,0 0.39,0 1.11,0.45 0.22,0.09 0.78,0.41 0.98,0.55 1.81,-1 3.69,-1 4.5,-1 1.14,0 7.14,0 7.14,5.15 0,1.6 -0.84,2.72 -1.64,3.38 -1.64,1.36 -3.14,1.61 -6.03,2.06 -1.98,0.31 -4.05,0.62 -4.05,2.02 0,1.95 3.49,1.95 4.22,1.95 3.94,0 4.08,-1.61 4.19,-2.44 0.06,-0.7 0.28,-0.76 1.08,-0.76 1.01,0 1.11,0.09 1.11,1.1 z"
           id="path5096" /><path
           style="fill:#000000;stroke-width:0"
           inkscape:connector-curvature="0"
           d="m 509.67,424.09 -1.05,0 c -0.07,-0.48 -0.32,-2.01 -0.71,-2.26 -0.21,-0.16 -2.3,-0.16 -2.68,-0.16 l -4.87,0 c 1.64,1.22 3.48,2.61 4.98,3.61 2.24,1.55 4.33,3 4.33,5.64 0,3.19 -3.01,4.96 -6.58,4.96 -3.36,0 -5.82,-1.96 -5.82,-4.4 0,-1.29 1.09,-1.51 1.45,-1.51 0.67,0 1.47,0.45 1.47,1.47 0,0.89 -0.66,1.39 -1.42,1.47 0.68,1.12 2.14,1.87 3.81,1.87 2.4,0 4.42,-1.45 4.42,-3.89 0,-2.09 -1.44,-3.69 -3.36,-5.31 l -6.08,-5.16 c -0.25,-0.22 -0.26,-0.22 -0.29,-0.39 l 0,-0.75 11.57,0 z"
           id="path5098" /><path
           style="fill:#000000;stroke-width:0"
           inkscape:connector-curvature="0"
           d="m 484.93,401.78 0.1,0 0.11,0 0.11,0 0.13,0 0.13,0 0.14,0.01 0.15,0 0.15,0.01 0.16,0.01 0.17,0.01 0.18,0.01 0.18,0.01 0.18,0.01 0.19,0.01 0.38,0.04 0.4,0.04 0.4,0.05 0.41,0.06 0.4,0.07 0.41,0.08 0.19,0.04 0.2,0.05 0.19,0.05 0.19,0.06 0.18,0.05 0.18,0.06 c 2.58,0.91 3.07,2.58 3.07,3.63 0,1.92 -1.93,3.06 -4.33,3.06 l 0,-0.97 c 1.53,0 2.83,-0.77 2.83,-2.09 0,-3.38 -5.9,-3.38 -7.4,-3.38 l -1.7,0 c 1.42,5.05 5.3,5.47 6.27,5.47 l 0,0.97 c -4.17,0 -9.83,-3.2 -9.83,-9.16 0,-3.51 2.2,-6.54 6.28,-6.54 5.89,0 8.64,3.43 8.64,3.93 0,0.21 -0.31,0.6 -0.59,0.6 -0.21,0 -0.28,-0.08 -0.57,-0.36 -2.71,-3.21 -6.79,-3.21 -7.42,-3.21 -2.09,0 -3.48,1.4 -3.48,4.22 0,0.49 0,1.19 0.42,3.1 z"
           id="path5100" /><path
           style="fill:#000000;stroke-width:0"
           inkscape:connector-curvature="0"
           d="m 511.34,392.98 0,1.1 -3.13,0 0,10.97 c 0,0.59 -0.01,0.73 -0.67,0.73 -0.5,0 -0.52,-0.01 -0.8,-0.37 l -9.22,-11.33 0,-1.1 8.3,0 0.2,1.1 -7.32,0 7.32,9.01 0,-9.01 -0.2,-1.1 0,-1.93 c 0,-0.78 0,-1.03 -2.16,-1.03 l -0.87,0 0,-1.1 c 1.17,0.05 2.78,0.1 4.23,0.1 1.44,0 3.03,-0.05 4.24,-0.1 l 0,1.1 -0.88,0 c -2.17,0 -2.17,0.25 -2.17,1.03 l 0,1.93 z"
           id="path5102" /><path
           style="fill:#000000;stroke-width:0"
           inkscape:connector-curvature="0"
           d="m 566.07,422.5 0.14,0 0.15,0 0.14,0 0.08,0.01 0.07,0 0.07,0.01 0.07,0.01 0.07,0.01 0.07,0.01 0.07,0.01 0.07,0.02 0.06,0.02 0.06,0.02 0.06,0.02 0.06,0.03 0.06,0.03 0.05,0.04 0.05,0.03 0.05,0.05 0.04,0.04 0.04,0.05 0.02,0.03 0.02,0.03 0.01,0.02 0.02,0.03 0.01,0.03 0.02,0.04 0.01,0.03 0.01,0.04 0.01,0.03 0.01,0.04 0.01,0.04 0,0.04 0.01,0.04 0,0.04 0,0.04 0,0.05 c 0,1 -0.95,1 -1.64,1 l -29.84,0 c -0.71,0 -1.64,0 -1.64,-1 0,-0.98 0.93,-0.98 1.68,-0.98 z"
           id="path5104" /><path
           style="fill:#000000;stroke-width:0"
           inkscape:connector-curvature="0"
           d="m 566.12,412.82 0.07,0 0.06,0 0.14,0.01 0.14,0 0.07,0 0.07,0.01 0.07,0.01 0.07,0 0.06,0.01 0.07,0.02 0.07,0.01 0.06,0.02 0.07,0.02 0.06,0.02 0.06,0.02 0.06,0.03 0.05,0.03 0.05,0.04 0.05,0.04 0.05,0.04 0.04,0.05 0.02,0.02 0.02,0.03 0.02,0.02 0.02,0.03 0.01,0.03 0.02,0.03 0.01,0.03 0.02,0.03 0.01,0.04 0.01,0.03 0.01,0.04 0.01,0.04 0.01,0.04 0,0.04 0.01,0.04 0,0.04 0,0.05 0,0.04 c 0,1 -0.95,1 -1.69,1 l -29.75,0 c -0.75,0 -1.68,0 -1.68,-1 0,-1 0.93,-1 1.64,-1 z"
           id="path5106" /><path
           style="fill:#000000;stroke-width:0"
           inkscape:connector-curvature="0"
           d="m 599.04,438.09 0,0.05 0,0.06 0,0.05 0,0.05 0,0.05 0,0.05 0,0.04 0,0.05 0,0.04 -0.01,0.04 0,0.04 0,0.04 0,0.04 0,0.03 -0.01,0.04 0,0.03 -0.01,0.07 -0.01,0.06 -0.01,0.05 -0.01,0.05 -0.02,0.05 -0.02,0.04 -0.02,0.04 -0.02,0.03 -0.03,0.03 -0.03,0.03 -0.04,0.03 -0.04,0.02 -0.04,0.02 -0.03,0.01 -0.02,0.01 -0.03,0 -0.02,0.01 -0.03,0.01 -0.03,0 -0.03,0.01 -0.04,0 -0.03,0.01 -0.03,0 -0.04,0 -0.04,0.01 -0.04,0 -0.04,0 -0.04,0 -0.04,0 -0.04,0 -0.05,0.01 -0.05,0 -0.05,0 -0.05,0 -0.05,0 c -3.1,-3.19 -7.47,-3.19 -9.06,-3.19 l 0,-1.55 c 1,0 3.93,0 6.51,1.3 l 0,-25.81 c 0,-1.8 -0.14,-2.39 -4.62,-2.39 l -1.6,0 0,-1.55 c 1.75,0.16 6.08,0.16 8.07,0.16 2,0 6.32,0 8.07,-0.16 l 0,1.55 -1.59,0 c -4.48,0 -4.64,0.54 -4.64,2.39 z"
           id="path5108" /></g>    </g>
  </g>
  <g
     id="g6063"
     transform="translate(-1.919359,10.241945)">
    <rect
       y="32.258064"
       x="55.025177"
       height="12"
       width="34.788364"
       id="rect5823"
       style="fill:#ffffff;fill-opacity:1;stroke:none;stroke-width:1.24600005;stroke-miterlimit:4;stroke-dasharray:none;stroke-opacity:1" />
    <g
       transform="matrix(1.0583318,0,0,1.0583318,-3.7630898,14.633649)"
       id="g4838"
       style="fill:#999999;fill-opacity:1">
      <g
         style="font-style:normal;font-variant:normal;font-weight:normal;font-stretch:normal;letter-spacing:normal;word-spacing:normal;text-anchor:start;fill:#999999;fill-opacity:1;fill-rule:evenodd;stroke:#000000;stroke-linecap:butt;stroke-linejoin:miter;stroke-miterlimit:10.43299961;stroke-dasharray:none;stroke-dashoffset:0;stroke-opacity:1"
         word-spacing="normal"
         letter-spacing="normal"
         font-size-adjust="none"
         font-stretch="normal"
         font-weight="normal"
         font-variant="normal"
         font-style="normal"
         stroke-miterlimit="10.433"
         xml:space="preserve"
         transform="matrix(0.20142857,0,0,-0.20142857,-35.25,105.75)"
         id="g4840"><path
           style="fill:#999999;fill-opacity:1;stroke-width:0"
           inkscape:connector-curvature="0"
           id="path4842"
           d="m 475.25,425.14 -0.14,0 -0.15,0 -0.15,-0.01 -0.14,0 -0.14,-0.01 -0.14,-0.02 -0.07,-0.01 -0.07,-0.01 -0.06,-0.02 -0.07,-0.01 -0.07,-0.02 -0.07,-0.02 -0.07,-0.02 -0.06,-0.02 -0.07,-0.03 -0.07,-0.03 -0.06,-0.03 -0.07,-0.04 -0.07,-0.04 -0.06,-0.04 -0.07,-0.05 -0.07,-0.04 -0.06,-0.06 -0.07,-0.05 -0.06,-0.06 -0.07,-0.07 c -0.8,-0.75 -0.89,-1.59 -0.89,-1.93 0,-1.21 0.89,-1.75 1.84,-1.75 1.44,0 2.8,1.2 2.8,3.18 0,2.44 -2.34,4.28 -5.89,4.28 -6.72,0 -13.34,-7.12 -13.34,-14.14 0,-4.48 2.89,-8.42 8.06,-8.42 7.12,0 11.31,5.28 11.31,5.88 0,0.29 -0.3,0.65 -0.59,0.65 -0.25,0 -0.35,-0.11 -0.66,-0.5 -3.94,-4.93 -9.36,-4.93 -9.95,-4.93 -3.14,0 -4.49,2.43 -4.49,5.43 0,2.03 0.99,6.88 2.69,9.96 1.55,2.84 4.28,4.98 7.02,4.98 1.7,0 3.59,-0.64 4.29,-1.98 z" /><path
           style="fill:#999999;fill-opacity:1;stroke-width:0"
           inkscape:connector-curvature="0"
           id="path4844"
           d="m 492.17,438.87 0,0.06 0,0.07 0,0.06 0,0.06 -0.01,0.05 0,0.06 0,0.05 0,0.05 -0.01,0.05 -0.01,0.05 -0.01,0.05 -0.01,0.04 -0.01,0.05 -0.01,0.04 -0.02,0.04 -0.02,0.03 -0.02,0.04 -0.02,0.03 -0.03,0.03 -0.02,0.03 -0.04,0.03 -0.03,0.02 -0.04,0.02 -0.02,0.01 -0.02,0.01 -0.02,0.01 -0.03,0.01 -0.02,0.01 -0.03,0.01 -0.02,0 -0.03,0.01 -0.03,0.01 -0.03,0 -0.03,0.01 -0.03,0 -0.03,0 -0.03,0.01 -0.04,0 -0.03,0 -0.04,0 -0.04,0 c -0.25,0 -0.34,0 -0.91,-0.28 -0.07,-0.03 -0.53,-0.24 -0.65,-0.24 -0.05,0 -0.11,0 -0.25,0.07 -1.44,0.45 -2.89,0.45 -3.63,0.45 -1.01,0 -3.14,0 -4.87,-0.94 -1.99,-1.11 -2.27,-2.92 -2.27,-3.73 0,-3.75 4.6,-4.45 7.03,-4.85 2.13,-0.31 4.67,-0.68 4.67,-2.5 0,-2.37 -3.45,-2.37 -4.28,-2.37 -3.31,0 -4.53,1.5 -5.18,3.39 -0.22,0.58 -0.25,0.66 -1.13,0.66 -1,0 -1.11,-0.11 -1.11,-1.11 l 0,-3.42 c 0,-0.71 0,-1.11 0.8,-1.11 0.31,0 0.39,0 1.11,0.45 0.22,0.09 0.78,0.41 0.98,0.55 1.81,-1 3.69,-1 4.5,-1 1.14,0 7.14,0 7.14,5.15 0,1.6 -0.84,2.72 -1.64,3.38 -1.64,1.36 -3.14,1.61 -6.03,2.06 -1.98,0.31 -4.05,0.62 -4.05,2.02 0,1.95 3.49,1.95 4.22,1.95 3.94,0 4.08,-1.61 4.19,-2.44 0.06,-0.7 0.28,-0.76 1.08,-0.76 1.01,0 1.11,0.09 1.11,1.1 z" /><path
           style="fill:#999999;fill-opacity:1;stroke-width:0"
           inkscape:connector-curvature="0"
           id="path4846"
           d="m 509.67,424.09 -1.05,0 c -0.07,-0.48 -0.32,-2.01 -0.71,-2.26 -0.21,-0.16 -2.3,-0.16 -2.68,-0.16 l -4.87,0 c 1.64,1.22 3.48,2.61 4.98,3.61 2.24,1.55 4.33,3 4.33,5.64 0,3.19 -3.01,4.96 -6.58,4.96 -3.36,0 -5.82,-1.96 -5.82,-4.4 0,-1.29 1.09,-1.51 1.45,-1.51 0.67,0 1.47,0.45 1.47,1.47 0,0.89 -0.66,1.39 -1.42,1.47 0.68,1.12 2.14,1.87 3.81,1.87 2.4,0 4.42,-1.45 4.42,-3.89 0,-2.09 -1.44,-3.69 -3.36,-5.31 l -6.08,-5.16 c -0.25,-0.22 -0.26,-0.22 -0.29,-0.39 l 0,-0.75 11.57,0 z" /><path
           style="fill:#999999;fill-opacity:1;stroke-width:0"
           inkscape:connector-curvature="0"
           id="path4848"
           d="m 484.93,401.78 0.1,0 0.11,0 0.11,0 0.13,0 0.13,0 0.14,0.01 0.15,0 0.15,0.01 0.16,0.01 0.17,0.01 0.18,0.01 0.18,0.01 0.18,0.01 0.19,0.01 0.38,0.04 0.4,0.04 0.4,0.05 0.41,0.06 0.4,0.07 0.41,0.08 0.19,0.04 0.2,0.05 0.19,0.05 0.19,0.06 0.18,0.05 0.18,0.06 c 2.58,0.91 3.07,2.58 3.07,3.63 0,1.92 -1.93,3.06 -4.33,3.06 l 0,-0.97 c 1.53,0 2.83,-0.77 2.83,-2.09 0,-3.38 -5.9,-3.38 -7.4,-3.38 l -1.7,0 c 1.42,5.05 5.3,5.47 6.27,5.47 l 0,0.97 c -4.17,0 -9.83,-3.2 -9.83,-9.16 0,-3.51 2.2,-6.54 6.28,-6.54 5.89,0 8.64,3.43 8.64,3.93 0,0.21 -0.31,0.6 -0.59,0.6 -0.21,0 -0.28,-0.08 -0.57,-0.36 -2.71,-3.21 -6.79,-3.21 -7.42,-3.21 -2.09,0 -3.48,1.4 -3.48,4.22 0,0.49 0,1.19 0.42,3.1 z" /><path
           style="fill:#999999;fill-opacity:1;stroke-width:0"
           inkscape:connector-curvature="0"
           id="path4850"
           d="m 504.18,397.17 0.21,0 0.21,-0.01 0.2,-0.03 0.2,-0.02 0.2,-0.04 0.18,-0.05 0.19,-0.05 0.17,-0.06 0.18,-0.07 0.16,-0.07 0.16,-0.09 0.16,-0.09 0.14,-0.1 0.14,-0.1 0.14,-0.12 0.13,-0.12 0.12,-0.13 0.11,-0.13 0.11,-0.14 0.1,-0.15 0.09,-0.16 0.09,-0.16 0.08,-0.17 0.07,-0.18 0.06,-0.18 0.06,-0.19 0.04,-0.2 0.04,-0.2 0.03,-0.21 0.02,-0.22 0.02,-0.22 0,-0.23 c 0,-2.55 -1.56,-3.89 -3.78,-3.89 -0.28,0 -3.25,0 -4.51,1.3 1.03,0.15 1.32,0.92 1.32,1.51 0,0.92 -0.7,1.53 -1.53,1.53 -0.79,0 -1.53,-0.53 -1.53,-1.57 0,-2.6 2.94,-3.78 6.31,-3.78 4.1,0 6.64,2.46 6.64,4.87 0,2.05 -1.82,3.8 -4.67,4.44 3,0.97 3.8,2.87 3.8,4.26 0,2.05 -2.55,3.57 -5.69,3.57 -3.06,0 -5.53,-1.3 -5.53,-3.55 0,-1.17 0.95,-1.47 1.42,-1.47 0.72,0 1.42,0.53 1.42,1.42 0,0.58 -0.29,1.28 -1.18,1.42 1.06,1.14 3.28,1.22 3.79,1.22 1.83,0 3.13,-0.92 3.13,-2.61 0,-1.45 -0.95,-3.72 -3.56,-3.86 -0.71,-0.03 -0.8,-0.04 -1.46,-0.07 -0.26,-0.04 -0.54,-0.05 -0.54,-0.43 0,-0.42 0.25,-0.42 0.7,-0.42 z" /><path
           style="fill:#999999;fill-opacity:1;stroke-width:0"
           inkscape:connector-curvature="0"
           id="path4852"
           d="m 566.07,422.5 0.14,0 0.15,0 0.14,0 0.08,0.01 0.07,0 0.07,0.01 0.07,0.01 0.07,0.01 0.07,0.01 0.07,0.01 0.07,0.02 0.06,0.02 0.06,0.02 0.06,0.02 0.06,0.03 0.06,0.03 0.05,0.04 0.05,0.03 0.05,0.05 0.04,0.04 0.04,0.05 0.02,0.03 0.02,0.03 0.01,0.02 0.02,0.03 0.01,0.03 0.02,0.04 0.01,0.03 0.01,0.04 0.01,0.03 0.01,0.04 0.01,0.04 0,0.04 0.01,0.04 0,0.04 0,0.04 0,0.05 c 0,1 -0.95,1 -1.64,1 l -29.84,0 c -0.71,0 -1.64,0 -1.64,-1 0,-0.98 0.93,-0.98 1.68,-0.98 z" /><path
           style="fill:#999999;fill-opacity:1;stroke-width:0"
           inkscape:connector-curvature="0"
           id="path4854"
           d="m 566.12,412.82 0.07,0 0.06,0 0.14,0.01 0.14,0 0.07,0 0.07,0.01 0.07,0.01 0.07,0 0.06,0.01 0.07,0.02 0.07,0.01 0.06,0.02 0.07,0.02 0.06,0.02 0.06,0.02 0.06,0.03 0.05,0.03 0.05,0.04 0.05,0.04 0.05,0.04 0.04,0.05 0.02,0.02 0.02,0.03 0.02,0.02 0.02,0.03 0.01,0.03 0.02,0.03 0.01,0.03 0.02,0.03 0.01,0.04 0.01,0.03 0.01,0.04 0.01,0.04 0.01,0.04 0,0.04 0.01,0.04 0,0.04 0,0.05 0,0.04 c 0,1 -0.95,1 -1.69,1 l -29.75,0 c -0.75,0 -1.68,0 -1.68,-1 0,-1 0.93,-1 1.64,-1 z" /><path
           style="fill:#999999;fill-opacity:1;stroke-width:0"
           inkscape:connector-curvature="0"
           id="path4856"
           d="m 602.68,422.04 0,-1.59 c 0,-11.66 -5.17,-13.95 -8.06,-13.95 -0.86,0 -3.55,0.11 -4.89,1.79 2.18,0 2.59,1.44 2.59,2.3 0,1.53 -1.2,2.28 -2.3,2.28 -0.79,0 -2.28,-0.44 -2.28,-2.39 0,-3.33 2.69,-5.37 6.92,-5.37 6.43,0 12.5,6.76 12.5,17.48 0,13.41 -5.73,16.8 -10.15,16.8 -2.75,0 -5.19,-0.91 -7.33,-3.14 -2.05,-2.25 -3.19,-4.35 -3.19,-8.08 0,-6.22 4.39,-11.11 9.97,-11.11 l 0.05,1.14 c -0.8,0 -3.1,0 -4.64,3.14 -0.89,1.84 -0.89,4.34 -0.89,6.78 0,2.69 0,5.03 1.04,6.88 1.35,2.48 3.24,3.14 4.99,3.14 2.28,0 3.94,-1.71 4.78,-3.94 0.59,-1.59 0.8,-4.74 0.8,-7.03 0,-4.13 -1.71,-8.97 -6.08,-8.97 l 0,0 -0.05,-1.14 c 3.03,0 5.08,2.09 6.22,4.98 z" /></g>    </g>
  </g>
  <g
     id="g6102"
     transform="translate(-16.596769,10.435487)">
    <rect
       y="88.064522"
       x="99.620033"
       height="12"
       width="34.95348"
       id="rect5827"
       style="fill:#ffffff;fill-opacity:1;stroke:none;stroke-width:1.24600005;stroke-miterlimit:4;stroke-dasharray:none;stroke-opacity:1" />
    <g
       transform="matrix(1.0583318,0,0,1.0583318,40.838646,70.440106)"
       id="g5654">
      <g
         style="font-style:normal;font-variant:normal;font-weight:normal;font-stretch:normal;letter-spacing:normal;word-spacing:normal;text-anchor:start;fill:none;fill-opacity:1;fill-rule:evenodd;stroke:#000000;stroke-linecap:butt;stroke-linejoin:miter;stroke-miterlimit:10.43299961;stroke-dasharray:none;stroke-dashoffset:0;stroke-opacity:1"
         id="g5656"
         transform="matrix(0.20142857,0,0,-0.20142857,-35.25,105.75)"
         xml:space="preserve"
         stroke-miterlimit="10.433"
         font-style="normal"
         font-variant="normal"
         font-weight="normal"
         font-stretch="normal"
         font-size-adjust="none"
         letter-spacing="normal"
         word-spacing="normal"><path
           style="fill:#000000;stroke-width:0"
           inkscape:connector-curvature="0"
           d="m 475.25,425.14 -0.14,0 -0.15,0 -0.15,-0.01 -0.14,0 -0.14,-0.01 -0.14,-0.02 -0.07,-0.01 -0.07,-0.01 -0.06,-0.02 -0.07,-0.01 -0.07,-0.02 -0.07,-0.02 -0.07,-0.02 -0.06,-0.02 -0.07,-0.03 -0.07,-0.03 -0.06,-0.03 -0.07,-0.04 -0.07,-0.04 -0.06,-0.04 -0.07,-0.05 -0.07,-0.04 -0.06,-0.06 -0.07,-0.05 -0.06,-0.06 -0.07,-0.07 c -0.8,-0.75 -0.89,-1.59 -0.89,-1.93 0,-1.21 0.89,-1.75 1.84,-1.75 1.44,0 2.8,1.2 2.8,3.18 0,2.44 -2.34,4.28 -5.89,4.28 -6.72,0 -13.34,-7.12 -13.34,-14.14 0,-4.48 2.89,-8.42 8.06,-8.42 7.12,0 11.31,5.28 11.31,5.88 0,0.29 -0.3,0.65 -0.59,0.65 -0.25,0 -0.35,-0.11 -0.66,-0.5 -3.94,-4.93 -9.36,-4.93 -9.95,-4.93 -3.14,0 -4.49,2.43 -4.49,5.43 0,2.03 0.99,6.88 2.69,9.96 1.55,2.84 4.28,4.98 7.02,4.98 1.7,0 3.59,-0.64 4.29,-1.98 z"
           id="path5658" /><path
           style="fill:#000000;stroke-width:0"
           inkscape:connector-curvature="0"
           d="m 492.17,438.87 0,0.06 0,0.07 0,0.06 0,0.06 -0.01,0.05 0,0.06 0,0.05 0,0.05 -0.01,0.05 -0.01,0.05 -0.01,0.05 -0.01,0.04 -0.01,0.05 -0.01,0.04 -0.02,0.04 -0.02,0.03 -0.02,0.04 -0.02,0.03 -0.03,0.03 -0.02,0.03 -0.04,0.03 -0.03,0.02 -0.04,0.02 -0.02,0.01 -0.02,0.01 -0.02,0.01 -0.03,0.01 -0.02,0.01 -0.03,0.01 -0.02,0 -0.03,0.01 -0.03,0.01 -0.03,0 -0.03,0.01 -0.03,0 -0.03,0 -0.03,0.01 -0.04,0 -0.03,0 -0.04,0 -0.04,0 c -0.25,0 -0.34,0 -0.91,-0.28 -0.07,-0.03 -0.53,-0.24 -0.65,-0.24 -0.05,0 -0.11,0 -0.25,0.07 -1.44,0.45 -2.89,0.45 -3.63,0.45 -1.01,0 -3.14,0 -4.87,-0.94 -1.99,-1.11 -2.27,-2.92 -2.27,-3.73 0,-3.75 4.6,-4.45 7.03,-4.85 2.13,-0.31 4.67,-0.68 4.67,-2.5 0,-2.37 -3.45,-2.37 -4.28,-2.37 -3.31,0 -4.53,1.5 -5.18,3.39 -0.22,0.58 -0.25,0.66 -1.13,0.66 -1,0 -1.11,-0.11 -1.11,-1.11 l 0,-3.42 c 0,-0.71 0,-1.11 0.8,-1.11 0.31,0 0.39,0 1.11,0.45 0.22,0.09 0.78,0.41 0.98,0.55 1.81,-1 3.69,-1 4.5,-1 1.14,0 7.14,0 7.14,5.15 0,1.6 -0.84,2.72 -1.64,3.38 -1.64,1.36 -3.14,1.61 -6.03,2.06 -1.98,0.31 -4.05,0.62 -4.05,2.02 0,1.95 3.49,1.95 4.22,1.95 3.94,0 4.08,-1.61 4.19,-2.44 0.06,-0.7 0.28,-0.76 1.08,-0.76 1.01,0 1.11,0.09 1.11,1.1 z"
           id="path5660" /><path
           style="fill:#000000;stroke-width:0"
           inkscape:connector-curvature="0"
           d="m 509.67,424.09 -1.05,0 c -0.07,-0.48 -0.32,-2.01 -0.71,-2.26 -0.21,-0.16 -2.3,-0.16 -2.68,-0.16 l -4.87,0 c 1.64,1.22 3.48,2.61 4.98,3.61 2.24,1.55 4.33,3 4.33,5.64 0,3.19 -3.01,4.96 -6.58,4.96 -3.36,0 -5.82,-1.96 -5.82,-4.4 0,-1.29 1.09,-1.51 1.45,-1.51 0.67,0 1.47,0.45 1.47,1.47 0,0.89 -0.66,1.39 -1.42,1.47 0.68,1.12 2.14,1.87 3.81,1.87 2.4,0 4.42,-1.45 4.42,-3.89 0,-2.09 -1.44,-3.69 -3.36,-5.31 l -6.08,-5.16 c -0.25,-0.22 -0.26,-0.22 -0.29,-0.39 l 0,-0.75 11.57,0 z"
           id="path5662" /><path
           style="fill:#000000;stroke-width:0"
           inkscape:connector-curvature="0"
           d="m 484.93,401.78 0.1,0 0.11,0 0.11,0 0.13,0 0.13,0 0.14,0.01 0.15,0 0.15,0.01 0.16,0.01 0.17,0.01 0.18,0.01 0.18,0.01 0.18,0.01 0.19,0.01 0.38,0.04 0.4,0.04 0.4,0.05 0.41,0.06 0.4,0.07 0.41,0.08 0.19,0.04 0.2,0.05 0.19,0.05 0.19,0.06 0.18,0.05 0.18,0.06 c 2.58,0.91 3.07,2.58 3.07,3.63 0,1.92 -1.93,3.06 -4.33,3.06 l 0,-0.97 c 1.53,0 2.83,-0.77 2.83,-2.09 0,-3.38 -5.9,-3.38 -7.4,-3.38 l -1.7,0 c 1.42,5.05 5.3,5.47 6.27,5.47 l 0,0.97 c -4.17,0 -9.83,-3.2 -9.83,-9.16 0,-3.51 2.2,-6.54 6.28,-6.54 5.89,0 8.64,3.43 8.64,3.93 0,0.21 -0.31,0.6 -0.59,0.6 -0.21,0 -0.28,-0.08 -0.57,-0.36 -2.71,-3.21 -6.79,-3.21 -7.42,-3.21 -2.09,0 -3.48,1.4 -3.48,4.22 0,0.49 0,1.19 0.42,3.1 z"
           id="path5664" /><path
           style="fill:#000000;stroke-width:0"
           inkscape:connector-curvature="0"
           d="m 500.6,397.09 0,0.11 0.01,0.12 0,0.12 0,0.12 0,0.12 0.01,0.13 0,0.14 0.01,0.14 0.02,0.28 0.02,0.29 0.03,0.31 0.04,0.31 0.05,0.32 0.06,0.32 0.08,0.32 0.04,0.16 0.05,0.16 0.05,0.16 0.05,0.17 0.06,0.16 0.06,0.15 0.07,0.16 0.07,0.16 0.08,0.15 0.08,0.16 c 0.72,1.34 2.34,2.73 4.66,2.73 0.48,0 1.59,-0.04 2.34,-0.64 -0.39,-0.11 -1.05,-0.48 -1.05,-1.33 0,-0.79 0.6,-1.31 1.33,-1.31 0.42,0 1.31,0.22 1.31,1.39 0,1.35 -0.93,2.85 -3.95,2.85 -4.3,0 -8.22,-3.52 -8.22,-8.68 0,-5.95 2.91,-8.46 6.55,-8.46 2.47,0 3.64,0.92 4.48,1.62 1.6,1.31 1.92,2.78 1.92,4.03 0,1.52 -0.5,2.74 -1.79,3.89 -1.1,0.99 -2.25,1.66 -4.41,1.66 l -0.06,-0.85 c 1.28,0 2.08,-0.32 2.84,-1.31 0.75,-0.92 0.78,-1.97 0.78,-3.37 0,-1.44 0,-2.39 -0.79,-3.38 -0.71,-0.83 -1.58,-1.28 -2.97,-1.28 l 0,0 c -3.85,0 -3.85,4.14 -3.85,5.19 0,1.92 1.38,4.15 3.99,4.15 l 0.06,0.85 c -1.45,0 -3.08,-0.69 -4.11,-2.49 z"
           id="path5666" /><path
           style="fill:#000000;stroke-width:0"
           inkscape:connector-curvature="0"
           d="m 566.07,422.5 0.14,0 0.15,0 0.14,0 0.08,0.01 0.07,0 0.07,0.01 0.07,0.01 0.07,0.01 0.07,0.01 0.07,0.01 0.07,0.02 0.06,0.02 0.06,0.02 0.06,0.02 0.06,0.03 0.06,0.03 0.05,0.04 0.05,0.03 0.05,0.05 0.04,0.04 0.04,0.05 0.02,0.03 0.02,0.03 0.01,0.02 0.02,0.03 0.01,0.03 0.02,0.04 0.01,0.03 0.01,0.04 0.01,0.03 0.01,0.04 0.01,0.04 0,0.04 0.01,0.04 0,0.04 0,0.04 0,0.05 c 0,1 -0.95,1 -1.64,1 l -29.84,0 c -0.71,0 -1.64,0 -1.64,-1 0,-0.98 0.93,-0.98 1.68,-0.98 z"
           id="path5668" /><path
           style="fill:#000000;stroke-width:0"
           inkscape:connector-curvature="0"
           d="m 566.12,412.82 0.07,0 0.06,0 0.14,0.01 0.14,0 0.07,0 0.07,0.01 0.07,0.01 0.07,0 0.06,0.01 0.07,0.02 0.07,0.01 0.06,0.02 0.07,0.02 0.06,0.02 0.06,0.02 0.06,0.03 0.05,0.03 0.05,0.04 0.05,0.04 0.05,0.04 0.04,0.05 0.02,0.02 0.02,0.03 0.02,0.02 0.02,0.03 0.01,0.03 0.02,0.03 0.01,0.03 0.02,0.03 0.01,0.04 0.01,0.03 0.01,0.04 0.01,0.04 0.01,0.04 0,0.04 0.01,0.04 0,0.04 0,0.05 0,0.04 c 0,1 -0.95,1 -1.69,1 l -29.75,0 c -0.75,0 -1.68,0 -1.68,-1 0,-1 0.93,-1 1.64,-1 z"
           id="path5670" /><path
           style="fill:#000000;stroke-width:0"
           inkscape:connector-curvature="0"
           d="m 599.04,414.42 0,-4.33 c 0,-1.8 -0.09,-2.34 -3.78,-2.34 l -1.05,0 0,-1.55 c 2.05,0.16 4.64,0.16 6.74,0.16 2.09,0 4.73,0 6.76,-0.16 l 0,1.55 -1.05,0 c -3.68,0 -3.78,0.54 -3.78,2.34 l 0,4.33 4.99,0 0,1.54 -4.99,0 0,22.68 c 0,1 0,1.29 -0.79,1.29 -0.46,0 -0.6,0 -1,-0.61 l -15.3,-23.36 1.41,0 12.15,18.58 0,-18.58 -12.15,0 -1.41,0 0,-1.54 z"
           id="path5672" /></g>    </g>
  </g>
</svg>
