<?xml version="1.0" encoding="UTF-8" standalone="no"?>
<svg
   xmlns:dc="http://purl.org/dc/elements/1.1/"
   xmlns:cc="http://creativecommons.org/ns#"
   xmlns:rdf="http://www.w3.org/1999/02/22-rdf-syntax-ns#"
   xmlns:svg="http://www.w3.org/2000/svg"
   xmlns="http://www.w3.org/2000/svg"
   xmlns:sodipodi="http://sodipodi.sourceforge.net/DTD/sodipodi-0.dtd"
   xmlns:inkscape="http://www.inkscape.org/namespaces/inkscape"
   width="141"
   height="121"
   version="1.1"
   content="%3CmxGraphModel%20dx%3D%22815%22%20dy%3D%22498%22%20grid%3D%221%22%20gridSize%3D%2210%22%20guides%3D%221%22%20tooltips%3D%221%22%20connect%3D%221%22%20arrows%3D%221%22%20fold%3D%221%22%20page%3D%221%22%20pageScale%3D%221%22%20pageWidth%3D%22826%22%20pageHeight%3D%221169%22%20background%3D%22%23ffffff%22%20math%3D%220%22%20shadow%3D%220%22%3E%3Croot%3E%3CmxCell%20id%3D%220%22%2F%3E%3CmxCell%20id%3D%221%22%20parent%3D%220%22%2F%3E%3CmxCell%20id%3D%2230%22%20style%3D%22edgeStyle%3Dnone%3Brounded%3D0%3Bhtml%3D1%3BexitX%3D1%3BexitY%3D0.5%3BentryX%3D0%3BentryY%3D0.5%3BstartArrow%3Dnone%3BstartFill%3D0%3BendArrow%3Dnone%3BendFill%3D0%3BjettySize%3Dauto%3BorthogonalLoop%3D1%3BstrokeColor%3D%23000000%3B%22%20parent%3D%221%22%20source%3D%222%22%20target%3D%2229%22%20edge%3D%221%22%3E%3CmxGeometry%20relative%3D%221%22%20as%3D%22geometry%22%2F%3E%3C%2FmxCell%3E%3CmxCell%20id%3D%222%22%20value%3D%22%22%20style%3D%22ellipse%3BwhiteSpace%3Dwrap%3BfillColor%3Dnone%22%20parent%3D%221%22%20vertex%3D%221%22%3E%3CmxGeometry%20x%3D%2220%22%20y%3D%2280%22%20width%3D%2220%22%20height%3D%2220%22%20as%3D%22geometry%22%2F%3E%3C%2FmxCell%3E%3CmxCell%20id%3D%2227%22%20style%3D%22edgeStyle%3Dnone%3Brounded%3D0%3Bhtml%3D1%3BexitX%3D1%3BexitY%3D1%3BstartArrow%3Dnone%3BstartFill%3D0%3BendArrow%3Dnone%3BendFill%3D0%3BjettySize%3Dauto%3BorthogonalLoop%3D1%3BstrokeColor%3D%23000000%3B%22%20parent%3D%221%22%20source%3D%2212%22%20target%3D%2224%22%20edge%3D%221%22%3E%3CmxGeometry%20relative%3D%221%22%20as%3D%22geometry%22%2F%3E%3C%2FmxCell%3E%3CmxCell%20id%3D%2212%22%20value%3D%22%22%20style%3D%22ellipse%3BwhiteSpace%3Dwrap%3BfillColor%3Dnone%22%20parent%3D%221%22%20vertex%3D%221%22%3E%3CmxGeometry%20x%3D%2280%22%20y%3D%2230%22%20width%3D%2220%22%20height%3D%2220%22%20as%3D%22geometry%22%2F%3E%3C%2FmxCell%3E%3CmxCell%20id%3D%2213%22%20value%3D%22%22%20style%3D%22endArrow%3Dnone%3BexitX%3D1%3BexitY%3D0%3BendFill%3D0%3BstrokeColor%3D%23999999%3Bdashed%3D1%3B%22%20parent%3D%221%22%20source%3D%222%22%20target%3D%2212%22%20edge%3D%221%22%3E%3CmxGeometry%20relative%3D%221%22%20as%3D%22geometry%22%2F%3E%3C%2FmxCell%3E%3CmxCell%20id%3D%2214%22%20value%3D%22%22%20style%3D%22ellipse%3BwhiteSpace%3Dwrap%22%20parent%3D%221%22%20vertex%3D%221%22%3E%3CmxGeometry%20x%3D%2280%22%20y%3D%22130%22%20width%3D%2220%22%20height%3D%2220%22%20as%3D%22geometry%22%2F%3E%3C%2FmxCell%3E%3CmxCell%20id%3D%2216%22%20value%3D%22%22%20style%3D%22endArrow%3Dnone%3BexitX%3D1%3BexitY%3D1%3BentryX%3D0%3BentryY%3D0%3BendFill%3D0%3BstrokeColor%3D%23999999%3Bdashed%3D1%3B%22%20parent%3D%221%22%20source%3D%222%22%20target%3D%2214%22%20edge%3D%221%22%3E%3CmxGeometry%20relative%3D%221%22%20as%3D%22geometry%22%2F%3E%3C%2FmxCell%3E%3CmxCell%20id%3D%2228%22%20style%3D%22edgeStyle%3Dnone%3Brounded%3D0%3Bhtml%3D1%3BexitX%3D0%3BexitY%3D1%3BentryX%3D1%3BentryY%3D0%3BstartArrow%3Dnone%3BstartFill%3D0%3BendArrow%3Dnone%3BendFill%3D0%3BjettySize%3Dauto%3BorthogonalLoop%3D1%3BstrokeColor%3D%23000000%3B%22%20parent%3D%221%22%20source%3D%2224%22%20target%3D%2214%22%20edge%3D%221%22%3E%3CmxGeometry%20relative%3D%221%22%20as%3D%22geometry%22%2F%3E%3C%2FmxCell%3E%3CmxCell%20id%3D%2224%22%20value%3D%22%22%20style%3D%22ellipse%3BwhiteSpace%3Dwrap%22%20parent%3D%221%22%20vertex%3D%221%22%3E%3CmxGeometry%20x%3D%22140%22%20y%3D%2280%22%20width%3D%2220%22%20height%3D%2220%22%20as%3D%22geometry%22%2F%3E%3C%2FmxCell%3E%3CmxCell%20id%3D%2231%22%20style%3D%22edgeStyle%3Dnone%3Brounded%3D0%3Bhtml%3D1%3BexitX%3D0.5%3BexitY%3D0%3BentryX%3D0.5%3BentryY%3D1%3BstartArrow%3Dnone%3BstartFill%3D0%3BendArrow%3Dnone%3BendFill%3D0%3BjettySize%3Dauto%3BorthogonalLoop%3D1%3BstrokeColor%3D%23999999%3Bdashed%3D1%3B%22%20parent%3D%221%22%20source%3D%2229%22%20target%3D%2212%22%20edge%3D%221%22%3E%3CmxGeometry%20relative%3D%221%22%20as%3D%22geometry%22%2F%3E%3C%2FmxCell%3E%3CmxCell%20id%3D%2232%22%20style%3D%22edgeStyle%3Dnone%3Brounded%3D0%3Bhtml%3D1%3BexitX%3D1%3BexitY%3D0.5%3BentryX%3D0%3BentryY%3D0.5%3BstartArrow%3Dnone%3BstartFill%3D0%3BendArrow%3Dnone%3BendFill%3D0%3BjettySize%3Dauto%3BorthogonalLoop%3D1%3BstrokeColor%3D%23000000%3B%22%20parent%3D%221%22%20source%3D%2229%22%20target%3D%2224%22%20edge%3D%221%22%3E%3CmxGeometry%20relative%3D%221%22%20as%3D%22geometry%22%2F%3E%3C%2FmxCell%3E%3CmxCell%20id%3D%2233%22%20style%3D%22edgeStyle%3Dnone%3Brounded%3D0%3Bhtml%3D1%3BexitX%3D0.5%3BexitY%3D1%3BentryX%3D0.5%3BentryY%3D0%3BstartArrow%3Dnone%3BstartFill%3D0%3BendArrow%3Dnone%3BendFill%3D0%3BjettySize%3Dauto%3BorthogonalLoop%3D1%3BstrokeColor%3D%23999999%3Bdashed%3D1%3B%22%20parent%3D%221%22%20source%3D%2229%22%20target%3D%2214%22%20edge%3D%221%22%3E%3CmxGeometry%20relative%3D%221%22%20as%3D%22geometry%22%2F%3E%3C%2FmxCell%3E%3CmxCell%20id%3D%2229%22%20value%3D%22%22%20style%3D%22ellipse%3BwhiteSpace%3Dwrap%3BfillColor%3Dnone%22%20parent%3D%221%22%20vertex%3D%221%22%3E%3CmxGeometry%20x%3D%2280%22%20y%3D%2280%22%20width%3D%2220%22%20height%3D%2220%22%20as%3D%22geometry%22%2F%3E%3C%2FmxCell%3E%3C%2Froot%3E%3C%2FmxGraphModel%3E"
   id="svg2"
   inkscape:version="0.91 r13725"
   sodipodi:docname="b.svg">
  <sodipodi:namedview
     pagecolor="#ffffff"
     bordercolor="#666666"
     borderopacity="1"
     objecttolerance="10"
     gridtolerance="10"
     guidetolerance="10"
     inkscape:pageopacity="0"
     inkscape:pageshadow="2"
     inkscape:window-width="1301"
     inkscape:window-height="744"
     id="namedview34"
     showgrid="false"
     inkscape:zoom="3.35"
     inkscape:cx="29.330288"
     inkscape:cy="48.559702"
     inkscape:window-x="65"
     inkscape:window-y="24"
     inkscape:window-maximized="1"
     inkscape:current-layer="svg2"
     fit-margin-top="0"
     fit-margin-left="0"
     fit-margin-right="0"
     fit-margin-bottom="0" />
  <metadata
     id="metadata36">
    <rdf:RDF>
      <cc:Work
         rdf:about="">
        <dc:format>image/svg+xml</dc:format>
        <dc:type
           rdf:resource="http://purl.org/dc/dcmitype/StillImage" />
        <dc:title></dc:title>
      </cc:Work>
    </rdf:RDF>
  </metadata>
  <defs
     id="defs4" />
  <g
     transform="translate(-0.5,-0.5)"
     id="g6"
     style="fill:none">
    <path
       d="m 21,61 40,0"
       stroke-miterlimit="10"
       pointer-events="none"
       id="path8"
       style="fill:none;stroke:#000000;stroke-miterlimit:10"
       inkscape:connector-curvature="0" />
    <path
       d="m 78,18 45.23,36.7"
       stroke-miterlimit="10"
       pointer-events="none"
       id="path12"
       style="fill:none;stroke:#000000;stroke-miterlimit:10"
       inkscape:connector-curvature="0" />
    <path
       d="M 18,54 63.23,17.3"
       stroke-miterlimit="10"
       pointer-events="none"
       id="path16"
       style="fill:none;stroke:#999999;stroke-miterlimit:10;stroke-dasharray:3, 3"
       inkscape:connector-curvature="0" />
    <path
       d="m 18,68 46,36"
       stroke-miterlimit="10"
       pointer-events="none"
       id="path20"
       style="fill:none;stroke:#999999;stroke-miterlimit:10;stroke-dasharray:3, 3"
       inkscape:connector-curvature="0" />
    <path
       d="M 124,68 78,104"
       stroke-miterlimit="10"
       pointer-events="none"
       id="path22"
       style="fill:none;stroke:#000000;stroke-miterlimit:10"
       inkscape:connector-curvature="0" />
    <path
       d="M 71,51 71,21"
       stroke-miterlimit="10"
       pointer-events="none"
       id="path26"
       style="fill:none;stroke:#999999;stroke-miterlimit:10;stroke-dasharray:3, 3"
       inkscape:connector-curvature="0" />
    <path
       d="m 81,61 40,0"
       stroke-miterlimit="10"
       pointer-events="none"
       id="path28"
       style="fill:none;stroke:#000000;stroke-miterlimit:10"
       inkscape:connector-curvature="0" />
    <path
       d="m 71,71 0,30"
       stroke-miterlimit="10"
       pointer-events="none"
       id="path30"
       style="fill:none;stroke:#999999;stroke-miterlimit:10;stroke-dasharray:3, 3"
       inkscape:connector-curvature="0" />
    <circle
       cx="71"
       cy="61"
       pointer-events="none"
       id="ellipse32"
       style="fill:none;stroke:#000000"
       r="10" />
    <circle
       cx="11"
       cy="61"
       pointer-events="none"
       id="ellipse10"
       style="fill:none;stroke:#000000"
       r="10" />
    <circle
       cx="71"
       cy="11"
       pointer-events="none"
       id="ellipse14"
       style="fill:none;stroke:#000000"
       r="10" />
    <circle
       cx="71"
       cy="111"
       pointer-events="none"
       id="ellipse18"
       style="fill:none;stroke:#000000"
       r="10" />
    <circle
       cx="131"
       cy="61"
       pointer-events="none"
       id="ellipse24"
       style="fill:none;stroke:#000000"
       r="10" />
  </g>
  <g
     style="fill:none"
     transform="matrix(1.3717517,0,0,1.3717517,-60.16584,-15.575809)"
     id="g5609">
    <g
       style="font-style:normal;font-variant:normal;font-weight:normal;font-stretch:normal;letter-spacing:normal;word-spacing:normal;text-anchor:start;fill:none;fill-opacity:1;fill-rule:evenodd;stroke:#000000;stroke-linecap:butt;stroke-linejoin:miter;stroke-miterlimit:10.43299961;stroke-dasharray:none;stroke-dashoffset:0;stroke-opacity:1"
       word-spacing="normal"
       letter-spacing="normal"
       font-size-adjust="none"
       font-stretch="normal"
       font-weight="normal"
       font-variant="normal"
       font-style="normal"
       stroke-miterlimit="10.433"
       xml:space="preserve"
       transform="matrix(0.17571429,0,0,-0.17571429,-30.75,129.75)"
       id="g5611"><path
         style="fill:#000000;stroke-width:0"
         inkscape:connector-curvature="0"
         id="path5613"
         d="m 470.16,438.09 0,0.05 0,0.06 0,0.05 0,0.05 0,0.05 0,0.05 0,0.04 0,0.05 0,0.04 0,0.04 -0.01,0.04 0,0.04 0,0.04 0,0.03 0,0.04 -0.01,0.03 -0.01,0.07 0,0.06 -0.02,0.05 -0.01,0.05 -0.02,0.05 -0.02,0.04 -0.02,0.04 -0.02,0.03 -0.03,0.03 -0.03,0.03 -0.04,0.03 -0.04,0.02 -0.04,0.02 -0.03,0.01 -0.02,0.01 -0.03,0 -0.02,0.01 -0.03,0.01 -0.03,0 -0.03,0.01 -0.03,0 -0.04,0.01 -0.03,0 -0.04,0 -0.03,0.01 -0.04,0 -0.04,0 -0.05,0 -0.04,0 -0.04,0 -0.05,0.01 -0.05,0 -0.05,0 -0.05,0 -0.05,0 c -3.09,-3.19 -7.47,-3.19 -9.06,-3.19 l 0,-1.55 c 1,0 3.93,0 6.51,1.3 l 0,-25.81 c 0,-1.8 -0.14,-2.39 -4.62,-2.39 l -1.6,0 0,-1.55 c 1.75,0.16 6.08,0.16 8.07,0.16 2,0 6.32,0 8.07,-0.16 l 0,1.55 -1.59,0 c -4.48,0 -4.64,0.54 -4.64,2.39 z" /></g>  </g>
  <g
     style="fill:none"
     transform="matrix(1.3717517,0,0,1.3717517,-0.11040231,-65.575808)"
     id="g5839">
    <g
       style="font-style:normal;font-variant:normal;font-weight:normal;font-stretch:normal;letter-spacing:normal;word-spacing:normal;text-anchor:start;fill:none;fill-opacity:1;fill-rule:evenodd;stroke:#000000;stroke-linecap:butt;stroke-linejoin:miter;stroke-miterlimit:10.43299961;stroke-dasharray:none;stroke-dashoffset:0;stroke-opacity:1"
       id="g5841"
       transform="matrix(0.17571429,0,0,-0.17571429,-30.75,129.75)"
       xml:space="preserve"
       stroke-miterlimit="10.433"
       font-style="normal"
       font-variant="normal"
       font-weight="normal"
       font-stretch="normal"
       font-size-adjust="none"
       letter-spacing="normal"
       word-spacing="normal"><path
         style="fill:#000000;stroke-width:0"
         inkscape:connector-curvature="0"
         d="m 461.85,410.04 5.28,5.13 c 7.76,6.87 10.76,9.56 10.76,14.54 0,5.69 -4.48,9.68 -10.56,9.68 -5.64,0 -9.33,-4.6 -9.33,-9.03 0,-2.79 2.5,-2.79 2.64,-2.79 0.86,0 2.6,0.6 2.6,2.64 0,1.3 -0.89,2.6 -2.64,2.6 -0.39,0 -0.5,0 -0.64,-0.05 1.14,3.24 3.83,5.08 6.72,5.08 4.53,0 6.68,-4.05 6.68,-8.13 0,-3.98 -2.5,-7.92 -5.23,-11.01 l -9.56,-10.66 C 458,407.5 458,407.4 458,406.2 l 18.49,0 1.4,8.67 -1.25,0 c -0.25,-1.5 -0.59,-3.69 -1.09,-4.44 -0.36,-0.39 -3.64,-0.39 -4.73,-0.39 z"
         id="path5843" /></g>  </g>
  <g
     style="fill:none"
     transform="matrix(1.3281342,0,0,1.3281342,62.133626,-13.284019)"
     id="g6075">
    <g
       style="font-style:normal;font-variant:normal;font-weight:normal;font-stretch:normal;letter-spacing:normal;word-spacing:normal;text-anchor:start;fill:none;fill-opacity:1;fill-rule:evenodd;stroke:#000000;stroke-linecap:butt;stroke-linejoin:miter;stroke-miterlimit:10.43299961;stroke-dasharray:none;stroke-dashoffset:0;stroke-opacity:1"
       word-spacing="normal"
       letter-spacing="normal"
       font-size-adjust="none"
       font-stretch="normal"
       font-weight="normal"
       font-variant="normal"
       font-style="normal"
       stroke-miterlimit="10.433"
       xml:space="preserve"
       transform="matrix(0.17571429,0,0,-0.17571429,-30.75,129.75)"
       id="g6077"><path
         style="fill:#000000;stroke-width:0"
         inkscape:connector-curvature="0"
         id="path6079"
         d="m 469.97,423.73 0.38,0.13 0.37,0.15 0.37,0.15 0.35,0.17 0.35,0.18 0.34,0.19 0.33,0.2 0.32,0.22 0.31,0.22 0.31,0.23 0.29,0.24 0.28,0.25 0.27,0.26 0.26,0.27 0.25,0.27 0.24,0.29 0.22,0.29 0.21,0.3 0.2,0.3 0.19,0.32 0.18,0.32 0.16,0.32 0.14,0.33 0.14,0.34 0.11,0.34 0.11,0.34 0.09,0.35 0.07,0.36 0.06,0.36 0.04,0.36 0.02,0.36 0.01,0.37 c 0,4.08 -4.39,6.88 -9.17,6.88 -5.03,0 -8.81,-3 -8.81,-6.78 0,-1.65 1.09,-2.6 2.54,-2.6 1.54,0 2.54,1.1 2.54,2.55 0,2.48 -2.35,2.48 -3.08,2.48 1.53,2.44 4.83,3.1 6.62,3.1 2.03,0 4.78,-1.1 4.78,-5.58 0,-0.61 -0.11,-3.49 -1.4,-5.69 -1.49,-2.39 -3.19,-2.53 -4.42,-2.59 -0.41,-0.05 -1.6,-0.14 -1.96,-0.14 -0.39,-0.05 -0.75,-0.1 -0.75,-0.6 0,-0.54 0.36,-0.54 1.21,-0.54 l 2.18,0 c 4.1,0 5.94,-3.39 5.94,-8.29 0,-6.76 -3.44,-8.21 -5.64,-8.21 -2.14,0 -5.88,0.84 -7.61,3.78 1.73,-0.24 3.28,0.86 3.28,2.75 0,1.79 -1.34,2.78 -2.8,2.78 -1.18,0 -2.78,-0.69 -2.78,-2.89 0,-4.53 4.63,-7.81 10.07,-7.81 6.07,0 10.61,4.53 10.61,9.6 0,4.1 -3.15,7.97 -8.32,9.02 z" /></g>  </g>
  <g
     style="fill:none"
     transform="matrix(1.3497907,0,0,1.3497907,1.0188466,35.706162)"
     id="g6317">
    <g
       style="font-style:normal;font-variant:normal;font-weight:normal;font-stretch:normal;letter-spacing:normal;word-spacing:normal;text-anchor:start;fill:none;fill-opacity:1;fill-rule:evenodd;stroke:#000000;stroke-linecap:butt;stroke-linejoin:miter;stroke-miterlimit:10.43299961;stroke-dasharray:none;stroke-dashoffset:0;stroke-opacity:1"
       id="g6319"
       transform="matrix(0.17571429,0,0,-0.17571429,-30.75,129.75)"
       xml:space="preserve"
       stroke-miterlimit="10.433"
       font-style="normal"
       font-variant="normal"
       font-weight="normal"
       font-stretch="normal"
       font-size-adjust="none"
       letter-spacing="normal"
       word-spacing="normal"><path
         style="fill:#000000;stroke-width:0"
         inkscape:connector-curvature="0"
         d="m 470.16,414.42 0,-4.33 c 0,-1.8 -0.09,-2.34 -3.78,-2.34 l -1.05,0 0,-1.55 c 2.05,0.16 4.64,0.16 6.74,0.16 2.09,0 4.73,0 6.76,-0.16 l 0,1.55 -1.04,0 c -3.69,0 -3.79,0.54 -3.79,2.34 l 0,4.33 4.99,0 0,1.54 -4.99,0 0,22.68 c 0,1 0,1.29 -0.79,1.29 -0.46,0 -0.6,0 -1,-0.61 l -15.3,-23.36 1.41,0 12.15,18.58 0,-18.58 -12.15,0 -1.41,0 0,-1.54 z"
         id="path6321" /></g>  </g>
  <g
     style="fill:none"
     transform="matrix(1.3281342,0,0,1.3281342,2.1347922,-13.284019)"
     id="g6565">
    <g
       style="font-style:normal;font-variant:normal;font-weight:normal;font-stretch:normal;letter-spacing:normal;word-spacing:normal;text-anchor:start;fill:none;fill-opacity:1;fill-rule:evenodd;stroke:#000000;stroke-linecap:butt;stroke-linejoin:miter;stroke-miterlimit:10.43299961;stroke-dasharray:none;stroke-dashoffset:0;stroke-opacity:1"
       word-spacing="normal"
       letter-spacing="normal"
       font-size-adjust="none"
       font-stretch="normal"
       font-weight="normal"
       font-variant="normal"
       font-style="normal"
       stroke-miterlimit="10.433"
       xml:space="preserve"
       transform="matrix(0.17571429,0,0,-0.17571429,-30.75,129.75)"
       id="g6567"><path
         style="fill:#000000;stroke-width:0"
         inkscape:connector-curvature="0"
         id="path6569"
         d="m 477.89,416.21 -0.01,0.56 -0.03,0.54 -0.06,0.54 -0.08,0.53 -0.1,0.53 -0.13,0.51 -0.14,0.5 -0.17,0.5 -0.18,0.48 -0.21,0.47 -0.22,0.46 -0.24,0.44 -0.26,0.43 -0.28,0.41 -0.29,0.4 -0.31,0.38 -0.33,0.36 -0.34,0.35 -0.36,0.32 -0.37,0.31 -0.38,0.29 -0.4,0.26 -0.41,0.25 -0.42,0.22 -0.43,0.2 -0.44,0.17 -0.46,0.15 -0.46,0.13 -0.48,0.09 -0.48,0.07 -0.49,0.05 -0.5,0.01 c -2.39,0 -4.54,-0.8 -6.33,-2.53 l 0,9.7 c 1,-0.29 2.64,-0.64 4.23,-0.64 6.13,0 9.61,4.53 9.61,5.19 0,0.3 -0.14,0.55 -0.5,0.55 -0.05,0 -0.14,0 -0.39,-0.16 -1,-0.45 -3.44,-1.44 -6.78,-1.44 -1.98,0 -4.28,0.35 -6.63,1.39 -0.39,0.14 -0.5,0.14 -0.59,0.14 -0.5,0 -0.5,-0.39 -0.5,-1.18 l 0,-14.75 c 0,-0.89 0,-1.3 0.7,-1.3 0.35,0 0.44,0.16 0.64,0.45 0.55,0.8 2.4,3.49 6.43,3.49 2.59,0 3.84,-2.3 4.23,-3.19 0.81,-1.84 0.91,-3.78 0.91,-6.28 0,-1.74 0,-4.74 -1.21,-6.83 -1.18,-1.94 -3.03,-3.23 -5.32,-3.23 -3.64,0 -6.47,2.64 -7.33,5.57 0.15,-0.04 0.31,-0.09 0.86,-0.09 1.64,0 2.48,1.25 2.48,2.44 0,1.2 -0.84,2.44 -2.48,2.44 -0.71,0 -2.46,-0.35 -2.46,-2.65 0,-4.28 3.44,-9.1 9.04,-9.1 5.76,0 10.85,4.78 10.85,11.1 z" /></g>  </g>
  <g
     id="g4374"
     transform="translate(-9.5864942,5.6723885)">
    <rect
       y="19.477612"
       x="32.272285"
       height="12"
       width="34.858418"
       id="rect4261"
       style="fill:#ffffff;fill-opacity:1;stroke:none;stroke-width:1.24600005;stroke-miterlimit:4;stroke-dasharray:none;stroke-opacity:1" />
    <g
       style="fill:#999999;fill-opacity:1"
       transform="matrix(0.93491062,0,0,0.93491062,-12.695077,-5.3614554)"
       id="g6818">
      <g
         style="font-style:normal;font-variant:normal;font-weight:normal;font-stretch:normal;letter-spacing:normal;word-spacing:normal;text-anchor:start;fill:#999999;fill-opacity:1;fill-rule:evenodd;stroke:#000000;stroke-linecap:butt;stroke-linejoin:miter;stroke-miterlimit:10.43299961;stroke-dasharray:none;stroke-dashoffset:0;stroke-opacity:1"
         id="g6820"
         transform="matrix(0.17571429,0,0,-0.17571429,-30.75,107.25)"
         xml:space="preserve"
         stroke-miterlimit="10.433"
         font-style="normal"
         font-variant="normal"
         font-weight="normal"
         font-stretch="normal"
         font-size-adjust="none"
         letter-spacing="normal"
         word-spacing="normal"><path
           style="fill:#999999;fill-opacity:1;stroke-width:0"
           inkscape:connector-curvature="0"
           d="m 475.25,418.9 -0.14,0 -0.15,0 -0.15,-0.01 -0.14,0 -0.14,-0.01 -0.14,-0.02 -0.07,-0.01 -0.07,-0.01 -0.06,-0.01 -0.07,-0.02 -0.07,-0.02 -0.07,-0.02 -0.07,-0.02 -0.06,-0.02 -0.07,-0.03 -0.07,-0.03 -0.06,-0.03 -0.07,-0.04 -0.07,-0.04 -0.06,-0.04 -0.07,-0.04 -0.07,-0.05 -0.06,-0.06 -0.07,-0.05 -0.06,-0.06 -0.07,-0.06 c -0.8,-0.75 -0.89,-1.6 -0.89,-1.94 0,-1.21 0.89,-1.75 1.84,-1.75 1.44,0 2.8,1.2 2.8,3.19 0,2.43 -2.34,4.28 -5.89,4.28 -6.72,0 -13.34,-7.13 -13.34,-14.14 0,-4.49 2.89,-8.43 8.06,-8.43 7.12,0 11.31,5.29 11.31,5.88 0,0.3 -0.3,0.66 -0.59,0.66 -0.25,0 -0.35,-0.11 -0.66,-0.5 -3.94,-4.94 -9.36,-4.94 -9.95,-4.94 -3.14,0 -4.49,2.44 -4.49,5.44 0,2.03 0.99,6.87 2.69,9.95 1.55,2.84 4.28,4.98 7.02,4.98 1.7,0 3.59,-0.64 4.29,-1.98 z"
           id="path6822" /><path
           style="fill:#999999;fill-opacity:1;stroke-width:0"
           inkscape:connector-curvature="0"
           d="m 492.17,441.75 0,0.06 0,0.07 0,0.06 0,0.06 -0.01,0.05 0,0.06 0,0.05 0,0.05 -0.01,0.05 -0.01,0.05 -0.01,0.05 -0.01,0.04 -0.01,0.05 -0.01,0.04 -0.02,0.04 -0.02,0.03 -0.02,0.04 -0.02,0.03 -0.03,0.03 -0.02,0.03 -0.04,0.03 -0.03,0.02 -0.04,0.02 -0.02,0.01 -0.02,0.01 -0.02,0.01 -0.03,0.01 -0.02,0.01 -0.03,0.01 -0.02,0 -0.03,0.01 -0.03,0 -0.03,0.01 -0.03,0 -0.03,0.01 -0.03,0 -0.03,0 -0.04,0.01 -0.03,0 -0.04,0 -0.04,0 c -0.25,0 -0.34,0 -0.91,-0.28 -0.07,-0.03 -0.53,-0.24 -0.65,-0.24 -0.05,0 -0.11,0 -0.25,0.07 -1.44,0.45 -2.89,0.45 -3.63,0.45 -1.01,0 -3.14,0 -4.87,-0.94 -1.99,-1.11 -2.27,-2.92 -2.27,-3.73 0,-3.75 4.6,-4.46 7.03,-4.85 2.13,-0.31 4.67,-0.68 4.67,-2.5 0,-2.37 -3.45,-2.37 -4.28,-2.37 -3.31,0 -4.53,1.5 -5.18,3.39 -0.22,0.58 -0.25,0.66 -1.13,0.66 -1,0 -1.11,-0.11 -1.11,-1.11 l 0,-3.43 c 0,-0.7 0,-1.1 0.8,-1.1 0.31,0 0.39,0 1.11,0.45 0.22,0.09 0.78,0.4 0.98,0.55 1.81,-1 3.69,-1 4.5,-1 1.14,0 7.14,0 7.14,5.15 0,1.59 -0.84,2.72 -1.64,3.38 -1.64,1.36 -3.14,1.61 -6.03,2.06 -1.98,0.31 -4.05,0.62 -4.05,2.01 0,1.96 3.49,1.96 4.22,1.96 3.94,0 4.08,-1.61 4.19,-2.44 0.06,-0.7 0.28,-0.77 1.08,-0.77 1.01,0 1.11,0.1 1.11,1.11 z"
           id="path6824" /><path
           style="fill:#999999;fill-opacity:1;stroke-width:0"
           inkscape:connector-curvature="0"
           d="m 503.97,453.78 0,0 0,0 0.01,0.01 0,0.01 0.01,0.01 0.01,0.01 0,0.02 0.01,0.02 0.01,0.01 0.01,0.03 0.01,0.02 0.01,0.02 0.01,0.03 0.01,0.03 0.01,0.03 0.01,0.02 0.02,0.04 0.01,0.03 0.01,0.03 0.01,0.03 0.01,0.04 0.01,0.03 0.01,0.04 0.01,0.04 0,0.03 0.01,0.04 0.01,0.03 0,0.04 0.01,0.04 0,0.03 0.01,0.04 0,0.04 0,0.03 c 0,0.91 -0.8,1.47 -1.55,1.47 -1.01,0 -1.29,-0.76 -1.42,-1.14 l -3.83,-10.78 c -0.11,-0.31 -0.11,-0.38 -0.11,-0.41 0,-0.39 1.05,-0.64 1.08,-0.64 0.22,0 0.27,0.13 0.42,0.42 z"
           id="path6826" /><path
           style="fill:#999999;fill-opacity:1;stroke-width:0"
           inkscape:connector-curvature="0"
           d="m 510.38,421.18 0,1.1 -3.13,0 0,10.97 c 0,0.59 -0.02,0.73 -0.67,0.73 -0.5,0 -0.52,-0.02 -0.8,-0.37 l -9.22,-11.33 0,-1.1 8.3,0 0.2,1.1 -7.33,0 7.33,9.01 0,-9.01 -0.2,-1.1 0,-1.93 c 0,-0.79 0,-1.04 -2.16,-1.04 l -0.87,0 0,-1.09 c 1.17,0.05 2.78,0.09 4.23,0.09 1.44,0 3.03,-0.04 4.24,-0.09 l 0,1.09 -0.88,0 c -2.17,0 -2.17,0.25 -2.17,1.04 l 0,1.93 z"
           id="path6828" /><path
           style="fill:#999999;fill-opacity:1;stroke-width:0"
           inkscape:connector-curvature="0"
           d="m 484.93,402.14 0.1,0 0.11,0 0.11,0 0.13,0 0.13,0 0.14,0.01 0.15,0 0.15,0.01 0.16,0.01 0.17,0.01 0.18,0 0.18,0.02 0.18,0.01 0.19,0.01 0.38,0.04 0.4,0.04 0.4,0.05 0.41,0.06 0.4,0.07 0.41,0.08 0.19,0.04 0.2,0.05 0.19,0.05 0.19,0.05 0.18,0.06 0.18,0.06 c 2.58,0.91 3.07,2.58 3.07,3.63 0,1.92 -1.93,3.06 -4.33,3.06 l 0,-0.97 c 1.53,0 2.83,-0.77 2.83,-2.09 0,-3.38 -5.9,-3.38 -7.4,-3.38 l -1.7,0 c 1.42,5.05 5.3,5.47 6.27,5.47 l 0,0.97 c -4.17,0 -9.83,-3.2 -9.83,-9.16 0,-3.51 2.2,-6.54 6.28,-6.54 5.89,0 8.64,3.43 8.64,3.93 0,0.21 -0.31,0.6 -0.59,0.6 -0.21,0 -0.28,-0.08 -0.57,-0.36 -2.71,-3.21 -6.79,-3.21 -7.42,-3.21 -2.09,0 -3.48,1.39 -3.48,4.22 0,0.49 0,1.19 0.42,3.1 z"
           id="path6830" /><path
           style="fill:#999999;fill-opacity:1;stroke-width:0"
           inkscape:connector-curvature="0"
           d="m 505.88,405 0,0.04 0,0.03 0,0.03 0,0.04 0,0.03 0,0.03 0,0.02 0,0.03 0,0.03 -0.01,0.02 0,0.03 0,0.02 0,0.02 -0.01,0.03 0,0.02 0,0.02 -0.01,0.02 0,0.02 -0.01,0.03 -0.01,0.03 -0.02,0.03 -0.01,0.03 -0.02,0.02 -0.02,0.02 -0.02,0.02 -0.02,0.02 -0.03,0.01 -0.03,0.01 -0.03,0.01 -0.04,0.01 -0.04,0.01 -0.04,0.01 -0.02,0 -0.02,0 -0.03,0 -0.02,0.01 -0.03,0 -0.02,0 -0.03,0 -0.03,0 -0.03,0 -0.03,0 -0.03,0 -0.03,0 -0.03,0 -0.04,0 -0.03,0 -0.04,0 -0.03,0 -0.04,0 c -1.77,-1.59 -4.53,-1.59 -5.03,-1.59 l -0.43,0 0,-1.09 0.43,0 c 0.57,0 2.18,0.06 3.64,0.68 l 0,-12.45 c 0,-0.76 0,-1.05 -2.64,-1.05 l -1.25,0 0,-1.09 c 1.37,0.09 3.59,0.09 5.03,0.09 1.45,0 3.67,0 5.03,-0.09 l 0,1.09 -1.24,0 c -2.64,0 -2.64,0.29 -2.64,1.05 z"
           id="path6832" /><path
           style="fill:#999999;fill-opacity:1;stroke-width:0"
           inkscape:connector-curvature="0"
           d="m 566.07,416.26 0.14,0 0.15,0 0.14,0 0.08,0.01 0.07,0 0.07,0.01 0.07,0.01 0.07,0.01 0.07,0.01 0.07,0.01 0.07,0.02 0.06,0.02 0.06,0.02 0.06,0.03 0.06,0.02 0.06,0.03 0.05,0.04 0.05,0.04 0.05,0.04 0.04,0.04 0.04,0.05 0.02,0.03 0.02,0.03 0.01,0.03 0.02,0.03 0.01,0.03 0.02,0.03 0.01,0.03 0.01,0.04 0.01,0.03 0.01,0.04 0.01,0.04 0,0.04 0.01,0.04 0,0.04 0,0.05 0,0.04 c 0,1 -0.95,1 -1.64,1 l -29.84,0 c -0.71,0 -1.64,0 -1.64,-1 0,-0.98 0.93,-0.98 1.68,-0.98 z"
           id="path6834" /><path
           style="fill:#999999;fill-opacity:1;stroke-width:0"
           inkscape:connector-curvature="0"
           d="m 566.12,406.59 0.07,0 0.06,0 0.14,0 0.14,0 0.07,0.01 0.07,0 0.07,0.01 0.07,0.01 0.06,0.01 0.07,0.01 0.07,0.01 0.06,0.02 0.07,0.02 0.06,0.02 0.06,0.03 0.06,0.02 0.05,0.04 0.05,0.03 0.05,0.04 0.05,0.04 0.04,0.05 0.02,0.02 0.02,0.03 0.02,0.02 0.02,0.03 0.01,0.03 0.02,0.03 0.01,0.03 0.02,0.04 0.01,0.03 0.01,0.04 0.01,0.03 0.01,0.04 0.01,0.04 0,0.04 0.01,0.04 0,0.05 0,0.04 0,0.05 c 0,1 -0.95,1 -1.69,1 l -29.75,0 c -0.75,0 -1.68,0 -1.68,-1 0,-1 0.93,-1 1.64,-1 z"
           id="path6836" /><path
           style="fill:#999999;fill-opacity:1;stroke-width:0"
           inkscape:connector-curvature="0"
           d="m 590.73,403.8 5.28,5.13 c 7.76,6.87 10.76,9.56 10.76,14.55 0,5.68 -4.48,9.67 -10.56,9.67 -5.64,0 -9.33,-4.6 -9.33,-9.03 0,-2.78 2.5,-2.78 2.64,-2.78 0.86,0 2.6,0.59 2.6,2.64 0,1.29 -0.89,2.59 -2.64,2.59 -0.39,0 -0.5,0 -0.64,-0.05 1.14,3.24 3.82,5.08 6.71,5.08 4.54,0 6.69,-4.05 6.69,-8.12 0,-3.99 -2.5,-7.93 -5.23,-11.02 l -9.56,-10.66 c -0.57,-0.54 -0.57,-0.64 -0.57,-1.84 l 18.49,0 1.4,8.67 -1.25,0 c -0.25,-1.5 -0.59,-3.68 -1.09,-4.43 -0.36,-0.4 -3.64,-0.4 -4.73,-0.4 z"
           id="path6838" /><path
           style="fill:#999999;fill-opacity:1;stroke-width:0"
           inkscape:connector-curvature="0"
           d="m 627.8,423.8 0,1.25 -3.88,0 0,15.54 c 0,0.72 0,0.97 -0.76,0.97 -0.43,0 -0.57,0 -0.91,-0.48 l -11.53,-16.03 0,-1.25 10.25,0 0.23,1.25 -9.2,0 9.2,12.75 0,-12.75 -0.23,-1.25 0,-2.86 c 0,-1.19 0,-1.61 -2.83,-1.61 l -0.94,0 0,-1.25 c 1.74,0.06 3.97,0.14 5.22,0.14 1.3,0 3.52,-0.08 5.27,-0.14 l 0,1.25 -0.94,0 c -2.83,0 -2.83,0.42 -2.83,1.61 l 0,2.86 z"
           id="path6840" /><path
           style="fill:#999999;fill-opacity:1;stroke-width:0"
           inkscape:connector-curvature="0"
           d="m 633.41,420.27 -0.02,-0.05 -0.01,-0.04 -0.01,-0.05 -0.02,-0.05 -0.01,-0.05 -0.02,-0.05 -0.01,-0.05 -0.02,-0.06 -0.03,-0.11 -0.02,-0.11 -0.03,-0.11 -0.03,-0.11 -0.01,-0.05 -0.01,-0.05 -0.01,-0.05 -0.02,-0.05 -0.01,-0.05 -0.01,-0.05 0,-0.04 -0.01,-0.04 -0.01,-0.04 -0.01,-0.03 0,-0.03 -0.01,-0.03 0,-0.03 0,-0.02 -0.01,-0.01 0,0 0,-0.01 0,-0.01 c 0,-0.76 0.63,-1.11 1.19,-1.11 0.63,0 1.17,0.46 1.36,0.77 0.17,0.31 0.45,1.42 0.62,2.16 0.18,0.65 0.55,2.26 0.77,3.14 0.2,0.76 0.42,1.53 0.59,2.32 0.38,1.44 0.46,1.71 1.46,3.15 0.98,1.39 2.62,3.2 5.23,3.2 2.02,0 2.05,-1.78 2.05,-2.44 0,-2.09 -1.49,-5.95 -2.05,-7.42 -0.39,-0.99 -0.53,-1.3 -0.53,-1.89 0,-1.84 1.55,-2.99 3.31,-2.99 3.49,0 5.02,4.8 5.02,5.33 0,0.46 -0.46,0.46 -0.55,0.46 -0.5,0 -0.53,-0.21 -0.67,-0.6 -0.8,-2.78 -2.3,-4.22 -3.69,-4.22 -0.73,0 -0.87,0.49 -0.87,1.22 0,0.8 0.17,1.25 0.79,2.83 0.43,1.08 1.86,4.77 1.86,6.72 0,3.39 -2.68,3.97 -4.53,3.97 -2.89,0 -4.84,-1.77 -5.89,-3.16 -0.25,2.39 -2.3,3.16 -3.73,3.16 -1.5,0 -2.3,-1.08 -2.75,-1.88 -0.77,-1.28 -1.25,-3.28 -1.25,-3.45 0,-0.45 0.48,-0.45 0.59,-0.45 0.49,0 0.52,0.11 0.77,1.04 0.51,2.07 1.18,3.77 2.54,3.77 0.91,0 1.14,-0.77 1.14,-1.7 0,-0.68 -0.31,-1.96 -0.56,-2.89 -0.23,-0.96 -0.58,-2.38 -0.76,-3.15 z"
           id="path6842" /></g>    </g>
  </g>
  <g
     id="g4426"
     transform="translate(10.861265,6.4186558)">
    <rect
       y="18.731344"
       x="73.598717"
       height="12"
       width="31.310036"
       id="rect4263"
       style="fill:#ffffff;fill-opacity:1;stroke:none;stroke-width:1.24600005;stroke-miterlimit:4;stroke-dasharray:none;stroke-opacity:1" />
    <g
       transform="matrix(0.93491062,0,0,0.93491062,28.483507,-6.1077226)"
       id="g5990">
      <g
         style="font-style:normal;font-variant:normal;font-weight:normal;font-stretch:normal;letter-spacing:normal;word-spacing:normal;text-anchor:start;fill:none;fill-opacity:1;fill-rule:evenodd;stroke:#000000;stroke-linecap:butt;stroke-linejoin:miter;stroke-miterlimit:10.43299961;stroke-dasharray:none;stroke-dashoffset:0;stroke-opacity:1"
         id="g5992"
         transform="matrix(0.17571429,0,0,-0.17571429,-30.75,107.25)"
         xml:space="preserve"
         stroke-miterlimit="10.433"
         font-style="normal"
         font-variant="normal"
         font-weight="normal"
         font-stretch="normal"
         font-size-adjust="none"
         letter-spacing="normal"
         word-spacing="normal"><path
           style="fill:#000000;stroke-width:0"
           inkscape:connector-curvature="0"
           d="m 475.25,418.9 -0.14,0 -0.15,0 -0.15,-0.01 -0.14,0 -0.14,-0.01 -0.14,-0.02 -0.07,-0.01 -0.07,-0.01 -0.06,-0.01 -0.07,-0.02 -0.07,-0.02 -0.07,-0.02 -0.07,-0.02 -0.06,-0.02 -0.07,-0.03 -0.07,-0.03 -0.06,-0.03 -0.07,-0.04 -0.07,-0.04 -0.06,-0.04 -0.07,-0.04 -0.07,-0.05 -0.06,-0.06 -0.07,-0.05 -0.06,-0.06 -0.07,-0.06 c -0.8,-0.75 -0.89,-1.6 -0.89,-1.94 0,-1.21 0.89,-1.75 1.84,-1.75 1.44,0 2.8,1.2 2.8,3.19 0,2.43 -2.34,4.28 -5.89,4.28 -6.72,0 -13.34,-7.13 -13.34,-14.14 0,-4.49 2.89,-8.43 8.06,-8.43 7.12,0 11.31,5.29 11.31,5.88 0,0.3 -0.3,0.66 -0.59,0.66 -0.25,0 -0.35,-0.11 -0.66,-0.5 -3.94,-4.94 -9.36,-4.94 -9.95,-4.94 -3.14,0 -4.49,2.44 -4.49,5.44 0,2.03 0.99,6.87 2.69,9.95 1.55,2.84 4.28,4.98 7.02,4.98 1.7,0 3.59,-0.64 4.29,-1.98 z"
           id="path5994" /><path
           style="fill:#000000;stroke-width:0"
           inkscape:connector-curvature="0"
           d="m 492.17,441.75 0,0.06 0,0.07 0,0.06 0,0.06 -0.01,0.05 0,0.06 0,0.05 0,0.05 -0.01,0.05 -0.01,0.05 -0.01,0.05 -0.01,0.04 -0.01,0.05 -0.01,0.04 -0.02,0.04 -0.02,0.03 -0.02,0.04 -0.02,0.03 -0.03,0.03 -0.02,0.03 -0.04,0.03 -0.03,0.02 -0.04,0.02 -0.02,0.01 -0.02,0.01 -0.02,0.01 -0.03,0.01 -0.02,0.01 -0.03,0.01 -0.02,0 -0.03,0.01 -0.03,0 -0.03,0.01 -0.03,0 -0.03,0.01 -0.03,0 -0.03,0 -0.04,0.01 -0.03,0 -0.04,0 -0.04,0 c -0.25,0 -0.34,0 -0.91,-0.28 -0.07,-0.03 -0.53,-0.24 -0.65,-0.24 -0.05,0 -0.11,0 -0.25,0.07 -1.44,0.45 -2.89,0.45 -3.63,0.45 -1.01,0 -3.14,0 -4.87,-0.94 -1.99,-1.11 -2.27,-2.92 -2.27,-3.73 0,-3.75 4.6,-4.46 7.03,-4.85 2.13,-0.31 4.67,-0.68 4.67,-2.5 0,-2.37 -3.45,-2.37 -4.28,-2.37 -3.31,0 -4.53,1.5 -5.18,3.39 -0.22,0.58 -0.25,0.66 -1.13,0.66 -1,0 -1.11,-0.11 -1.11,-1.11 l 0,-3.43 c 0,-0.7 0,-1.1 0.8,-1.1 0.31,0 0.39,0 1.11,0.45 0.22,0.09 0.78,0.4 0.98,0.55 1.81,-1 3.69,-1 4.5,-1 1.14,0 7.14,0 7.14,5.15 0,1.59 -0.84,2.72 -1.64,3.38 -1.64,1.36 -3.14,1.61 -6.03,2.06 -1.98,0.31 -4.05,0.62 -4.05,2.01 0,1.96 3.49,1.96 4.22,1.96 3.94,0 4.08,-1.61 4.19,-2.44 0.06,-0.7 0.28,-0.77 1.08,-0.77 1.01,0 1.11,0.1 1.11,1.11 z"
           id="path5996" /><path
           style="fill:#000000;stroke-width:0"
           inkscape:connector-curvature="0"
           d="m 503.97,453.78 0,0 0,0 0.01,0.01 0,0.01 0.01,0.01 0.01,0.01 0,0.02 0.01,0.02 0.01,0.01 0.01,0.03 0.01,0.02 0.01,0.02 0.01,0.03 0.01,0.03 0.01,0.03 0.01,0.02 0.02,0.04 0.01,0.03 0.01,0.03 0.01,0.03 0.01,0.04 0.01,0.03 0.01,0.04 0.01,0.04 0,0.03 0.01,0.04 0.01,0.03 0,0.04 0.01,0.04 0,0.03 0.01,0.04 0,0.04 0,0.03 c 0,0.91 -0.8,1.47 -1.55,1.47 -1.01,0 -1.29,-0.76 -1.42,-1.14 l -3.83,-10.78 c -0.11,-0.31 -0.11,-0.38 -0.11,-0.41 0,-0.39 1.05,-0.64 1.08,-0.64 0.22,0 0.27,0.13 0.42,0.42 z"
           id="path5998" /><path
           style="fill:#000000;stroke-width:0"
           inkscape:connector-curvature="0"
           d="m 510.38,421.18 0,1.1 -3.13,0 0,10.97 c 0,0.59 -0.02,0.73 -0.67,0.73 -0.5,0 -0.52,-0.02 -0.8,-0.37 l -9.22,-11.33 0,-1.1 8.3,0 0.2,1.1 -7.33,0 7.33,9.01 0,-9.01 -0.2,-1.1 0,-1.93 c 0,-0.79 0,-1.04 -2.16,-1.04 l -0.87,0 0,-1.09 c 1.17,0.05 2.78,0.09 4.23,0.09 1.44,0 3.03,-0.04 4.24,-0.09 l 0,1.09 -0.88,0 c -2.17,0 -2.17,0.25 -2.17,1.04 l 0,1.93 z"
           id="path6000" /><path
           style="fill:#000000;stroke-width:0"
           inkscape:connector-curvature="0"
           d="m 484.93,402.14 0.1,0 0.11,0 0.11,0 0.13,0 0.13,0 0.14,0.01 0.15,0 0.15,0.01 0.16,0.01 0.17,0.01 0.18,0 0.18,0.02 0.18,0.01 0.19,0.01 0.38,0.04 0.4,0.04 0.4,0.05 0.41,0.06 0.4,0.07 0.41,0.08 0.19,0.04 0.2,0.05 0.19,0.05 0.19,0.05 0.18,0.06 0.18,0.06 c 2.58,0.91 3.07,2.58 3.07,3.63 0,1.92 -1.93,3.06 -4.33,3.06 l 0,-0.97 c 1.53,0 2.83,-0.77 2.83,-2.09 0,-3.38 -5.9,-3.38 -7.4,-3.38 l -1.7,0 c 1.42,5.05 5.3,5.47 6.27,5.47 l 0,0.97 c -4.17,0 -9.83,-3.2 -9.83,-9.16 0,-3.51 2.2,-6.54 6.28,-6.54 5.89,0 8.64,3.43 8.64,3.93 0,0.21 -0.31,0.6 -0.59,0.6 -0.21,0 -0.28,-0.08 -0.57,-0.36 -2.71,-3.21 -6.79,-3.21 -7.42,-3.21 -2.09,0 -3.48,1.39 -3.48,4.22 0,0.49 0,1.19 0.42,3.1 z"
           id="path6002" /><path
           style="fill:#000000;stroke-width:0"
           inkscape:connector-curvature="0"
           d="m 510.63,393.97 -1.04,0 c -0.08,-0.48 -0.33,-2.01 -0.72,-2.26 -0.21,-0.16 -2.3,-0.16 -2.67,-0.16 l -4.88,0 c 1.64,1.22 3.48,2.61 4.98,3.61 2.24,1.55 4.33,3 4.33,5.64 0,3.19 -3.01,4.95 -6.58,4.95 -3.35,0 -5.82,-1.95 -5.82,-4.39 0,-1.29 1.09,-1.51 1.45,-1.51 0.67,0 1.47,0.45 1.47,1.47 0,0.89 -0.66,1.39 -1.42,1.47 0.68,1.12 2.14,1.87 3.81,1.87 2.41,0 4.42,-1.45 4.42,-3.89 0,-2.09 -1.44,-3.69 -3.36,-5.31 l -6.08,-5.16 c -0.25,-0.22 -0.26,-0.22 -0.29,-0.39 l 0,-0.75 11.57,0 z"
           id="path6004" /><path
           style="fill:#000000;stroke-width:0"
           inkscape:connector-curvature="0"
           d="m 566.07,416.26 0.14,0 0.15,0 0.14,0 0.08,0.01 0.07,0 0.07,0.01 0.07,0.01 0.07,0.01 0.07,0.01 0.07,0.01 0.07,0.02 0.06,0.02 0.06,0.02 0.06,0.03 0.06,0.02 0.06,0.03 0.05,0.04 0.05,0.04 0.05,0.04 0.04,0.04 0.04,0.05 0.02,0.03 0.02,0.03 0.01,0.03 0.02,0.03 0.01,0.03 0.02,0.03 0.01,0.03 0.01,0.04 0.01,0.03 0.01,0.04 0.01,0.04 0,0.04 0.01,0.04 0,0.04 0,0.05 0,0.04 c 0,1 -0.95,1 -1.64,1 l -29.84,0 c -0.71,0 -1.64,0 -1.64,-1 0,-0.98 0.93,-0.98 1.68,-0.98 z"
           id="path6006" /><path
           style="fill:#000000;stroke-width:0"
           inkscape:connector-curvature="0"
           d="m 566.12,406.59 0.07,0 0.06,0 0.14,0 0.14,0 0.07,0.01 0.07,0 0.07,0.01 0.07,0.01 0.06,0.01 0.07,0.01 0.07,0.01 0.06,0.02 0.07,0.02 0.06,0.02 0.06,0.03 0.06,0.02 0.05,0.04 0.05,0.03 0.05,0.04 0.05,0.04 0.04,0.05 0.02,0.02 0.02,0.03 0.02,0.02 0.02,0.03 0.01,0.03 0.02,0.03 0.01,0.03 0.02,0.04 0.01,0.03 0.01,0.04 0.01,0.03 0.01,0.04 0.01,0.04 0,0.04 0.01,0.04 0,0.05 0,0.04 0,0.05 c 0,1 -0.95,1 -1.69,1 l -29.75,0 c -0.75,0 -1.68,0 -1.68,-1 0,-1 0.93,-1 1.64,-1 z"
           id="path6008" /><path
           style="fill:#000000;stroke-width:0"
           inkscape:connector-curvature="0"
           d="m 590.73,403.8 5.28,5.13 c 7.76,6.87 10.76,9.56 10.76,14.55 0,5.68 -4.48,9.67 -10.56,9.67 -5.64,0 -9.33,-4.6 -9.33,-9.03 0,-2.78 2.5,-2.78 2.64,-2.78 0.86,0 2.6,0.59 2.6,2.64 0,1.29 -0.89,2.59 -2.64,2.59 -0.39,0 -0.5,0 -0.64,-0.05 1.14,3.24 3.82,5.08 6.71,5.08 4.54,0 6.69,-4.05 6.69,-8.12 0,-3.99 -2.5,-7.93 -5.23,-11.02 l -9.56,-10.66 c -0.57,-0.54 -0.57,-0.64 -0.57,-1.84 l 18.49,0 1.4,8.67 -1.25,0 c -0.25,-1.5 -0.59,-3.68 -1.09,-4.43 -0.36,-0.4 -3.64,-0.4 -4.73,-0.4 z"
           id="path6010" /><path
           style="fill:#000000;stroke-width:0"
           inkscape:connector-curvature="0"
           d="m 613.61,420.27 -0.01,-0.05 -0.02,-0.04 -0.01,-0.05 -0.02,-0.05 -0.01,-0.05 -0.01,-0.05 -0.02,-0.05 -0.01,-0.06 -0.03,-0.11 -0.03,-0.11 -0.03,-0.11 -0.03,-0.11 -0.01,-0.05 -0.01,-0.05 -0.01,-0.05 -0.01,-0.05 -0.01,-0.05 -0.01,-0.05 -0.01,-0.04 -0.01,-0.04 -0.01,-0.04 0,-0.03 -0.01,-0.03 -0.01,-0.03 0,-0.03 0,-0.02 0,-0.01 0,0 0,-0.01 0,-0.01 c 0,-0.76 0.62,-1.11 1.18,-1.11 0.63,0 1.17,0.46 1.36,0.77 0.17,0.31 0.46,1.42 0.63,2.16 0.17,0.65 0.54,2.26 0.76,3.14 0.21,0.76 0.42,1.53 0.6,2.32 0.37,1.44 0.45,1.71 1.45,3.15 0.98,1.39 2.63,3.2 5.23,3.2 2.02,0 2.05,-1.78 2.05,-2.44 0,-2.09 -1.48,-5.95 -2.05,-7.42 -0.39,-0.99 -0.53,-1.3 -0.53,-1.89 0,-1.84 1.55,-2.99 3.32,-2.99 3.48,0 5.01,4.8 5.01,5.33 0,0.46 -0.45,0.46 -0.55,0.46 -0.5,0 -0.53,-0.21 -0.67,-0.6 -0.79,-2.78 -2.29,-4.22 -3.68,-4.22 -0.74,0 -0.88,0.49 -0.88,1.22 0,0.8 0.17,1.25 0.8,2.83 0.42,1.08 1.86,4.77 1.86,6.72 0,3.39 -2.69,3.97 -4.54,3.97 -2.89,0 -4.84,-1.77 -5.89,-3.16 -0.25,2.39 -2.29,3.16 -3.73,3.16 -1.5,0 -2.3,-1.08 -2.75,-1.88 -0.77,-1.28 -1.25,-3.28 -1.25,-3.45 0,-0.45 0.48,-0.45 0.59,-0.45 0.49,0 0.52,0.11 0.77,1.04 0.52,2.07 1.19,3.77 2.55,3.77 0.9,0 1.14,-0.77 1.14,-1.7 0,-0.68 -0.32,-1.96 -0.57,-2.89 -0.23,-0.96 -0.57,-2.38 -0.76,-3.15 z"
           id="path6012" /></g>    </g>
  </g>
  <g
     id="g4500"
     transform="translate(-0.69402504,8.2611942)">
    <rect
       y="27.238806"
       x="53.906811"
       height="12"
       width="34.574429"
       id="rect4265"
       style="fill:#ffffff;fill-opacity:1;stroke:none;stroke-width:1.24600005;stroke-miterlimit:4;stroke-dasharray:none;stroke-opacity:1" />
    <g
       style="fill:#999999;fill-opacity:1"
       transform="matrix(0.92729396,0,0,0.92729396,9.3057947,2.6061747)"
       id="g4932">
      <g
         style="font-style:normal;font-variant:normal;font-weight:normal;font-stretch:normal;letter-spacing:normal;word-spacing:normal;text-anchor:start;fill:#999999;fill-opacity:1;fill-rule:evenodd;stroke:#000000;stroke-linecap:butt;stroke-linejoin:miter;stroke-miterlimit:10.43299961;stroke-dasharray:none;stroke-dashoffset:0;stroke-opacity:1"
         word-spacing="normal"
         letter-spacing="normal"
         font-size-adjust="none"
         font-stretch="normal"
         font-weight="normal"
         font-variant="normal"
         font-style="normal"
         stroke-miterlimit="10.433"
         xml:space="preserve"
         transform="matrix(0.17571429,0,0,-0.17571429,-30.75,107.25)"
         id="g4934"><path
           style="fill:#999999;fill-opacity:1;stroke-width:0"
           inkscape:connector-curvature="0"
           id="path4936"
           d="m 475.25,418.9 -0.14,0 -0.15,0 -0.15,-0.01 -0.14,0 -0.14,-0.01 -0.14,-0.02 -0.07,-0.01 -0.07,-0.01 -0.06,-0.01 -0.07,-0.02 -0.07,-0.02 -0.07,-0.02 -0.07,-0.02 -0.06,-0.02 -0.07,-0.03 -0.07,-0.03 -0.06,-0.03 -0.07,-0.04 -0.07,-0.04 -0.06,-0.04 -0.07,-0.04 -0.07,-0.05 -0.06,-0.06 -0.07,-0.05 -0.06,-0.06 -0.07,-0.06 c -0.8,-0.75 -0.89,-1.6 -0.89,-1.94 0,-1.21 0.89,-1.75 1.84,-1.75 1.44,0 2.8,1.2 2.8,3.19 0,2.43 -2.34,4.28 -5.89,4.28 -6.72,0 -13.34,-7.13 -13.34,-14.14 0,-4.49 2.89,-8.43 8.06,-8.43 7.12,0 11.31,5.29 11.31,5.88 0,0.3 -0.3,0.66 -0.59,0.66 -0.25,0 -0.35,-0.11 -0.66,-0.5 -3.94,-4.94 -9.36,-4.94 -9.95,-4.94 -3.14,0 -4.49,2.44 -4.49,5.44 0,2.03 0.99,6.87 2.69,9.95 1.55,2.84 4.28,4.98 7.02,4.98 1.7,0 3.59,-0.64 4.29,-1.98 z" /><path
           style="fill:#999999;fill-opacity:1;stroke-width:0"
           inkscape:connector-curvature="0"
           id="path4938"
           d="m 492.17,441.75 0,0.06 0,0.07 0,0.06 0,0.06 -0.01,0.05 0,0.06 0,0.05 0,0.05 -0.01,0.05 -0.01,0.05 -0.01,0.05 -0.01,0.04 -0.01,0.05 -0.01,0.04 -0.02,0.04 -0.02,0.03 -0.02,0.04 -0.02,0.03 -0.03,0.03 -0.02,0.03 -0.04,0.03 -0.03,0.02 -0.04,0.02 -0.02,0.01 -0.02,0.01 -0.02,0.01 -0.03,0.01 -0.02,0.01 -0.03,0.01 -0.02,0 -0.03,0.01 -0.03,0 -0.03,0.01 -0.03,0 -0.03,0.01 -0.03,0 -0.03,0 -0.04,0.01 -0.03,0 -0.04,0 -0.04,0 c -0.25,0 -0.34,0 -0.91,-0.28 -0.07,-0.03 -0.53,-0.24 -0.65,-0.24 -0.05,0 -0.11,0 -0.25,0.07 -1.44,0.45 -2.89,0.45 -3.63,0.45 -1.01,0 -3.14,0 -4.87,-0.94 -1.99,-1.11 -2.27,-2.92 -2.27,-3.73 0,-3.75 4.6,-4.46 7.03,-4.85 2.13,-0.31 4.67,-0.68 4.67,-2.5 0,-2.37 -3.45,-2.37 -4.28,-2.37 -3.31,0 -4.53,1.5 -5.18,3.39 -0.22,0.58 -0.25,0.66 -1.13,0.66 -1,0 -1.11,-0.11 -1.11,-1.11 l 0,-3.43 c 0,-0.7 0,-1.1 0.8,-1.1 0.31,0 0.39,0 1.11,0.45 0.22,0.09 0.78,0.4 0.98,0.55 1.81,-1 3.69,-1 4.5,-1 1.14,0 7.14,0 7.14,5.15 0,1.59 -0.84,2.72 -1.64,3.38 -1.64,1.36 -3.14,1.61 -6.03,2.06 -1.98,0.31 -4.05,0.62 -4.05,2.01 0,1.96 3.49,1.96 4.22,1.96 3.94,0 4.08,-1.61 4.19,-2.44 0.06,-0.7 0.28,-0.77 1.08,-0.77 1.01,0 1.11,0.1 1.11,1.11 z" /><path
           style="fill:#999999;fill-opacity:1;stroke-width:0"
           inkscape:connector-curvature="0"
           id="path4940"
           d="m 503.97,453.78 0,0 0,0 0.01,0.01 0,0.01 0.01,0.01 0.01,0.01 0,0.02 0.01,0.02 0.01,0.01 0.01,0.03 0.01,0.02 0.01,0.02 0.01,0.03 0.01,0.03 0.01,0.03 0.01,0.02 0.02,0.04 0.01,0.03 0.01,0.03 0.01,0.03 0.01,0.04 0.01,0.03 0.01,0.04 0.01,0.04 0,0.03 0.01,0.04 0.01,0.03 0,0.04 0.01,0.04 0,0.03 0.01,0.04 0,0.04 0,0.03 c 0,0.91 -0.8,1.47 -1.55,1.47 -1.01,0 -1.29,-0.76 -1.42,-1.14 l -3.83,-10.78 c -0.11,-0.31 -0.11,-0.38 -0.11,-0.41 0,-0.39 1.05,-0.64 1.08,-0.64 0.22,0 0.27,0.13 0.42,0.42 z" /><path
           style="fill:#999999;fill-opacity:1;stroke-width:0"
           inkscape:connector-curvature="0"
           id="path4942"
           d="m 510.38,421.18 0,1.1 -3.13,0 0,10.97 c 0,0.59 -0.02,0.73 -0.67,0.73 -0.5,0 -0.52,-0.02 -0.8,-0.37 l -9.22,-11.33 0,-1.1 8.3,0 0.2,1.1 -7.33,0 7.33,9.01 0,-9.01 -0.2,-1.1 0,-1.93 c 0,-0.79 0,-1.04 -2.16,-1.04 l -0.87,0 0,-1.09 c 1.17,0.05 2.78,0.09 4.23,0.09 1.44,0 3.03,-0.04 4.24,-0.09 l 0,1.09 -0.88,0 c -2.17,0 -2.17,0.25 -2.17,1.04 l 0,1.93 z" /><path
           style="fill:#999999;fill-opacity:1;stroke-width:0"
           inkscape:connector-curvature="0"
           id="path4944"
           d="m 484.93,402.14 0.1,0 0.11,0 0.11,0 0.13,0 0.13,0 0.14,0.01 0.15,0 0.15,0.01 0.16,0.01 0.17,0.01 0.18,0 0.18,0.02 0.18,0.01 0.19,0.01 0.38,0.04 0.4,0.04 0.4,0.05 0.41,0.06 0.4,0.07 0.41,0.08 0.19,0.04 0.2,0.05 0.19,0.05 0.19,0.05 0.18,0.06 0.18,0.06 c 2.58,0.91 3.07,2.58 3.07,3.63 0,1.92 -1.93,3.06 -4.33,3.06 l 0,-0.97 c 1.53,0 2.83,-0.77 2.83,-2.09 0,-3.38 -5.9,-3.38 -7.4,-3.38 l -1.7,0 c 1.42,5.05 5.3,5.47 6.27,5.47 l 0,0.97 c -4.17,0 -9.83,-3.2 -9.83,-9.16 0,-3.51 2.2,-6.54 6.28,-6.54 5.89,0 8.64,3.43 8.64,3.93 0,0.21 -0.31,0.6 -0.59,0.6 -0.21,0 -0.28,-0.08 -0.57,-0.36 -2.71,-3.21 -6.79,-3.21 -7.42,-3.21 -2.09,0 -3.48,1.39 -3.48,4.22 0,0.49 0,1.19 0.42,3.1 z" /><path
           style="fill:#999999;fill-opacity:1;stroke-width:0"
           inkscape:connector-curvature="0"
           id="path4946"
           d="m 500.6,397.33 0,0.11 0.01,0.12 0,0.11 0,0.13 0,0.12 0.01,0.13 0,0.14 0.01,0.13 0.02,0.29 0.02,0.29 0.03,0.31 0.04,0.31 0.05,0.31 0.06,0.32 0.08,0.33 0.04,0.16 0.05,0.16 0.05,0.16 0.05,0.16 0.06,0.16 0.06,0.16 0.07,0.16 0.07,0.16 0.08,0.15 0.08,0.16 c 0.72,1.34 2.34,2.73 4.66,2.73 0.48,0 1.59,-0.05 2.34,-0.64 -0.39,-0.11 -1.05,-0.48 -1.05,-1.33 0,-0.79 0.6,-1.31 1.33,-1.31 0.42,0 1.31,0.22 1.31,1.39 0,1.34 -0.93,2.84 -3.95,2.84 -4.3,0 -8.22,-3.51 -8.22,-8.67 0,-5.95 2.91,-8.47 6.55,-8.47 2.47,0 3.64,0.93 4.48,1.63 1.6,1.31 1.92,2.78 1.92,4.03 0,1.52 -0.5,2.73 -1.79,3.89 -1.1,0.98 -2.25,1.66 -4.41,1.66 l -0.06,-0.85 c 1.28,0 2.08,-0.33 2.84,-1.31 0.75,-0.92 0.78,-1.97 0.78,-3.37 0,-1.44 0,-2.4 -0.79,-3.38 -0.71,-0.83 -1.58,-1.28 -2.97,-1.28 l 0,0 c -3.85,0 -3.85,4.14 -3.85,5.19 0,1.92 1.38,4.15 3.99,4.15 l 0.06,0.85 c -1.45,0 -3.08,-0.69 -4.11,-2.49 z" /><path
           style="fill:#999999;fill-opacity:1;stroke-width:0"
           inkscape:connector-curvature="0"
           id="path4948"
           d="m 566.07,416.26 0.14,0 0.15,0 0.14,0 0.08,0.01 0.07,0 0.07,0.01 0.07,0.01 0.07,0.01 0.07,0.01 0.07,0.01 0.07,0.02 0.06,0.02 0.06,0.02 0.06,0.03 0.06,0.02 0.06,0.03 0.05,0.04 0.05,0.04 0.05,0.04 0.04,0.04 0.04,0.05 0.02,0.03 0.02,0.03 0.01,0.03 0.02,0.03 0.01,0.03 0.02,0.03 0.01,0.03 0.01,0.04 0.01,0.03 0.01,0.04 0.01,0.04 0,0.04 0.01,0.04 0,0.04 0,0.05 0,0.04 c 0,1 -0.95,1 -1.64,1 l -29.84,0 c -0.71,0 -1.64,0 -1.64,-1 0,-0.98 0.93,-0.98 1.68,-0.98 z" /><path
           style="fill:#999999;fill-opacity:1;stroke-width:0"
           inkscape:connector-curvature="0"
           id="path4950"
           d="m 566.12,406.59 0.07,0 0.06,0 0.14,0 0.14,0 0.07,0.01 0.07,0 0.07,0.01 0.07,0.01 0.06,0.01 0.07,0.01 0.07,0.01 0.06,0.02 0.07,0.02 0.06,0.02 0.06,0.03 0.06,0.02 0.05,0.04 0.05,0.03 0.05,0.04 0.05,0.04 0.04,0.05 0.02,0.02 0.02,0.03 0.02,0.02 0.02,0.03 0.01,0.03 0.02,0.03 0.01,0.03 0.02,0.04 0.01,0.03 0.01,0.04 0.01,0.03 0.01,0.04 0.01,0.04 0,0.04 0.01,0.04 0,0.05 0,0.04 0,0.05 c 0,1 -0.95,1 -1.69,1 l -29.75,0 c -0.75,0 -1.68,0 -1.68,-1 0,-1 0.93,-1 1.64,-1 z" /><path
           style="fill:#999999;fill-opacity:1;stroke-width:0"
           inkscape:connector-curvature="0"
           id="path4952"
           d="m 590.73,403.8 5.28,5.13 c 7.76,6.87 10.76,9.56 10.76,14.55 0,5.68 -4.48,9.67 -10.56,9.67 -5.64,0 -9.33,-4.6 -9.33,-9.03 0,-2.78 2.5,-2.78 2.64,-2.78 0.86,0 2.6,0.59 2.6,2.64 0,1.29 -0.89,2.59 -2.64,2.59 -0.39,0 -0.5,0 -0.64,-0.05 1.14,3.24 3.82,5.08 6.71,5.08 4.54,0 6.69,-4.05 6.69,-8.12 0,-3.99 -2.5,-7.93 -5.23,-11.02 l -9.56,-10.66 c -0.57,-0.54 -0.57,-0.64 -0.57,-1.84 l 18.49,0 1.4,8.67 -1.25,0 c -0.25,-1.5 -0.59,-3.68 -1.09,-4.43 -0.36,-0.4 -3.64,-0.4 -4.73,-0.4 z" /><path
           style="fill:#999999;fill-opacity:1;stroke-width:0"
           inkscape:connector-curvature="0"
           id="path4954"
           d="m 626.95,424.42 -1.18,0 c -0.1,-0.76 -0.46,-2.83 -0.91,-3.17 -0.27,-0.2 -2.95,-0.2 -3.44,-0.2 l -6.42,0 c 3.66,3.23 4.88,4.2 6.97,5.84 2.58,2.06 4.98,4.22 4.98,7.53 0,4.22 -3.68,6.8 -8.15,6.8 -4.32,0 -7.25,-3.03 -7.25,-6.24 0,-1.78 1.5,-1.95 1.86,-1.95 0.82,0 1.84,0.59 1.84,1.85 0,0.62 -0.25,1.84 -2.06,1.84 1.08,2.47 3.45,3.23 5.09,3.23 3.49,0 5.3,-2.7 5.3,-5.53 0,-3.03 -2.16,-5.44 -3.28,-6.69 l -8.39,-8.29 c -0.36,-0.32 -0.36,-0.39 -0.36,-1.36 l 14.36,0 z" /><path
           style="fill:#999999;fill-opacity:1;stroke-width:0"
           inkscape:connector-curvature="0"
           id="path4956"
           d="m 633.41,420.27 -0.02,-0.05 -0.01,-0.04 -0.01,-0.05 -0.02,-0.05 -0.01,-0.05 -0.02,-0.05 -0.01,-0.05 -0.02,-0.06 -0.03,-0.11 -0.02,-0.11 -0.03,-0.11 -0.03,-0.11 -0.01,-0.05 -0.01,-0.05 -0.01,-0.05 -0.02,-0.05 -0.01,-0.05 -0.01,-0.05 0,-0.04 -0.01,-0.04 -0.01,-0.04 -0.01,-0.03 0,-0.03 -0.01,-0.03 0,-0.03 0,-0.02 -0.01,-0.01 0,0 0,-0.01 0,-0.01 c 0,-0.76 0.63,-1.11 1.19,-1.11 0.63,0 1.17,0.46 1.36,0.77 0.17,0.31 0.45,1.42 0.62,2.16 0.18,0.65 0.55,2.26 0.77,3.14 0.2,0.76 0.42,1.53 0.59,2.32 0.38,1.44 0.46,1.71 1.46,3.15 0.98,1.39 2.62,3.2 5.23,3.2 2.02,0 2.05,-1.78 2.05,-2.44 0,-2.09 -1.49,-5.95 -2.05,-7.42 -0.39,-0.99 -0.53,-1.3 -0.53,-1.89 0,-1.84 1.55,-2.99 3.31,-2.99 3.49,0 5.02,4.8 5.02,5.33 0,0.46 -0.46,0.46 -0.55,0.46 -0.5,0 -0.53,-0.21 -0.67,-0.6 -0.8,-2.78 -2.3,-4.22 -3.69,-4.22 -0.73,0 -0.87,0.49 -0.87,1.22 0,0.8 0.17,1.25 0.79,2.83 0.43,1.08 1.86,4.77 1.86,6.72 0,3.39 -2.68,3.97 -4.53,3.97 -2.89,0 -4.84,-1.77 -5.89,-3.16 -0.25,2.39 -2.3,3.16 -3.73,3.16 -1.5,0 -2.3,-1.08 -2.75,-1.88 -0.77,-1.28 -1.25,-3.28 -1.25,-3.45 0,-0.45 0.48,-0.45 0.59,-0.45 0.49,0 0.52,0.11 0.77,1.04 0.51,2.07 1.18,3.77 2.54,3.77 0.91,0 1.14,-0.77 1.14,-1.7 0,-0.68 -0.31,-1.96 -0.56,-2.89 -0.23,-0.96 -0.58,-2.38 -0.76,-3.15 z" /></g>    </g>
  </g>
  <g
     id="g4575"
     transform="translate(-13.380598,-7.5149231)">
    <rect
       y="62.014923"
       x="36.593384"
       height="12"
       width="34.574429"
       id="rect4267"
       style="fill:#ffffff;fill-opacity:1;stroke:none;stroke-width:1.24600005;stroke-miterlimit:4;stroke-dasharray:none;stroke-opacity:1" />
    <g
       transform="matrix(0.92729396,0,0,0.92729396,-8.0076323,37.382292)"
       id="g5260">
      <g
         style="font-style:normal;font-variant:normal;font-weight:normal;font-stretch:normal;letter-spacing:normal;word-spacing:normal;text-anchor:start;fill:none;fill-opacity:1;fill-rule:evenodd;stroke:#000000;stroke-linecap:butt;stroke-linejoin:miter;stroke-miterlimit:10.43299961;stroke-dasharray:none;stroke-dashoffset:0;stroke-opacity:1"
         id="g5262"
         transform="matrix(0.17571429,0,0,-0.17571429,-30.75,107.25)"
         xml:space="preserve"
         stroke-miterlimit="10.433"
         font-style="normal"
         font-variant="normal"
         font-weight="normal"
         font-stretch="normal"
         font-size-adjust="none"
         letter-spacing="normal"
         word-spacing="normal"><path
           style="fill:#000000;stroke-width:0"
           inkscape:connector-curvature="0"
           d="m 475.25,418.9 -0.14,0 -0.15,0 -0.15,-0.01 -0.14,0 -0.14,-0.01 -0.14,-0.02 -0.07,-0.01 -0.07,-0.01 -0.06,-0.01 -0.07,-0.02 -0.07,-0.02 -0.07,-0.02 -0.07,-0.02 -0.06,-0.02 -0.07,-0.03 -0.07,-0.03 -0.06,-0.03 -0.07,-0.04 -0.07,-0.04 -0.06,-0.04 -0.07,-0.04 -0.07,-0.05 -0.06,-0.06 -0.07,-0.05 -0.06,-0.06 -0.07,-0.06 c -0.8,-0.75 -0.89,-1.6 -0.89,-1.94 0,-1.21 0.89,-1.75 1.84,-1.75 1.44,0 2.8,1.2 2.8,3.19 0,2.43 -2.34,4.28 -5.89,4.28 -6.72,0 -13.34,-7.13 -13.34,-14.14 0,-4.49 2.89,-8.43 8.06,-8.43 7.12,0 11.31,5.29 11.31,5.88 0,0.3 -0.3,0.66 -0.59,0.66 -0.25,0 -0.35,-0.11 -0.66,-0.5 -3.94,-4.94 -9.36,-4.94 -9.95,-4.94 -3.14,0 -4.49,2.44 -4.49,5.44 0,2.03 0.99,6.87 2.69,9.95 1.55,2.84 4.28,4.98 7.02,4.98 1.7,0 3.59,-0.64 4.29,-1.98 z"
           id="path5264" /><path
           style="fill:#000000;stroke-width:0"
           inkscape:connector-curvature="0"
           d="m 492.17,441.75 0,0.06 0,0.07 0,0.06 0,0.06 -0.01,0.05 0,0.06 0,0.05 0,0.05 -0.01,0.05 -0.01,0.05 -0.01,0.05 -0.01,0.04 -0.01,0.05 -0.01,0.04 -0.02,0.04 -0.02,0.03 -0.02,0.04 -0.02,0.03 -0.03,0.03 -0.02,0.03 -0.04,0.03 -0.03,0.02 -0.04,0.02 -0.02,0.01 -0.02,0.01 -0.02,0.01 -0.03,0.01 -0.02,0.01 -0.03,0.01 -0.02,0 -0.03,0.01 -0.03,0 -0.03,0.01 -0.03,0 -0.03,0.01 -0.03,0 -0.03,0 -0.04,0.01 -0.03,0 -0.04,0 -0.04,0 c -0.25,0 -0.34,0 -0.91,-0.28 -0.07,-0.03 -0.53,-0.24 -0.65,-0.24 -0.05,0 -0.11,0 -0.25,0.07 -1.44,0.45 -2.89,0.45 -3.63,0.45 -1.01,0 -3.14,0 -4.87,-0.94 -1.99,-1.11 -2.27,-2.92 -2.27,-3.73 0,-3.75 4.6,-4.46 7.03,-4.85 2.13,-0.31 4.67,-0.68 4.67,-2.5 0,-2.37 -3.45,-2.37 -4.28,-2.37 -3.31,0 -4.53,1.5 -5.18,3.39 -0.22,0.58 -0.25,0.66 -1.13,0.66 -1,0 -1.11,-0.11 -1.11,-1.11 l 0,-3.43 c 0,-0.7 0,-1.1 0.8,-1.1 0.31,0 0.39,0 1.11,0.45 0.22,0.09 0.78,0.4 0.98,0.55 1.81,-1 3.69,-1 4.5,-1 1.14,0 7.14,0 7.14,5.15 0,1.59 -0.84,2.72 -1.64,3.38 -1.64,1.36 -3.14,1.61 -6.03,2.06 -1.98,0.31 -4.05,0.62 -4.05,2.01 0,1.96 3.49,1.96 4.22,1.96 3.94,0 4.08,-1.61 4.19,-2.44 0.06,-0.7 0.28,-0.77 1.08,-0.77 1.01,0 1.11,0.1 1.11,1.11 z"
           id="path5266" /><path
           style="fill:#000000;stroke-width:0"
           inkscape:connector-curvature="0"
           d="m 503.97,453.78 0,0 0,0 0.01,0.01 0,0.01 0.01,0.01 0.01,0.01 0,0.02 0.01,0.02 0.01,0.01 0.01,0.03 0.01,0.02 0.01,0.02 0.01,0.03 0.01,0.03 0.01,0.03 0.01,0.02 0.02,0.04 0.01,0.03 0.01,0.03 0.01,0.03 0.01,0.04 0.01,0.03 0.01,0.04 0.01,0.04 0,0.03 0.01,0.04 0.01,0.03 0,0.04 0.01,0.04 0,0.03 0.01,0.04 0,0.04 0,0.03 c 0,0.91 -0.8,1.47 -1.55,1.47 -1.01,0 -1.29,-0.76 -1.42,-1.14 l -3.83,-10.78 c -0.11,-0.31 -0.11,-0.38 -0.11,-0.41 0,-0.39 1.05,-0.64 1.08,-0.64 0.22,0 0.27,0.13 0.42,0.42 z"
           id="path5268" /><path
           style="fill:#000000;stroke-width:0"
           inkscape:connector-curvature="0"
           d="m 510.38,421.18 0,1.1 -3.13,0 0,10.97 c 0,0.59 -0.02,0.73 -0.67,0.73 -0.5,0 -0.52,-0.02 -0.8,-0.37 l -9.22,-11.33 0,-1.1 8.3,0 0.2,1.1 -7.33,0 7.33,9.01 0,-9.01 -0.2,-1.1 0,-1.93 c 0,-0.79 0,-1.04 -2.16,-1.04 l -0.87,0 0,-1.09 c 1.17,0.05 2.78,0.09 4.23,0.09 1.44,0 3.03,-0.04 4.24,-0.09 l 0,1.09 -0.88,0 c -2.17,0 -2.17,0.25 -2.17,1.04 l 0,1.93 z"
           id="path5270" /><path
           style="fill:#000000;stroke-width:0"
           inkscape:connector-curvature="0"
           d="m 484.93,402.14 0.1,0 0.11,0 0.11,0 0.13,0 0.13,0 0.14,0.01 0.15,0 0.15,0.01 0.16,0.01 0.17,0.01 0.18,0 0.18,0.02 0.18,0.01 0.19,0.01 0.38,0.04 0.4,0.04 0.4,0.05 0.41,0.06 0.4,0.07 0.41,0.08 0.19,0.04 0.2,0.05 0.19,0.05 0.19,0.05 0.18,0.06 0.18,0.06 c 2.58,0.91 3.07,2.58 3.07,3.63 0,1.92 -1.93,3.06 -4.33,3.06 l 0,-0.97 c 1.53,0 2.83,-0.77 2.83,-2.09 0,-3.38 -5.9,-3.38 -7.4,-3.38 l -1.7,0 c 1.42,5.05 5.3,5.47 6.27,5.47 l 0,0.97 c -4.17,0 -9.83,-3.2 -9.83,-9.16 0,-3.51 2.2,-6.54 6.28,-6.54 5.89,0 8.64,3.43 8.64,3.93 0,0.21 -0.31,0.6 -0.59,0.6 -0.21,0 -0.28,-0.08 -0.57,-0.36 -2.71,-3.21 -6.79,-3.21 -7.42,-3.21 -2.09,0 -3.48,1.39 -3.48,4.22 0,0.49 0,1.19 0.42,3.1 z"
           id="path5272" /><path
           style="fill:#000000;stroke-width:0"
           inkscape:connector-curvature="0"
           d="m 500.84,402.88 0.12,-0.03 0.12,-0.03 0.12,-0.02 0.12,-0.02 0.12,-0.03 0.12,-0.02 0.11,-0.01 0.11,-0.02 0.11,-0.02 0.11,-0.01 0.11,-0.02 0.1,-0.01 0.1,-0.01 0.1,-0.01 0.09,-0.01 0.09,0 0.09,-0.01 0.09,-0.01 0.08,0 0.08,-0.01 0.07,0 0.07,0 0.07,-0.01 0.06,0 0.06,0 0.06,0 0.05,0 0.05,0 0.04,0 0.04,0 0.03,0 0.02,0 c 1.71,0 2.94,0.5 3.6,0.84 0.59,0.3 2.3,1.38 2.3,1.92 0,0.38 -0.29,0.42 -0.36,0.42 -0.05,0 -0.1,0 -0.38,-0.12 -0.94,-0.33 -2.48,-0.67 -4.12,-0.67 -1.43,0 -2.8,0.25 -4.11,0.68 -0.28,0.11 -0.33,0.11 -0.38,0.11 -0.36,0 -0.36,-0.29 -0.36,-0.7 l 0,-7.47 c 0,-0.42 0,-0.75 0.49,-0.75 0.26,0 0.29,0.05 0.51,0.33 0.96,1.09 2.27,1.64 3.97,1.64 1.44,0 2.24,-0.84 2.58,-1.37 0.58,-0.85 0.7,-1.97 0.7,-3.16 0,-1.05 -0.09,-2.44 -1.08,-3.42 -1.11,-1.14 -2.53,-1.22 -3.07,-1.22 -1.63,0 -3.44,0.7 -4.22,2.17 1.04,0.08 1.4,0.83 1.4,1.39 0,0.8 -0.61,1.41 -1.4,1.41 -0.55,0 -1.39,-0.33 -1.39,-1.49 0,-2.43 2.39,-4.5 5.65,-4.5 3.72,0 6.75,2.49 6.75,5.58 0,2.81 -2.42,5.44 -5.87,5.44 -1.58,0 -2.85,-0.41 -3.92,-1.24 z"
           id="path5274" /><path
           style="fill:#000000;stroke-width:0"
           inkscape:connector-curvature="0"
           d="m 566.07,416.26 0.14,0 0.15,0 0.14,0 0.08,0.01 0.07,0 0.07,0.01 0.07,0.01 0.07,0.01 0.07,0.01 0.07,0.01 0.07,0.02 0.06,0.02 0.06,0.02 0.06,0.03 0.06,0.02 0.06,0.03 0.05,0.04 0.05,0.04 0.05,0.04 0.04,0.04 0.04,0.05 0.02,0.03 0.02,0.03 0.01,0.03 0.02,0.03 0.01,0.03 0.02,0.03 0.01,0.03 0.01,0.04 0.01,0.03 0.01,0.04 0.01,0.04 0,0.04 0.01,0.04 0,0.04 0,0.05 0,0.04 c 0,1 -0.95,1 -1.64,1 l -29.84,0 c -0.71,0 -1.64,0 -1.64,-1 0,-0.98 0.93,-0.98 1.68,-0.98 z"
           id="path5276" /><path
           style="fill:#000000;stroke-width:0"
           inkscape:connector-curvature="0"
           d="m 566.12,406.59 0.07,0 0.06,0 0.14,0 0.14,0 0.07,0.01 0.07,0 0.07,0.01 0.07,0.01 0.06,0.01 0.07,0.01 0.07,0.01 0.06,0.02 0.07,0.02 0.06,0.02 0.06,0.03 0.06,0.02 0.05,0.04 0.05,0.03 0.05,0.04 0.05,0.04 0.04,0.05 0.02,0.02 0.02,0.03 0.02,0.02 0.02,0.03 0.01,0.03 0.02,0.03 0.01,0.03 0.02,0.04 0.01,0.03 0.01,0.04 0.01,0.03 0.01,0.04 0.01,0.04 0,0.04 0.01,0.04 0,0.05 0,0.04 0,0.05 c 0,1 -0.95,1 -1.69,1 l -29.75,0 c -0.75,0 -1.68,0 -1.68,-1 0,-1 0.93,-1 1.64,-1 z"
           id="path5278" /><path
           style="fill:#000000;stroke-width:0"
           inkscape:connector-curvature="0"
           d="m 590.73,403.8 5.28,5.13 c 7.76,6.87 10.76,9.56 10.76,14.55 0,5.68 -4.48,9.67 -10.56,9.67 -5.64,0 -9.33,-4.6 -9.33,-9.03 0,-2.78 2.5,-2.78 2.64,-2.78 0.86,0 2.6,0.59 2.6,2.64 0,1.29 -0.89,2.59 -2.64,2.59 -0.39,0 -0.5,0 -0.64,-0.05 1.14,3.24 3.82,5.08 6.71,5.08 4.54,0 6.69,-4.05 6.69,-8.12 0,-3.99 -2.5,-7.93 -5.23,-11.02 l -9.56,-10.66 c -0.57,-0.54 -0.57,-0.64 -0.57,-1.84 l 18.49,0 1.4,8.67 -1.25,0 c -0.25,-1.5 -0.59,-3.68 -1.09,-4.43 -0.36,-0.4 -3.64,-0.4 -4.73,-0.4 z"
           id="path5280" /><path
           style="fill:#000000;stroke-width:0"
           inkscape:connector-curvature="0"
           d="m 618.88,429.72 0.25,-0.01 0.25,-0.01 0.24,-0.03 0.24,-0.04 0.23,-0.05 0.23,-0.06 0.22,-0.07 0.21,-0.08 0.21,-0.1 0.2,-0.1 0.2,-0.12 0.19,-0.13 0.18,-0.13 0.17,-0.15 0.17,-0.16 0.16,-0.17 0.15,-0.18 0.14,-0.19 0.14,-0.21 0.13,-0.21 0.11,-0.23 0.11,-0.23 0.1,-0.25 0.09,-0.26 0.08,-0.26 0.07,-0.28 0.06,-0.29 0.05,-0.3 0.04,-0.31 0.02,-0.33 0.02,-0.33 0.01,-0.34 c 0,-4.33 -2.52,-5.61 -4.53,-5.61 -1.4,0 -4.47,0.38 -5.93,2.44 1.63,0.06 2.02,1.22 2.02,1.95 0,1.11 -0.84,1.91 -1.92,1.91 -0.97,0 -1.96,-0.6 -1.96,-2.02 0,-3.28 3.63,-5.4 7.85,-5.4 4.84,0 8.19,3.24 8.19,6.73 0,2.72 -2.22,5.44 -6.07,6.23 3.66,1.33 4.99,3.94 4.99,6.07 0,2.75 -3.17,4.81 -7.03,4.81 -3.88,0 -6.83,-1.89 -6.83,-4.67 0,-1.19 0.76,-1.85 1.81,-1.85 1.08,0 1.77,0.8 1.77,1.77 0,1.01 -0.69,1.75 -1.77,1.81 1.22,1.55 3.61,1.92 4.91,1.92 1.56,0 3.76,-0.76 3.76,-3.79 0,-1.47 -0.48,-3.07 -1.39,-4.14 -1.15,-1.33 -2.12,-1.41 -3.87,-1.5 -0.88,-0.08 -0.94,-0.08 -1.11,-0.11 -0.08,0 -0.36,-0.07 -0.36,-0.46 0,-0.48 0.31,-0.48 0.9,-0.48 z"
           id="path5282" /><path
           style="fill:#000000;stroke-width:0"
           inkscape:connector-curvature="0"
           d="m 633.41,420.27 -0.02,-0.05 -0.01,-0.04 -0.01,-0.05 -0.02,-0.05 -0.01,-0.05 -0.02,-0.05 -0.01,-0.05 -0.02,-0.06 -0.03,-0.11 -0.02,-0.11 -0.03,-0.11 -0.03,-0.11 -0.01,-0.05 -0.01,-0.05 -0.01,-0.05 -0.02,-0.05 -0.01,-0.05 -0.01,-0.05 0,-0.04 -0.01,-0.04 -0.01,-0.04 -0.01,-0.03 0,-0.03 -0.01,-0.03 0,-0.03 0,-0.02 -0.01,-0.01 0,0 0,-0.01 0,-0.01 c 0,-0.76 0.63,-1.11 1.19,-1.11 0.63,0 1.17,0.46 1.36,0.77 0.17,0.31 0.45,1.42 0.62,2.16 0.18,0.65 0.55,2.26 0.77,3.14 0.2,0.76 0.42,1.53 0.59,2.32 0.38,1.44 0.46,1.71 1.46,3.15 0.98,1.39 2.62,3.2 5.23,3.2 2.02,0 2.05,-1.78 2.05,-2.44 0,-2.09 -1.49,-5.95 -2.05,-7.42 -0.39,-0.99 -0.53,-1.3 -0.53,-1.89 0,-1.84 1.55,-2.99 3.31,-2.99 3.49,0 5.02,4.8 5.02,5.33 0,0.46 -0.46,0.46 -0.55,0.46 -0.5,0 -0.53,-0.21 -0.67,-0.6 -0.8,-2.78 -2.3,-4.22 -3.69,-4.22 -0.73,0 -0.87,0.49 -0.87,1.22 0,0.8 0.17,1.25 0.79,2.83 0.43,1.08 1.86,4.77 1.86,6.72 0,3.39 -2.68,3.97 -4.53,3.97 -2.89,0 -4.84,-1.77 -5.89,-3.16 -0.25,2.39 -2.3,3.16 -3.73,3.16 -1.5,0 -2.3,-1.08 -2.75,-1.88 -0.77,-1.28 -1.25,-3.28 -1.25,-3.45 0,-0.45 0.48,-0.45 0.59,-0.45 0.49,0 0.52,0.11 0.77,1.04 0.51,2.07 1.18,3.77 2.54,3.77 0.91,0 1.14,-0.77 1.14,-1.7 0,-0.68 -0.31,-1.96 -0.56,-2.89 -0.23,-0.96 -0.58,-2.38 -0.76,-3.15 z"
           id="path5284" /></g>    </g>
  </g>
  <g
     id="g4625"
     transform="translate(-8.0074644,1.8880615)">
    <rect
       y="52.611938"
       x="95.198326"
       height="12"
       width="26.618277"
       id="rect4269"
       style="fill:#ffffff;fill-opacity:1;stroke:none;stroke-width:1.24600005;stroke-miterlimit:4;stroke-dasharray:none;stroke-opacity:1" />
    <g
       transform="matrix(0.92729396,0,0,0.92729396,50.265804,27.979307)"
       id="g4358">
      <g
         style="font-style:normal;font-variant:normal;font-weight:normal;font-stretch:normal;letter-spacing:normal;word-spacing:normal;text-anchor:start;fill:none;fill-opacity:1;fill-rule:evenodd;stroke:#000000;stroke-linecap:butt;stroke-linejoin:miter;stroke-miterlimit:10.43299961;stroke-dasharray:none;stroke-dashoffset:0;stroke-opacity:1"
         word-spacing="normal"
         letter-spacing="normal"
         font-size-adjust="none"
         font-stretch="normal"
         font-weight="normal"
         font-variant="normal"
         font-style="normal"
         stroke-miterlimit="10.433"
         xml:space="preserve"
         transform="matrix(0.17571429,0,0,-0.17571429,-30.75,107.25)"
         id="g4360"><path
           style="fill:#000000;stroke-width:0"
           inkscape:connector-curvature="0"
           id="path4362"
           d="m 475.25,418.9 -0.14,0 -0.15,0 -0.15,-0.01 -0.14,0 -0.14,-0.01 -0.14,-0.02 -0.07,-0.01 -0.07,-0.01 -0.06,-0.01 -0.07,-0.02 -0.07,-0.02 -0.07,-0.02 -0.07,-0.02 -0.06,-0.02 -0.07,-0.03 -0.07,-0.03 -0.06,-0.03 -0.07,-0.04 -0.07,-0.04 -0.06,-0.04 -0.07,-0.04 -0.07,-0.05 -0.06,-0.06 -0.07,-0.05 -0.06,-0.06 -0.07,-0.06 c -0.8,-0.75 -0.89,-1.6 -0.89,-1.94 0,-1.21 0.89,-1.75 1.84,-1.75 1.44,0 2.8,1.2 2.8,3.19 0,2.43 -2.34,4.28 -5.89,4.28 -6.72,0 -13.34,-7.13 -13.34,-14.14 0,-4.49 2.89,-8.43 8.06,-8.43 7.12,0 11.31,5.29 11.31,5.88 0,0.3 -0.3,0.66 -0.59,0.66 -0.25,0 -0.35,-0.11 -0.66,-0.5 -3.94,-4.94 -9.36,-4.94 -9.95,-4.94 -3.14,0 -4.49,2.44 -4.49,5.44 0,2.03 0.99,6.87 2.69,9.95 1.55,2.84 4.28,4.98 7.02,4.98 1.7,0 3.59,-0.64 4.29,-1.98 z" /><path
           style="fill:#000000;stroke-width:0"
           inkscape:connector-curvature="0"
           id="path4364"
           d="m 492.17,441.75 0,0.06 0,0.07 0,0.06 0,0.06 -0.01,0.05 0,0.06 0,0.05 0,0.05 -0.01,0.05 -0.01,0.05 -0.01,0.05 -0.01,0.04 -0.01,0.05 -0.01,0.04 -0.02,0.04 -0.02,0.03 -0.02,0.04 -0.02,0.03 -0.03,0.03 -0.02,0.03 -0.04,0.03 -0.03,0.02 -0.04,0.02 -0.02,0.01 -0.02,0.01 -0.02,0.01 -0.03,0.01 -0.02,0.01 -0.03,0.01 -0.02,0 -0.03,0.01 -0.03,0 -0.03,0.01 -0.03,0 -0.03,0.01 -0.03,0 -0.03,0 -0.04,0.01 -0.03,0 -0.04,0 -0.04,0 c -0.25,0 -0.34,0 -0.91,-0.28 -0.07,-0.03 -0.53,-0.24 -0.65,-0.24 -0.05,0 -0.11,0 -0.25,0.07 -1.44,0.45 -2.89,0.45 -3.63,0.45 -1.01,0 -3.14,0 -4.87,-0.94 -1.99,-1.11 -2.27,-2.92 -2.27,-3.73 0,-3.75 4.6,-4.46 7.03,-4.85 2.13,-0.31 4.67,-0.68 4.67,-2.5 0,-2.37 -3.45,-2.37 -4.28,-2.37 -3.31,0 -4.53,1.5 -5.18,3.39 -0.22,0.58 -0.25,0.66 -1.13,0.66 -1,0 -1.11,-0.11 -1.11,-1.11 l 0,-3.43 c 0,-0.7 0,-1.1 0.8,-1.1 0.31,0 0.39,0 1.11,0.45 0.22,0.09 0.78,0.4 0.98,0.55 1.81,-1 3.69,-1 4.5,-1 1.14,0 7.14,0 7.14,5.15 0,1.59 -0.84,2.72 -1.64,3.38 -1.64,1.36 -3.14,1.61 -6.03,2.06 -1.98,0.31 -4.05,0.62 -4.05,2.01 0,1.96 3.49,1.96 4.22,1.96 3.94,0 4.08,-1.61 4.19,-2.44 0.06,-0.7 0.28,-0.77 1.08,-0.77 1.01,0 1.11,0.1 1.11,1.11 z" /><path
           style="fill:#000000;stroke-width:0"
           inkscape:connector-curvature="0"
           id="path4366"
           d="m 503.97,453.78 0,0 0,0 0.01,0.01 0,0.01 0.01,0.01 0.01,0.01 0,0.02 0.01,0.02 0.01,0.01 0.01,0.03 0.01,0.02 0.01,0.02 0.01,0.03 0.01,0.03 0.01,0.03 0.01,0.02 0.02,0.04 0.01,0.03 0.01,0.03 0.01,0.03 0.01,0.04 0.01,0.03 0.01,0.04 0.01,0.04 0,0.03 0.01,0.04 0.01,0.03 0,0.04 0.01,0.04 0,0.03 0.01,0.04 0,0.04 0,0.03 c 0,0.91 -0.8,1.47 -1.55,1.47 -1.01,0 -1.29,-0.76 -1.42,-1.14 l -3.83,-10.78 c -0.11,-0.31 -0.11,-0.38 -0.11,-0.41 0,-0.39 1.05,-0.64 1.08,-0.64 0.22,0 0.27,0.13 0.42,0.42 z" /><path
           style="fill:#000000;stroke-width:0"
           inkscape:connector-curvature="0"
           id="path4368"
           d="m 510.38,421.18 0,1.1 -3.13,0 0,10.97 c 0,0.59 -0.02,0.73 -0.67,0.73 -0.5,0 -0.52,-0.02 -0.8,-0.37 l -9.22,-11.33 0,-1.1 8.3,0 0.2,1.1 -7.33,0 7.33,9.01 0,-9.01 -0.2,-1.1 0,-1.93 c 0,-0.79 0,-1.04 -2.16,-1.04 l -0.87,0 0,-1.09 c 1.17,0.05 2.78,0.09 4.23,0.09 1.44,0 3.03,-0.04 4.24,-0.09 l 0,1.09 -0.88,0 c -2.17,0 -2.17,0.25 -2.17,1.04 l 0,1.93 z" /><path
           style="fill:#000000;stroke-width:0"
           inkscape:connector-curvature="0"
           id="path4370"
           d="m 484.93,402.14 0.1,0 0.11,0 0.11,0 0.13,0 0.13,0 0.14,0.01 0.15,0 0.15,0.01 0.16,0.01 0.17,0.01 0.18,0 0.18,0.02 0.18,0.01 0.19,0.01 0.38,0.04 0.4,0.04 0.4,0.05 0.41,0.06 0.4,0.07 0.41,0.08 0.19,0.04 0.2,0.05 0.19,0.05 0.19,0.05 0.18,0.06 0.18,0.06 c 2.58,0.91 3.07,2.58 3.07,3.63 0,1.92 -1.93,3.06 -4.33,3.06 l 0,-0.97 c 1.53,0 2.83,-0.77 2.83,-2.09 0,-3.38 -5.9,-3.38 -7.4,-3.38 l -1.7,0 c 1.42,5.05 5.3,5.47 6.27,5.47 l 0,0.97 c -4.17,0 -9.83,-3.2 -9.83,-9.16 0,-3.51 2.2,-6.54 6.28,-6.54 5.89,0 8.64,3.43 8.64,3.93 0,0.21 -0.31,0.6 -0.59,0.6 -0.21,0 -0.28,-0.08 -0.57,-0.36 -2.71,-3.21 -6.79,-3.21 -7.42,-3.21 -2.09,0 -3.48,1.39 -3.48,4.22 0,0.49 0,1.19 0.42,3.1 z" /><path
           style="fill:#000000;stroke-width:0"
           inkscape:connector-curvature="0"
           id="path4372"
           d="m 506.65,398.16 0.23,0.1 0.23,0.1 0.21,0.11 0.21,0.1 0.2,0.11 0.18,0.1 0.18,0.11 0.17,0.11 0.16,0.12 0.15,0.11 0.14,0.11 0.14,0.12 0.12,0.11 0.12,0.12 0.11,0.12 0.1,0.12 0.1,0.12 0.09,0.12 0.08,0.12 0.07,0.13 0.07,0.12 0.06,0.13 0.05,0.12 0.05,0.13 0.04,0.13 0.04,0.13 0.02,0.12 0.03,0.13 0.02,0.13 0.01,0.13 0.01,0.14 0,0.13 c 0,2.59 -2.88,3.79 -5.58,3.79 l -0.06,-0.95 c 2,0 4.09,-0.97 4.09,-2.86 0,-2.19 -2.84,-3.22 -2.86,-3.22 -0.03,0 -0.06,0 -0.28,0.13 l -3.59,1.84 c -1.06,0.55 -1.39,1.2 -1.39,1.8 0,1.59 2.04,2.31 4.03,2.31 l 0.06,0.95 c -3.09,0 -5.64,-1.75 -5.64,-4.23 0,-2.3 1.97,-3.31 3.27,-3.98 -2.64,-1.04 -4.13,-2.5 -4.13,-4.54 0,-3 3.31,-4.39 6.44,-4.39 l 0.06,1.02 c -2.26,0 -4.78,1.12 -4.78,3.39 0,2.47 2.69,3.61 3.48,3.97 l 0,0 3.86,-1.97 c 0.89,-0.48 2.18,-1.16 2.18,-2.5 0,-2.02 -2.52,-2.89 -4.74,-2.89 l -0.06,-1.02 c 3.5,0 6.51,1.86 6.51,4.82 0,2.7 -2.59,3.98 -4.26,4.73 z" /><path
           style="fill:#000000;stroke-width:0"
           inkscape:connector-curvature="0"
           id="path4374"
           d="m 566.07,416.26 0.14,0 0.15,0 0.14,0 0.08,0.01 0.07,0 0.07,0.01 0.07,0.01 0.07,0.01 0.07,0.01 0.07,0.01 0.07,0.02 0.06,0.02 0.06,0.02 0.06,0.03 0.06,0.02 0.06,0.03 0.05,0.04 0.05,0.04 0.05,0.04 0.04,0.04 0.04,0.05 0.02,0.03 0.02,0.03 0.01,0.03 0.02,0.03 0.01,0.03 0.02,0.03 0.01,0.03 0.01,0.04 0.01,0.03 0.01,0.04 0.01,0.04 0,0.04 0.01,0.04 0,0.04 0,0.05 0,0.04 c 0,1 -0.95,1 -1.64,1 l -29.84,0 c -0.71,0 -1.64,0 -1.64,-1 0,-0.98 0.93,-0.98 1.68,-0.98 z" /><path
           style="fill:#000000;stroke-width:0"
           inkscape:connector-curvature="0"
           id="path4376"
           d="m 566.12,406.59 0.07,0 0.06,0 0.14,0 0.14,0 0.07,0.01 0.07,0 0.07,0.01 0.07,0.01 0.06,0.01 0.07,0.01 0.07,0.01 0.06,0.02 0.07,0.02 0.06,0.02 0.06,0.03 0.06,0.02 0.05,0.04 0.05,0.03 0.05,0.04 0.05,0.04 0.04,0.05 0.02,0.02 0.02,0.03 0.02,0.02 0.02,0.03 0.01,0.03 0.02,0.03 0.01,0.03 0.02,0.04 0.01,0.03 0.01,0.04 0.01,0.03 0.01,0.04 0.01,0.04 0,0.04 0.01,0.04 0,0.05 0,0.04 0,0.05 c 0,1 -0.95,1 -1.69,1 l -29.75,0 c -0.75,0 -1.68,0 -1.68,-1 0,-1 0.93,-1 1.64,-1 z" /><path
           style="fill:#000000;stroke-width:0"
           inkscape:connector-curvature="0"
           id="path4378"
           d="m 607.32,415.9 0,0.75 -0.01,0.74 -0.02,0.75 -0.04,0.74 -0.04,0.75 -0.06,0.74 -0.08,0.74 -0.09,0.73 -0.12,0.74 -0.14,0.72 -0.16,0.73 -0.19,0.71 -0.22,0.72 -0.24,0.7 -0.28,0.7 -0.15,0.35 -0.16,0.34 c -2.28,4.8 -6.37,5.6 -8.47,5.6 -2.98,0 -6.62,-1.3 -8.67,-5.94 -1.59,-3.44 -1.84,-7.33 -1.84,-11.31 0,-3.74 0.2,-8.22 2.25,-12 2.14,-4.03 5.78,-5.03 8.21,-5.03 l 0,1.09 c -1.93,0 -4.89,1.25 -5.78,6.03 -0.54,2.99 -0.54,7.56 -0.54,10.52 0,3.19 0,6.47 0.4,9.15 0.94,5.94 4.67,6.38 5.92,6.38 1.65,0 4.94,-0.89 5.88,-5.83 0.5,-2.78 0.5,-6.58 0.5,-9.7 0,-3.75 0,-7.13 -0.55,-10.31 -0.75,-4.74 -3.59,-6.24 -5.83,-6.24 l 0,0 0,-1.09 c 2.69,0 6.47,1.04 8.68,5.78 1.59,3.44 1.84,7.31 1.84,11.25 z" /></g>    </g>
  </g>
  <g
     id="g4677"
     transform="translate(-11.440298,-6.276123)">
    <rect
       y="89.776123"
       x="34.653084"
       height="12"
       width="34.574429"
       id="rect4275"
       style="fill:#ffffff;fill-opacity:1;stroke:none;stroke-width:1.24600005;stroke-miterlimit:4;stroke-dasharray:none;stroke-opacity:1" />
    <g
       style="fill:#999999;fill-opacity:1"
       transform="matrix(0.92729396,0,0,0.92729396,-9.9479323,65.143492)"
       id="g6390">
      <g
         style="font-style:normal;font-variant:normal;font-weight:normal;font-stretch:normal;letter-spacing:normal;word-spacing:normal;text-anchor:start;fill:#999999;fill-opacity:1;fill-rule:evenodd;stroke:#000000;stroke-linecap:butt;stroke-linejoin:miter;stroke-miterlimit:10.43299961;stroke-dasharray:none;stroke-dashoffset:0;stroke-opacity:1"
         word-spacing="normal"
         letter-spacing="normal"
         font-size-adjust="none"
         font-stretch="normal"
         font-weight="normal"
         font-variant="normal"
         font-style="normal"
         stroke-miterlimit="10.433"
         xml:space="preserve"
         transform="matrix(0.17571429,0,0,-0.17571429,-30.75,107.25)"
         id="g6392"><path
           style="fill:#999999;fill-opacity:1;stroke-width:0"
           inkscape:connector-curvature="0"
           id="path6394"
           d="m 475.25,418.9 -0.14,0 -0.15,0 -0.15,-0.01 -0.14,0 -0.14,-0.01 -0.14,-0.02 -0.07,-0.01 -0.07,-0.01 -0.06,-0.01 -0.07,-0.02 -0.07,-0.02 -0.07,-0.02 -0.07,-0.02 -0.06,-0.02 -0.07,-0.03 -0.07,-0.03 -0.06,-0.03 -0.07,-0.04 -0.07,-0.04 -0.06,-0.04 -0.07,-0.04 -0.07,-0.05 -0.06,-0.06 -0.07,-0.05 -0.06,-0.06 -0.07,-0.06 c -0.8,-0.75 -0.89,-1.6 -0.89,-1.94 0,-1.21 0.89,-1.75 1.84,-1.75 1.44,0 2.8,1.2 2.8,3.19 0,2.43 -2.34,4.28 -5.89,4.28 -6.72,0 -13.34,-7.13 -13.34,-14.14 0,-4.49 2.89,-8.43 8.06,-8.43 7.12,0 11.31,5.29 11.31,5.88 0,0.3 -0.3,0.66 -0.59,0.66 -0.25,0 -0.35,-0.11 -0.66,-0.5 -3.94,-4.94 -9.36,-4.94 -9.95,-4.94 -3.14,0 -4.49,2.44 -4.49,5.44 0,2.03 0.99,6.87 2.69,9.95 1.55,2.84 4.28,4.98 7.02,4.98 1.7,0 3.59,-0.64 4.29,-1.98 z" /><path
           style="fill:#999999;fill-opacity:1;stroke-width:0"
           inkscape:connector-curvature="0"
           id="path6396"
           d="m 492.17,441.75 0,0.06 0,0.07 0,0.06 0,0.06 -0.01,0.05 0,0.06 0,0.05 0,0.05 -0.01,0.05 -0.01,0.05 -0.01,0.05 -0.01,0.04 -0.01,0.05 -0.01,0.04 -0.02,0.04 -0.02,0.03 -0.02,0.04 -0.02,0.03 -0.03,0.03 -0.02,0.03 -0.04,0.03 -0.03,0.02 -0.04,0.02 -0.02,0.01 -0.02,0.01 -0.02,0.01 -0.03,0.01 -0.02,0.01 -0.03,0.01 -0.02,0 -0.03,0.01 -0.03,0 -0.03,0.01 -0.03,0 -0.03,0.01 -0.03,0 -0.03,0 -0.04,0.01 -0.03,0 -0.04,0 -0.04,0 c -0.25,0 -0.34,0 -0.91,-0.28 -0.07,-0.03 -0.53,-0.24 -0.65,-0.24 -0.05,0 -0.11,0 -0.25,0.07 -1.44,0.45 -2.89,0.45 -3.63,0.45 -1.01,0 -3.14,0 -4.87,-0.94 -1.99,-1.11 -2.27,-2.92 -2.27,-3.73 0,-3.75 4.6,-4.46 7.03,-4.85 2.13,-0.31 4.67,-0.68 4.67,-2.5 0,-2.37 -3.45,-2.37 -4.28,-2.37 -3.31,0 -4.53,1.5 -5.18,3.39 -0.22,0.58 -0.25,0.66 -1.13,0.66 -1,0 -1.11,-0.11 -1.11,-1.11 l 0,-3.43 c 0,-0.7 0,-1.1 0.8,-1.1 0.31,0 0.39,0 1.11,0.45 0.22,0.09 0.78,0.4 0.98,0.55 1.81,-1 3.69,-1 4.5,-1 1.14,0 7.14,0 7.14,5.15 0,1.59 -0.84,2.72 -1.64,3.38 -1.64,1.36 -3.14,1.61 -6.03,2.06 -1.98,0.31 -4.05,0.62 -4.05,2.01 0,1.96 3.49,1.96 4.22,1.96 3.94,0 4.08,-1.61 4.19,-2.44 0.06,-0.7 0.28,-0.77 1.08,-0.77 1.01,0 1.11,0.1 1.11,1.11 z" /><path
           style="fill:#999999;fill-opacity:1;stroke-width:0"
           inkscape:connector-curvature="0"
           id="path6398"
           d="m 503.97,453.78 0,0 0,0 0.01,0.01 0,0.01 0.01,0.01 0.01,0.01 0,0.02 0.01,0.02 0.01,0.01 0.01,0.03 0.01,0.02 0.01,0.02 0.01,0.03 0.01,0.03 0.01,0.03 0.01,0.02 0.02,0.04 0.01,0.03 0.01,0.03 0.01,0.03 0.01,0.04 0.01,0.03 0.01,0.04 0.01,0.04 0,0.03 0.01,0.04 0.01,0.03 0,0.04 0.01,0.04 0,0.03 0.01,0.04 0,0.04 0,0.03 c 0,0.91 -0.8,1.47 -1.55,1.47 -1.01,0 -1.29,-0.76 -1.42,-1.14 l -3.83,-10.78 c -0.11,-0.31 -0.11,-0.38 -0.11,-0.41 0,-0.39 1.05,-0.64 1.08,-0.64 0.22,0 0.27,0.13 0.42,0.42 z" /><path
           style="fill:#999999;fill-opacity:1;stroke-width:0"
           inkscape:connector-curvature="0"
           id="path6400"
           d="m 510.38,421.18 0,1.1 -3.13,0 0,10.97 c 0,0.59 -0.02,0.73 -0.67,0.73 -0.5,0 -0.52,-0.02 -0.8,-0.37 l -9.22,-11.33 0,-1.1 8.3,0 0.2,1.1 -7.33,0 7.33,9.01 0,-9.01 -0.2,-1.1 0,-1.93 c 0,-0.79 0,-1.04 -2.16,-1.04 l -0.87,0 0,-1.09 c 1.17,0.05 2.78,0.09 4.23,0.09 1.44,0 3.03,-0.04 4.24,-0.09 l 0,1.09 -0.88,0 c -2.17,0 -2.17,0.25 -2.17,1.04 l 0,1.93 z" /><path
           style="fill:#999999;fill-opacity:1;stroke-width:0"
           inkscape:connector-curvature="0"
           id="path6402"
           d="m 484.93,402.14 0.1,0 0.11,0 0.11,0 0.13,0 0.13,0 0.14,0.01 0.15,0 0.15,0.01 0.16,0.01 0.17,0.01 0.18,0 0.18,0.02 0.18,0.01 0.19,0.01 0.38,0.04 0.4,0.04 0.4,0.05 0.41,0.06 0.4,0.07 0.41,0.08 0.19,0.04 0.2,0.05 0.19,0.05 0.19,0.05 0.18,0.06 0.18,0.06 c 2.58,0.91 3.07,2.58 3.07,3.63 0,1.92 -1.93,3.06 -4.33,3.06 l 0,-0.97 c 1.53,0 2.83,-0.77 2.83,-2.09 0,-3.38 -5.9,-3.38 -7.4,-3.38 l -1.7,0 c 1.42,5.05 5.3,5.47 6.27,5.47 l 0,0.97 c -4.17,0 -9.83,-3.2 -9.83,-9.16 0,-3.51 2.2,-6.54 6.28,-6.54 5.89,0 8.64,3.43 8.64,3.93 0,0.21 -0.31,0.6 -0.59,0.6 -0.21,0 -0.28,-0.08 -0.57,-0.36 -2.71,-3.21 -6.79,-3.21 -7.42,-3.21 -2.09,0 -3.48,1.39 -3.48,4.22 0,0.49 0,1.19 0.42,3.1 z" /><path
           style="fill:#999999;fill-opacity:1;stroke-width:0"
           inkscape:connector-curvature="0"
           id="path6404"
           d="m 504.18,397.41 0.21,0 0.21,-0.02 0.2,-0.02 0.2,-0.03 0.2,-0.03 0.18,-0.05 0.19,-0.05 0.17,-0.06 0.18,-0.07 0.16,-0.08 0.16,-0.08 0.16,-0.09 0.14,-0.1 0.14,-0.11 0.14,-0.11 0.13,-0.12 0.12,-0.13 0.11,-0.13 0.11,-0.15 0.1,-0.14 0.09,-0.16 0.09,-0.16 0.08,-0.17 0.07,-0.18 0.06,-0.18 0.06,-0.19 0.04,-0.2 0.04,-0.2 0.03,-0.21 0.02,-0.22 0.02,-0.22 0,-0.23 c 0,-2.55 -1.56,-3.89 -3.78,-3.89 -0.28,0 -3.25,0 -4.51,1.3 1.03,0.15 1.32,0.92 1.32,1.51 0,0.92 -0.7,1.53 -1.53,1.53 -0.79,0 -1.53,-0.53 -1.53,-1.58 0,-2.59 2.94,-3.78 6.31,-3.78 4.1,0 6.64,2.47 6.64,4.88 0,2.05 -1.82,3.8 -4.67,4.44 3,0.96 3.8,2.87 3.8,4.26 0,2.05 -2.55,3.56 -5.69,3.56 -3.06,0 -5.53,-1.29 -5.53,-3.54 0,-1.17 0.95,-1.47 1.42,-1.47 0.72,0 1.42,0.53 1.42,1.42 0,0.58 -0.29,1.28 -1.18,1.42 1.06,1.14 3.28,1.22 3.79,1.22 1.83,0 3.13,-0.92 3.13,-2.61 0,-1.45 -0.95,-3.72 -3.56,-3.86 -0.71,-0.03 -0.8,-0.04 -1.46,-0.08 -0.26,-0.03 -0.54,-0.04 -0.54,-0.42 0,-0.42 0.25,-0.42 0.7,-0.42 z" /><path
           style="fill:#999999;fill-opacity:1;stroke-width:0"
           inkscape:connector-curvature="0"
           id="path6406"
           d="m 566.07,416.26 0.14,0 0.15,0 0.14,0 0.08,0.01 0.07,0 0.07,0.01 0.07,0.01 0.07,0.01 0.07,0.01 0.07,0.01 0.07,0.02 0.06,0.02 0.06,0.02 0.06,0.03 0.06,0.02 0.06,0.03 0.05,0.04 0.05,0.04 0.05,0.04 0.04,0.04 0.04,0.05 0.02,0.03 0.02,0.03 0.01,0.03 0.02,0.03 0.01,0.03 0.02,0.03 0.01,0.03 0.01,0.04 0.01,0.03 0.01,0.04 0.01,0.04 0,0.04 0.01,0.04 0,0.04 0,0.05 0,0.04 c 0,1 -0.95,1 -1.64,1 l -29.84,0 c -0.71,0 -1.64,0 -1.64,-1 0,-0.98 0.93,-0.98 1.68,-0.98 z" /><path
           style="fill:#999999;fill-opacity:1;stroke-width:0"
           inkscape:connector-curvature="0"
           id="path6408"
           d="m 566.12,406.59 0.07,0 0.06,0 0.14,0 0.14,0 0.07,0.01 0.07,0 0.07,0.01 0.07,0.01 0.06,0.01 0.07,0.01 0.07,0.01 0.06,0.02 0.07,0.02 0.06,0.02 0.06,0.03 0.06,0.02 0.05,0.04 0.05,0.03 0.05,0.04 0.05,0.04 0.04,0.05 0.02,0.02 0.02,0.03 0.02,0.02 0.02,0.03 0.01,0.03 0.02,0.03 0.01,0.03 0.02,0.04 0.01,0.03 0.01,0.04 0.01,0.03 0.01,0.04 0.01,0.04 0,0.04 0.01,0.04 0,0.05 0,0.04 0,0.05 c 0,1 -0.95,1 -1.69,1 l -29.75,0 c -0.75,0 -1.68,0 -1.68,-1 0,-1 0.93,-1 1.64,-1 z" /><path
           style="fill:#999999;fill-opacity:1;stroke-width:0"
           inkscape:connector-curvature="0"
           id="path6410"
           d="m 590.73,403.8 5.28,5.13 c 7.76,6.87 10.76,9.56 10.76,14.55 0,5.68 -4.48,9.67 -10.56,9.67 -5.64,0 -9.33,-4.6 -9.33,-9.03 0,-2.78 2.5,-2.78 2.64,-2.78 0.86,0 2.6,0.59 2.6,2.64 0,1.29 -0.89,2.59 -2.64,2.59 -0.39,0 -0.5,0 -0.64,-0.05 1.14,3.24 3.82,5.08 6.71,5.08 4.54,0 6.69,-4.05 6.69,-8.12 0,-3.99 -2.5,-7.93 -5.23,-11.02 l -9.56,-10.66 c -0.57,-0.54 -0.57,-0.64 -0.57,-1.84 l 18.49,0 1.4,8.67 -1.25,0 c -0.25,-1.5 -0.59,-3.68 -1.09,-4.43 -0.36,-0.4 -3.64,-0.4 -4.73,-0.4 z" /><path
           style="fill:#999999;fill-opacity:1;stroke-width:0"
           inkscape:connector-curvature="0"
           id="path6412"
           d="m 627.8,423.8 0,1.25 -3.88,0 0,15.54 c 0,0.72 0,0.97 -0.76,0.97 -0.43,0 -0.57,0 -0.91,-0.48 l -11.53,-16.03 0,-1.25 10.25,0 0.23,1.25 -9.2,0 9.2,12.75 0,-12.75 -0.23,-1.25 0,-2.86 c 0,-1.19 0,-1.61 -2.83,-1.61 l -0.94,0 0,-1.25 c 1.74,0.06 3.97,0.14 5.22,0.14 1.3,0 3.52,-0.08 5.27,-0.14 l 0,1.25 -0.94,0 c -2.83,0 -2.83,0.42 -2.83,1.61 l 0,2.86 z" /><path
           style="fill:#999999;fill-opacity:1;stroke-width:0"
           inkscape:connector-curvature="0"
           id="path6414"
           d="m 633.41,420.27 -0.02,-0.05 -0.01,-0.04 -0.01,-0.05 -0.02,-0.05 -0.01,-0.05 -0.02,-0.05 -0.01,-0.05 -0.02,-0.06 -0.03,-0.11 -0.02,-0.11 -0.03,-0.11 -0.03,-0.11 -0.01,-0.05 -0.01,-0.05 -0.01,-0.05 -0.02,-0.05 -0.01,-0.05 -0.01,-0.05 0,-0.04 -0.01,-0.04 -0.01,-0.04 -0.01,-0.03 0,-0.03 -0.01,-0.03 0,-0.03 0,-0.02 -0.01,-0.01 0,0 0,-0.01 0,-0.01 c 0,-0.76 0.63,-1.11 1.19,-1.11 0.63,0 1.17,0.46 1.36,0.77 0.17,0.31 0.45,1.42 0.62,2.16 0.18,0.65 0.55,2.26 0.77,3.14 0.2,0.76 0.42,1.53 0.59,2.32 0.38,1.44 0.46,1.71 1.46,3.15 0.98,1.39 2.62,3.2 5.23,3.2 2.02,0 2.05,-1.78 2.05,-2.44 0,-2.09 -1.49,-5.95 -2.05,-7.42 -0.39,-0.99 -0.53,-1.3 -0.53,-1.89 0,-1.84 1.55,-2.99 3.31,-2.99 3.49,0 5.02,4.8 5.02,5.33 0,0.46 -0.46,0.46 -0.55,0.46 -0.5,0 -0.53,-0.21 -0.67,-0.6 -0.8,-2.78 -2.3,-4.22 -3.69,-4.22 -0.73,0 -0.87,0.49 -0.87,1.22 0,0.8 0.17,1.25 0.79,2.83 0.43,1.08 1.86,4.77 1.86,6.72 0,3.39 -2.68,3.97 -4.53,3.97 -2.89,0 -4.84,-1.77 -5.89,-3.16 -0.25,2.39 -2.3,3.16 -3.73,3.16 -1.5,0 -2.3,-1.08 -2.75,-1.88 -0.77,-1.28 -1.25,-3.28 -1.25,-3.45 0,-0.45 0.48,-0.45 0.59,-0.45 0.49,0 0.52,0.11 0.77,1.04 0.51,2.07 1.18,3.77 2.54,3.77 0.91,0 1.14,-0.77 1.14,-1.7 0,-0.68 -0.31,-1.96 -0.56,-2.89 -0.23,-0.96 -0.58,-2.38 -0.76,-3.15 z" /></g>    </g>
  </g>
  <g
     id="g4729"
     transform="translate(-16.365662,13.126862)">
    <rect
       y="70.373138"
       x="101.21065"
       height="12"
       width="31.310028"
       id="rect4271"
       style="fill:#ffffff;fill-opacity:1;stroke:none;stroke-width:1.24600005;stroke-miterlimit:4;stroke-dasharray:none;stroke-opacity:1" />
    <g
       transform="matrix(0.93491062,0,0,0.93491062,56.095434,45.534072)"
       id="g5614">
      <g
         style="font-style:normal;font-variant:normal;font-weight:normal;font-stretch:normal;letter-spacing:normal;word-spacing:normal;text-anchor:start;fill:none;fill-opacity:1;fill-rule:evenodd;stroke:#000000;stroke-linecap:butt;stroke-linejoin:miter;stroke-miterlimit:10.43299961;stroke-dasharray:none;stroke-dashoffset:0;stroke-opacity:1"
         word-spacing="normal"
         letter-spacing="normal"
         font-size-adjust="none"
         font-stretch="normal"
         font-weight="normal"
         font-variant="normal"
         font-style="normal"
         stroke-miterlimit="10.433"
         xml:space="preserve"
         transform="matrix(0.17571429,0,0,-0.17571429,-30.75,107.25)"
         id="g5616"><path
           style="fill:#000000;stroke-width:0"
           inkscape:connector-curvature="0"
           id="path5618"
           d="m 475.25,418.9 -0.14,0 -0.15,0 -0.15,-0.01 -0.14,0 -0.14,-0.01 -0.14,-0.02 -0.07,-0.01 -0.07,-0.01 -0.06,-0.01 -0.07,-0.02 -0.07,-0.02 -0.07,-0.02 -0.07,-0.02 -0.06,-0.02 -0.07,-0.03 -0.07,-0.03 -0.06,-0.03 -0.07,-0.04 -0.07,-0.04 -0.06,-0.04 -0.07,-0.04 -0.07,-0.05 -0.06,-0.06 -0.07,-0.05 -0.06,-0.06 -0.07,-0.06 c -0.8,-0.75 -0.89,-1.6 -0.89,-1.94 0,-1.21 0.89,-1.75 1.84,-1.75 1.44,0 2.8,1.2 2.8,3.19 0,2.43 -2.34,4.28 -5.89,4.28 -6.72,0 -13.34,-7.13 -13.34,-14.14 0,-4.49 2.89,-8.43 8.06,-8.43 7.12,0 11.31,5.29 11.31,5.88 0,0.3 -0.3,0.66 -0.59,0.66 -0.25,0 -0.35,-0.11 -0.66,-0.5 -3.94,-4.94 -9.36,-4.94 -9.95,-4.94 -3.14,0 -4.49,2.44 -4.49,5.44 0,2.03 0.99,6.87 2.69,9.95 1.55,2.84 4.28,4.98 7.02,4.98 1.7,0 3.59,-0.64 4.29,-1.98 z" /><path
           style="fill:#000000;stroke-width:0"
           inkscape:connector-curvature="0"
           id="path5620"
           d="m 492.17,441.75 0,0.06 0,0.07 0,0.06 0,0.06 -0.01,0.05 0,0.06 0,0.05 0,0.05 -0.01,0.05 -0.01,0.05 -0.01,0.05 -0.01,0.04 -0.01,0.05 -0.01,0.04 -0.02,0.04 -0.02,0.03 -0.02,0.04 -0.02,0.03 -0.03,0.03 -0.02,0.03 -0.04,0.03 -0.03,0.02 -0.04,0.02 -0.02,0.01 -0.02,0.01 -0.02,0.01 -0.03,0.01 -0.02,0.01 -0.03,0.01 -0.02,0 -0.03,0.01 -0.03,0 -0.03,0.01 -0.03,0 -0.03,0.01 -0.03,0 -0.03,0 -0.04,0.01 -0.03,0 -0.04,0 -0.04,0 c -0.25,0 -0.34,0 -0.91,-0.28 -0.07,-0.03 -0.53,-0.24 -0.65,-0.24 -0.05,0 -0.11,0 -0.25,0.07 -1.44,0.45 -2.89,0.45 -3.63,0.45 -1.01,0 -3.14,0 -4.87,-0.94 -1.99,-1.11 -2.27,-2.92 -2.27,-3.73 0,-3.75 4.6,-4.46 7.03,-4.85 2.13,-0.31 4.67,-0.68 4.67,-2.5 0,-2.37 -3.45,-2.37 -4.28,-2.37 -3.31,0 -4.53,1.5 -5.18,3.39 -0.22,0.58 -0.25,0.66 -1.13,0.66 -1,0 -1.11,-0.11 -1.11,-1.11 l 0,-3.43 c 0,-0.7 0,-1.1 0.8,-1.1 0.31,0 0.39,0 1.11,0.45 0.22,0.09 0.78,0.4 0.98,0.55 1.81,-1 3.69,-1 4.5,-1 1.14,0 7.14,0 7.14,5.15 0,1.59 -0.84,2.72 -1.64,3.38 -1.64,1.36 -3.14,1.61 -6.03,2.06 -1.98,0.31 -4.05,0.62 -4.05,2.01 0,1.96 3.49,1.96 4.22,1.96 3.94,0 4.08,-1.61 4.19,-2.44 0.06,-0.7 0.28,-0.77 1.08,-0.77 1.01,0 1.11,0.1 1.11,1.11 z" /><path
           style="fill:#000000;stroke-width:0"
           inkscape:connector-curvature="0"
           id="path5622"
           d="m 503.97,453.78 0,0 0,0 0.01,0.01 0,0.01 0.01,0.01 0.01,0.01 0,0.02 0.01,0.02 0.01,0.01 0.01,0.03 0.01,0.02 0.01,0.02 0.01,0.03 0.01,0.03 0.01,0.03 0.01,0.02 0.02,0.04 0.01,0.03 0.01,0.03 0.01,0.03 0.01,0.04 0.01,0.03 0.01,0.04 0.01,0.04 0,0.03 0.01,0.04 0.01,0.03 0,0.04 0.01,0.04 0,0.03 0.01,0.04 0,0.04 0,0.03 c 0,0.91 -0.8,1.47 -1.55,1.47 -1.01,0 -1.29,-0.76 -1.42,-1.14 l -3.83,-10.78 c -0.11,-0.31 -0.11,-0.38 -0.11,-0.41 0,-0.39 1.05,-0.64 1.08,-0.64 0.22,0 0.27,0.13 0.42,0.42 z" /><path
           style="fill:#000000;stroke-width:0"
           inkscape:connector-curvature="0"
           id="path5624"
           d="m 510.38,421.18 0,1.1 -3.13,0 0,10.97 c 0,0.59 -0.02,0.73 -0.67,0.73 -0.5,0 -0.52,-0.02 -0.8,-0.37 l -9.22,-11.33 0,-1.1 8.3,0 0.2,1.1 -7.33,0 7.33,9.01 0,-9.01 -0.2,-1.1 0,-1.93 c 0,-0.79 0,-1.04 -2.16,-1.04 l -0.87,0 0,-1.09 c 1.17,0.05 2.78,0.09 4.23,0.09 1.44,0 3.03,-0.04 4.24,-0.09 l 0,1.09 -0.88,0 c -2.17,0 -2.17,0.25 -2.17,1.04 l 0,1.93 z" /><path
           style="fill:#000000;stroke-width:0"
           inkscape:connector-curvature="0"
           id="path5626"
           d="m 484.93,402.14 0.1,0 0.11,0 0.11,0 0.13,0 0.13,0 0.14,0.01 0.15,0 0.15,0.01 0.16,0.01 0.17,0.01 0.18,0 0.18,0.02 0.18,0.01 0.19,0.01 0.38,0.04 0.4,0.04 0.4,0.05 0.41,0.06 0.4,0.07 0.41,0.08 0.19,0.04 0.2,0.05 0.19,0.05 0.19,0.05 0.18,0.06 0.18,0.06 c 2.58,0.91 3.07,2.58 3.07,3.63 0,1.92 -1.93,3.06 -4.33,3.06 l 0,-0.97 c 1.53,0 2.83,-0.77 2.83,-2.09 0,-3.38 -5.9,-3.38 -7.4,-3.38 l -1.7,0 c 1.42,5.05 5.3,5.47 6.27,5.47 l 0,0.97 c -4.17,0 -9.83,-3.2 -9.83,-9.16 0,-3.51 2.2,-6.54 6.28,-6.54 5.89,0 8.64,3.43 8.64,3.93 0,0.21 -0.31,0.6 -0.59,0.6 -0.21,0 -0.28,-0.08 -0.57,-0.36 -2.71,-3.21 -6.79,-3.21 -7.42,-3.21 -2.09,0 -3.48,1.39 -3.48,4.22 0,0.49 0,1.19 0.42,3.1 z" /><path
           style="fill:#000000;stroke-width:0"
           inkscape:connector-curvature="0"
           id="path5628"
           d="m 511.34,393.22 0,1.1 -3.13,0 0,10.97 c 0,0.59 -0.01,0.73 -0.67,0.73 -0.5,0 -0.52,-0.02 -0.8,-0.38 l -9.22,-11.32 0,-1.1 8.3,0 0.2,1.1 -7.32,0 7.32,9.01 0,-9.01 -0.2,-1.1 0,-1.93 c 0,-0.79 0,-1.04 -2.16,-1.04 l -0.87,0 0,-1.09 c 1.17,0.05 2.78,0.09 4.23,0.09 1.44,0 3.03,-0.04 4.24,-0.09 l 0,1.09 -0.88,0 c -2.17,0 -2.17,0.25 -2.17,1.04 l 0,1.93 z" /><path
           style="fill:#000000;stroke-width:0"
           inkscape:connector-curvature="0"
           id="path5630"
           d="m 566.07,416.26 0.14,0 0.15,0 0.14,0 0.08,0.01 0.07,0 0.07,0.01 0.07,0.01 0.07,0.01 0.07,0.01 0.07,0.01 0.07,0.02 0.06,0.02 0.06,0.02 0.06,0.03 0.06,0.02 0.06,0.03 0.05,0.04 0.05,0.04 0.05,0.04 0.04,0.04 0.04,0.05 0.02,0.03 0.02,0.03 0.01,0.03 0.02,0.03 0.01,0.03 0.02,0.03 0.01,0.03 0.01,0.04 0.01,0.03 0.01,0.04 0.01,0.04 0,0.04 0.01,0.04 0,0.04 0,0.05 0,0.04 c 0,1 -0.95,1 -1.64,1 l -29.84,0 c -0.71,0 -1.64,0 -1.64,-1 0,-0.98 0.93,-0.98 1.68,-0.98 z" /><path
           style="fill:#000000;stroke-width:0"
           inkscape:connector-curvature="0"
           id="path5632"
           d="m 566.12,406.59 0.07,0 0.06,0 0.14,0 0.14,0 0.07,0.01 0.07,0 0.07,0.01 0.07,0.01 0.06,0.01 0.07,0.01 0.07,0.01 0.06,0.02 0.07,0.02 0.06,0.02 0.06,0.03 0.06,0.02 0.05,0.04 0.05,0.03 0.05,0.04 0.05,0.04 0.04,0.05 0.02,0.02 0.02,0.03 0.02,0.02 0.02,0.03 0.01,0.03 0.02,0.03 0.01,0.03 0.02,0.04 0.01,0.03 0.01,0.04 0.01,0.03 0.01,0.04 0.01,0.04 0,0.04 0.01,0.04 0,0.05 0,0.04 0,0.05 c 0,1 -0.95,1 -1.69,1 l -29.75,0 c -0.75,0 -1.68,0 -1.68,-1 0,-1 0.93,-1 1.64,-1 z" /><path
           style="fill:#000000;stroke-width:0"
           inkscape:connector-curvature="0"
           id="path5634"
           d="m 590.73,403.8 5.28,5.13 c 7.76,6.87 10.76,9.56 10.76,14.55 0,5.68 -4.48,9.67 -10.56,9.67 -5.64,0 -9.33,-4.6 -9.33,-9.03 0,-2.78 2.5,-2.78 2.64,-2.78 0.86,0 2.6,0.59 2.6,2.64 0,1.29 -0.89,2.59 -2.64,2.59 -0.39,0 -0.5,0 -0.64,-0.05 1.14,3.24 3.82,5.08 6.71,5.08 4.54,0 6.69,-4.05 6.69,-8.12 0,-3.99 -2.5,-7.93 -5.23,-11.02 l -9.56,-10.66 c -0.57,-0.54 -0.57,-0.64 -0.57,-1.84 l 18.49,0 1.4,8.67 -1.25,0 c -0.25,-1.5 -0.59,-3.68 -1.09,-4.43 -0.36,-0.4 -3.64,-0.4 -4.73,-0.4 z" /><path
           style="fill:#000000;stroke-width:0"
           inkscape:connector-curvature="0"
           id="path5636"
           d="m 613.61,420.27 -0.01,-0.05 -0.02,-0.04 -0.01,-0.05 -0.02,-0.05 -0.01,-0.05 -0.01,-0.05 -0.02,-0.05 -0.01,-0.06 -0.03,-0.11 -0.03,-0.11 -0.03,-0.11 -0.03,-0.11 -0.01,-0.05 -0.01,-0.05 -0.01,-0.05 -0.01,-0.05 -0.01,-0.05 -0.01,-0.05 -0.01,-0.04 -0.01,-0.04 -0.01,-0.04 0,-0.03 -0.01,-0.03 -0.01,-0.03 0,-0.03 0,-0.02 0,-0.01 0,0 0,-0.01 0,-0.01 c 0,-0.76 0.62,-1.11 1.18,-1.11 0.63,0 1.17,0.46 1.36,0.77 0.17,0.31 0.46,1.42 0.63,2.16 0.17,0.65 0.54,2.26 0.76,3.14 0.21,0.76 0.42,1.53 0.6,2.32 0.37,1.44 0.45,1.71 1.45,3.15 0.98,1.39 2.63,3.2 5.23,3.2 2.02,0 2.05,-1.78 2.05,-2.44 0,-2.09 -1.48,-5.95 -2.05,-7.42 -0.39,-0.99 -0.53,-1.3 -0.53,-1.89 0,-1.84 1.55,-2.99 3.32,-2.99 3.48,0 5.01,4.8 5.01,5.33 0,0.46 -0.45,0.46 -0.55,0.46 -0.5,0 -0.53,-0.21 -0.67,-0.6 -0.79,-2.78 -2.29,-4.22 -3.68,-4.22 -0.74,0 -0.88,0.49 -0.88,1.22 0,0.8 0.17,1.25 0.8,2.83 0.42,1.08 1.86,4.77 1.86,6.72 0,3.39 -2.69,3.97 -4.54,3.97 -2.89,0 -4.84,-1.77 -5.89,-3.16 -0.25,2.39 -2.29,3.16 -3.73,3.16 -1.5,0 -2.3,-1.08 -2.75,-1.88 -0.77,-1.28 -1.25,-3.28 -1.25,-3.45 0,-0.45 0.48,-0.45 0.59,-0.45 0.49,0 0.52,0.11 0.77,1.04 0.52,2.07 1.19,3.77 2.55,3.77 0.9,0 1.14,-0.77 1.14,-1.7 0,-0.68 -0.32,-1.96 -0.57,-2.89 -0.23,-0.96 -0.57,-2.38 -0.76,-3.15 z" /></g>    </g>
  </g>
  <g
     id="g4803"
     transform="translate(0.49999814,-15.082092)">
    <rect
       y="88.582092"
       x="52.712788"
       height="12"
       width="34.574429"
       id="rect4273"
       style="fill:#ffffff;fill-opacity:1;stroke:none;stroke-width:1.24600005;stroke-miterlimit:4;stroke-dasharray:none;stroke-opacity:1" />
    <g
       style="fill:#999999;fill-opacity:1"
       transform="matrix(1.0115934,0,0,1.0115934,2.4855695,61.164677)"
       id="g4630">
      <g
         style="font-style:normal;font-variant:normal;font-weight:normal;font-stretch:normal;letter-spacing:normal;word-spacing:normal;text-anchor:start;fill:#999999;fill-opacity:1;fill-rule:evenodd;stroke:#000000;stroke-linecap:butt;stroke-linejoin:miter;stroke-miterlimit:10.43299961;stroke-dasharray:none;stroke-dashoffset:0;stroke-opacity:1"
         id="g4632"
         transform="matrix(0.17571429,0,0,-0.17571429,-30.75,107.25)"
         xml:space="preserve"
         stroke-miterlimit="10.433"
         font-style="normal"
         font-variant="normal"
         font-weight="normal"
         font-stretch="normal"
         font-size-adjust="none"
         letter-spacing="normal"
         word-spacing="normal"><path
           style="fill:#999999;fill-opacity:1;stroke-width:0"
           inkscape:connector-curvature="0"
           d="m 475.25,418.9 -0.14,0 -0.15,0 -0.15,-0.01 -0.14,0 -0.14,-0.01 -0.14,-0.02 -0.07,-0.01 -0.07,-0.01 -0.06,-0.01 -0.07,-0.02 -0.07,-0.02 -0.07,-0.02 -0.07,-0.02 -0.06,-0.02 -0.07,-0.03 -0.07,-0.03 -0.06,-0.03 -0.07,-0.04 -0.07,-0.04 -0.06,-0.04 -0.07,-0.04 -0.07,-0.05 -0.06,-0.06 -0.07,-0.05 -0.06,-0.06 -0.07,-0.06 c -0.8,-0.75 -0.89,-1.6 -0.89,-1.94 0,-1.21 0.89,-1.75 1.84,-1.75 1.44,0 2.8,1.2 2.8,3.19 0,2.43 -2.34,4.28 -5.89,4.28 -6.72,0 -13.34,-7.13 -13.34,-14.14 0,-4.49 2.89,-8.43 8.06,-8.43 7.12,0 11.31,5.29 11.31,5.88 0,0.3 -0.3,0.66 -0.59,0.66 -0.25,0 -0.35,-0.11 -0.66,-0.5 -3.94,-4.94 -9.36,-4.94 -9.95,-4.94 -3.14,0 -4.49,2.44 -4.49,5.44 0,2.03 0.99,6.87 2.69,9.95 1.55,2.84 4.28,4.98 7.02,4.98 1.7,0 3.59,-0.64 4.29,-1.98 z"
           id="path4634" /><path
           style="fill:#999999;fill-opacity:1;stroke-width:0"
           inkscape:connector-curvature="0"
           d="m 492.17,441.75 0,0.06 0,0.07 0,0.06 0,0.06 -0.01,0.05 0,0.06 0,0.05 0,0.05 -0.01,0.05 -0.01,0.05 -0.01,0.05 -0.01,0.04 -0.01,0.05 -0.01,0.04 -0.02,0.04 -0.02,0.03 -0.02,0.04 -0.02,0.03 -0.03,0.03 -0.02,0.03 -0.04,0.03 -0.03,0.02 -0.04,0.02 -0.02,0.01 -0.02,0.01 -0.02,0.01 -0.03,0.01 -0.02,0.01 -0.03,0.01 -0.02,0 -0.03,0.01 -0.03,0 -0.03,0.01 -0.03,0 -0.03,0.01 -0.03,0 -0.03,0 -0.04,0.01 -0.03,0 -0.04,0 -0.04,0 c -0.25,0 -0.34,0 -0.91,-0.28 -0.07,-0.03 -0.53,-0.24 -0.65,-0.24 -0.05,0 -0.11,0 -0.25,0.07 -1.44,0.45 -2.89,0.45 -3.63,0.45 -1.01,0 -3.14,0 -4.87,-0.94 -1.99,-1.11 -2.27,-2.92 -2.27,-3.73 0,-3.75 4.6,-4.46 7.03,-4.85 2.13,-0.31 4.67,-0.68 4.67,-2.5 0,-2.37 -3.45,-2.37 -4.28,-2.37 -3.31,0 -4.53,1.5 -5.18,3.39 -0.22,0.58 -0.25,0.66 -1.13,0.66 -1,0 -1.11,-0.11 -1.11,-1.11 l 0,-3.43 c 0,-0.7 0,-1.1 0.8,-1.1 0.31,0 0.39,0 1.11,0.45 0.22,0.09 0.78,0.4 0.98,0.55 1.81,-1 3.69,-1 4.5,-1 1.14,0 7.14,0 7.14,5.15 0,1.59 -0.84,2.72 -1.64,3.38 -1.64,1.36 -3.14,1.61 -6.03,2.06 -1.98,0.31 -4.05,0.62 -4.05,2.01 0,1.96 3.49,1.96 4.22,1.96 3.94,0 4.08,-1.61 4.19,-2.44 0.06,-0.7 0.28,-0.77 1.08,-0.77 1.01,0 1.11,0.1 1.11,1.11 z"
           id="path4636" /><path
           style="fill:#999999;fill-opacity:1;stroke-width:0"
           inkscape:connector-curvature="0"
           d="m 503.97,453.78 0,0 0,0 0.01,0.01 0,0.01 0.01,0.01 0.01,0.01 0,0.02 0.01,0.02 0.01,0.01 0.01,0.03 0.01,0.02 0.01,0.02 0.01,0.03 0.01,0.03 0.01,0.03 0.01,0.02 0.02,0.04 0.01,0.03 0.01,0.03 0.01,0.03 0.01,0.04 0.01,0.03 0.01,0.04 0.01,0.04 0,0.03 0.01,0.04 0.01,0.03 0,0.04 0.01,0.04 0,0.03 0.01,0.04 0,0.04 0,0.03 c 0,0.91 -0.8,1.47 -1.55,1.47 -1.01,0 -1.29,-0.76 -1.42,-1.14 l -3.83,-10.78 c -0.11,-0.31 -0.11,-0.38 -0.11,-0.41 0,-0.39 1.05,-0.64 1.08,-0.64 0.22,0 0.27,0.13 0.42,0.42 z"
           id="path4638" /><path
           style="fill:#999999;fill-opacity:1;stroke-width:0"
           inkscape:connector-curvature="0"
           d="m 510.38,421.18 0,1.1 -3.13,0 0,10.97 c 0,0.59 -0.02,0.73 -0.67,0.73 -0.5,0 -0.52,-0.02 -0.8,-0.37 l -9.22,-11.33 0,-1.1 8.3,0 0.2,1.1 -7.33,0 7.33,9.01 0,-9.01 -0.2,-1.1 0,-1.93 c 0,-0.79 0,-1.04 -2.16,-1.04 l -0.87,0 0,-1.09 c 1.17,0.05 2.78,0.09 4.23,0.09 1.44,0 3.03,-0.04 4.24,-0.09 l 0,1.09 -0.88,0 c -2.17,0 -2.17,0.25 -2.17,1.04 l 0,1.93 z"
           id="path4640" /><path
           style="fill:#999999;fill-opacity:1;stroke-width:0"
           inkscape:connector-curvature="0"
           d="m 484.93,402.14 0.1,0 0.11,0 0.11,0 0.13,0 0.13,0 0.14,0.01 0.15,0 0.15,0.01 0.16,0.01 0.17,0.01 0.18,0 0.18,0.02 0.18,0.01 0.19,0.01 0.38,0.04 0.4,0.04 0.4,0.05 0.41,0.06 0.4,0.07 0.41,0.08 0.19,0.04 0.2,0.05 0.19,0.05 0.19,0.05 0.18,0.06 0.18,0.06 c 2.58,0.91 3.07,2.58 3.07,3.63 0,1.92 -1.93,3.06 -4.33,3.06 l 0,-0.97 c 1.53,0 2.83,-0.77 2.83,-2.09 0,-3.38 -5.9,-3.38 -7.4,-3.38 l -1.7,0 c 1.42,5.05 5.3,5.47 6.27,5.47 l 0,0.97 c -4.17,0 -9.83,-3.2 -9.83,-9.16 0,-3.51 2.2,-6.54 6.28,-6.54 5.89,0 8.64,3.43 8.64,3.93 0,0.21 -0.31,0.6 -0.59,0.6 -0.21,0 -0.28,-0.08 -0.57,-0.36 -2.71,-3.21 -6.79,-3.21 -7.42,-3.21 -2.09,0 -3.48,1.39 -3.48,4.22 0,0.49 0,1.19 0.42,3.1 z"
           id="path4642" /><path
           style="fill:#999999;fill-opacity:1;stroke-width:0"
           inkscape:connector-curvature="0"
           d="m 511.52,404.11 0.01,0.01 0.01,0.01 0.01,0.01 0.01,0.01 0.01,0.01 0.01,0.01 0.01,0.01 0.01,0.01 0.01,0.01 0.01,0 0.01,0.02 0.02,0.01 0.01,0.02 0.01,0.01 0.01,0.02 0.01,0.01 0.01,0.01 0.01,0.01 0.01,0.01 0,0.01 0.01,0.01 0.01,0.01 0,0.01 0.01,0.01 0,0.01 0,0.01 0.01,0.01 0,0.01 0,0.01 0,0.02 0.01,0.02 0,0.01 0,0.01 0,0.01 0,0.01 0,0.71 -6.01,0 c -0.66,0 -4.3,0.09 -4.74,0.17 -0.57,0.12 -0.61,0.37 -0.65,0.62 l -1.05,0 -0.94,-5.61 1.05,0 c 0.05,0.38 0.31,2 0.73,2.27 0.16,0.13 2.5,0.16 2.88,0.16 l 5.92,0 c -1.05,-1.22 -2.39,-2.58 -3.36,-3.8 -2.97,-3.78 -3.34,-7.38 -3.34,-8.89 0,-1.38 0.87,-1.52 1.33,-1.52 1.31,0 1.31,1.27 1.31,1.57 l 0,0.5 c 0,4.43 0.95,7.17 2.45,8.82 z"
           id="path4644" /><path
           style="fill:#999999;fill-opacity:1;stroke-width:0"
           inkscape:connector-curvature="0"
           d="m 566.07,416.26 0.14,0 0.15,0 0.14,0 0.08,0.01 0.07,0 0.07,0.01 0.07,0.01 0.07,0.01 0.07,0.01 0.07,0.01 0.07,0.02 0.06,0.02 0.06,0.02 0.06,0.03 0.06,0.02 0.06,0.03 0.05,0.04 0.05,0.04 0.05,0.04 0.04,0.04 0.04,0.05 0.02,0.03 0.02,0.03 0.01,0.03 0.02,0.03 0.01,0.03 0.02,0.03 0.01,0.03 0.01,0.04 0.01,0.03 0.01,0.04 0.01,0.04 0,0.04 0.01,0.04 0,0.04 0,0.05 0,0.04 c 0,1 -0.95,1 -1.64,1 l -29.84,0 c -0.71,0 -1.64,0 -1.64,-1 0,-0.98 0.93,-0.98 1.68,-0.98 z"
           id="path4646" /><path
           style="fill:#999999;fill-opacity:1;stroke-width:0"
           inkscape:connector-curvature="0"
           d="m 566.12,406.59 0.07,0 0.06,0 0.14,0 0.14,0 0.07,0.01 0.07,0 0.07,0.01 0.07,0.01 0.06,0.01 0.07,0.01 0.07,0.01 0.06,0.02 0.07,0.02 0.06,0.02 0.06,0.03 0.06,0.02 0.05,0.04 0.05,0.03 0.05,0.04 0.05,0.04 0.04,0.05 0.02,0.02 0.02,0.03 0.02,0.02 0.02,0.03 0.01,0.03 0.02,0.03 0.01,0.03 0.02,0.04 0.01,0.03 0.01,0.04 0.01,0.03 0.01,0.04 0.01,0.04 0,0.04 0.01,0.04 0,0.05 0,0.04 0,0.05 c 0,1 -0.95,1 -1.69,1 l -29.75,0 c -0.75,0 -1.68,0 -1.68,-1 0,-1 0.93,-1 1.64,-1 z"
           id="path4648" /><path
           style="fill:#999999;fill-opacity:1;stroke-width:0"
           inkscape:connector-curvature="0"
           d="m 590.73,403.8 5.28,5.13 c 7.76,6.87 10.76,9.56 10.76,14.55 0,5.68 -4.48,9.67 -10.56,9.67 -5.64,0 -9.33,-4.6 -9.33,-9.03 0,-2.78 2.5,-2.78 2.64,-2.78 0.86,0 2.6,0.59 2.6,2.64 0,1.29 -0.89,2.59 -2.64,2.59 -0.39,0 -0.5,0 -0.64,-0.05 1.14,3.24 3.82,5.08 6.71,5.08 4.54,0 6.69,-4.05 6.69,-8.12 0,-3.99 -2.5,-7.93 -5.23,-11.02 l -9.56,-10.66 c -0.57,-0.54 -0.57,-0.64 -0.57,-1.84 l 18.49,0 1.4,8.67 -1.25,0 c -0.25,-1.5 -0.59,-3.68 -1.09,-4.43 -0.36,-0.4 -3.64,-0.4 -4.73,-0.4 z"
           id="path4650" /><path
           style="fill:#999999;fill-opacity:1;stroke-width:0"
           inkscape:connector-curvature="0"
           d="m 626.95,424.42 -1.18,0 c -0.1,-0.76 -0.46,-2.83 -0.91,-3.17 -0.27,-0.2 -2.95,-0.2 -3.44,-0.2 l -6.42,0 c 3.66,3.23 4.88,4.2 6.97,5.84 2.58,2.06 4.98,4.22 4.98,7.53 0,4.22 -3.68,6.8 -8.15,6.8 -4.32,0 -7.25,-3.03 -7.25,-6.24 0,-1.78 1.5,-1.95 1.86,-1.95 0.82,0 1.84,0.59 1.84,1.85 0,0.62 -0.25,1.84 -2.06,1.84 1.08,2.47 3.45,3.23 5.09,3.23 3.49,0 5.3,-2.7 5.3,-5.53 0,-3.03 -2.16,-5.44 -3.28,-6.69 l -8.39,-8.29 c -0.36,-0.32 -0.36,-0.39 -0.36,-1.36 l 14.36,0 z"
           id="path4652" /><path
           style="fill:#999999;fill-opacity:1;stroke-width:0"
           inkscape:connector-curvature="0"
           d="m 633.41,420.27 -0.02,-0.05 -0.01,-0.04 -0.01,-0.05 -0.02,-0.05 -0.01,-0.05 -0.02,-0.05 -0.01,-0.05 -0.02,-0.06 -0.03,-0.11 -0.02,-0.11 -0.03,-0.11 -0.03,-0.11 -0.01,-0.05 -0.01,-0.05 -0.01,-0.05 -0.02,-0.05 -0.01,-0.05 -0.01,-0.05 0,-0.04 -0.01,-0.04 -0.01,-0.04 -0.01,-0.03 0,-0.03 -0.01,-0.03 0,-0.03 0,-0.02 -0.01,-0.01 0,0 0,-0.01 0,-0.01 c 0,-0.76 0.63,-1.11 1.19,-1.11 0.63,0 1.17,0.46 1.36,0.77 0.17,0.31 0.45,1.42 0.62,2.16 0.18,0.65 0.55,2.26 0.77,3.14 0.2,0.76 0.42,1.53 0.59,2.32 0.38,1.44 0.46,1.71 1.46,3.15 0.98,1.39 2.62,3.2 5.23,3.2 2.02,0 2.05,-1.78 2.05,-2.44 0,-2.09 -1.49,-5.95 -2.05,-7.42 -0.39,-0.99 -0.53,-1.3 -0.53,-1.89 0,-1.84 1.55,-2.99 3.31,-2.99 3.49,0 5.02,4.8 5.02,5.33 0,0.46 -0.46,0.46 -0.55,0.46 -0.5,0 -0.53,-0.21 -0.67,-0.6 -0.8,-2.78 -2.3,-4.22 -3.69,-4.22 -0.73,0 -0.87,0.49 -0.87,1.22 0,0.8 0.17,1.25 0.79,2.83 0.43,1.08 1.86,4.77 1.86,6.72 0,3.39 -2.68,3.97 -4.53,3.97 -2.89,0 -4.84,-1.77 -5.89,-3.16 -0.25,2.39 -2.3,3.16 -3.73,3.16 -1.5,0 -2.3,-1.08 -2.75,-1.88 -0.77,-1.28 -1.25,-3.28 -1.25,-3.45 0,-0.45 0.48,-0.45 0.59,-0.45 0.49,0 0.52,0.11 0.77,1.04 0.51,2.07 1.18,3.77 2.54,3.77 0.91,0 1.14,-0.77 1.14,-1.7 0,-0.68 -0.31,-1.96 -0.56,-2.89 -0.23,-0.96 -0.58,-2.38 -0.76,-3.15 z"
           id="path4654" /></g>    </g>
  </g>
</svg>
